<svg width="550" height="417" viewBox="0 0 550 417" fill="none" xmlns="http://www.w3.org/2000/svg">
<g clip-path="url(#clip0)">
<path d="M473.295 239.489C454.118 239.591 437.452 244.259 423.496 251.159C418.375 240.91 413.255 231.777 412.351 225.079C411.347 217.266 410.142 212.496 411.347 203.16C412.552 193.824 417.974 180.531 417.873 179.516C417.773 178.501 416.668 173.732 405.624 173.63C394.58 173.529 385.042 175.761 383.938 178.704C382.833 181.647 380.725 188.345 379.319 195.245C377.411 205.393 357.231 241.62 345.685 260.597C341.97 253.189 338.757 246.694 338.054 241.519C337.05 233.705 335.845 228.936 337.05 219.6C338.255 210.264 343.677 196.97 343.576 195.955C343.476 194.941 342.371 190.171 331.327 190.07C320.283 189.968 310.745 192.201 309.64 195.144C308.536 198.086 307.331 204.987 305.022 211.684C302.713 218.382 275.905 278.863 268.877 294.49C265.263 302.507 262.15 308.9 259.942 313.263C259.942 313.263 259.841 313.568 259.54 314.075C257.632 317.83 256.528 319.859 256.528 319.859C256.528 319.859 256.528 319.859 256.528 319.961C255.022 322.701 253.415 325.238 252.612 325.238C252.01 325.238 250.905 317.931 252.813 307.987C256.829 286.981 266.367 254.305 266.267 253.189C266.267 252.58 268.074 246.897 260.042 243.954C252.211 241.011 249.399 245.882 248.697 245.882C247.994 245.882 247.492 247.607 247.492 247.607C247.492 247.607 256.227 210.873 230.825 210.873C214.962 210.873 193.074 228.428 182.231 244.259C175.403 248.013 160.845 256.03 145.283 264.656C139.359 268.004 133.235 271.353 127.512 274.499C127.11 274.093 126.709 273.586 126.307 273.18C95.5842 239.997 38.7569 216.555 41.1666 172.007C42.0702 155.77 47.5922 113.15 150.303 61.3962C234.841 19.2831 302.11 30.953 313.757 56.8298C330.423 93.7676 277.713 162.366 190.363 172.311C157.03 176.066 139.56 163.077 135.142 158.206C130.524 153.132 129.821 152.827 128.114 153.842C125.303 155.364 127.11 159.931 128.114 162.569C130.725 169.47 141.468 181.647 159.64 187.634C175.705 192.911 214.761 195.854 262.05 177.385C314.962 156.684 356.327 99.1459 344.178 50.9441C332.03 2.0319 251.709 -14.103 175.705 13.1944C130.524 29.4308 81.528 55.0032 46.287 88.2878C4.41958 127.864 -2.20692 162.265 0.503919 176.675C10.2429 227.819 80.022 261.104 107.934 285.763C106.528 286.575 105.223 287.285 104.118 287.894C90.1625 294.896 36.9497 323.005 23.6967 352.738C8.63645 386.429 26.1063 410.58 37.6525 413.828C73.4959 423.874 110.343 405.811 130.122 375.977C149.901 346.142 147.492 307.378 138.355 289.619C138.255 289.416 138.154 289.213 137.954 289.01C141.568 286.879 145.283 284.647 148.897 282.516C156.026 278.254 163.054 274.296 169.078 271.049C165.665 280.486 163.154 291.75 161.95 307.987C160.444 327.064 168.175 351.825 178.315 361.567C182.833 365.829 188.154 365.93 191.568 365.93C203.416 365.93 208.737 355.985 214.66 344.214C221.889 329.804 228.415 313.06 228.415 313.06C228.415 313.06 220.283 358.319 242.371 358.319C250.403 358.319 258.536 347.766 262.15 342.387C262.15 342.489 262.15 342.489 262.15 342.489C262.15 342.489 262.351 342.185 262.753 341.474C263.556 340.155 264.058 339.343 264.058 339.343C264.058 339.343 264.058 339.242 264.058 339.14C267.271 333.457 274.5 320.57 285.243 299.158C299.098 271.556 312.452 237.054 312.452 237.054C312.452 237.054 313.656 245.476 317.773 259.48C320.183 267.7 325.203 276.732 329.219 285.459C326.006 290.025 323.998 292.562 323.998 292.562C323.998 292.562 323.998 292.562 324.098 292.663C321.488 296.114 318.677 299.868 315.564 303.522C304.62 316.714 291.568 331.834 289.761 336.197C287.652 341.373 288.154 345.127 292.171 348.172C295.082 350.404 300.303 350.709 305.624 350.404C315.464 349.694 322.391 347.258 325.805 345.736C331.126 343.808 337.351 340.865 343.174 336.502C353.917 328.485 360.444 317.018 359.841 301.898C359.54 293.577 356.829 285.256 353.516 277.442C354.52 276.021 355.423 274.601 356.428 273.18C373.395 248.115 386.548 220.614 386.548 220.614C386.548 220.614 387.753 229.037 391.869 243.041C393.877 250.144 397.994 257.857 401.608 265.366C385.644 278.457 375.805 293.678 372.291 303.623C365.966 322.092 370.885 330.413 380.223 332.341C384.44 333.255 390.464 331.225 394.881 329.297C400.504 327.47 407.13 324.324 413.456 319.657C424.199 311.64 434.54 300.477 433.938 285.357C433.636 278.457 431.829 271.658 429.319 265.062C442.873 259.379 460.343 256.233 482.632 258.872C530.423 264.554 539.861 294.693 538.054 307.378C536.247 320.062 526.207 326.963 522.893 329.094C519.58 331.225 518.476 331.935 518.777 333.457C519.179 335.69 520.785 335.588 523.596 335.183C527.512 334.472 548.697 324.933 549.6 301.594C551.106 271.759 522.994 239.185 473.295 239.489ZM104.62 365.118C88.7569 382.573 66.6686 389.169 57.1304 383.587C46.8895 377.6 50.9055 351.825 70.3834 333.356C82.2308 322.092 97.4918 311.64 107.632 305.247C109.942 303.826 113.355 301.796 117.472 299.26C118.175 298.854 118.576 298.651 118.576 298.651C119.379 298.143 120.183 297.636 120.986 297.129C128.114 323.513 121.287 346.751 104.62 365.118ZM220.082 285.763C214.56 299.361 203.014 334.168 195.986 332.24C189.962 330.616 186.247 304.232 194.781 278.152C199.098 265.062 208.235 249.434 213.556 243.345C222.191 233.604 231.729 230.356 234.038 234.314C236.95 239.489 223.496 277.239 220.082 285.763ZM315.363 331.834C313.054 333.052 310.845 333.863 309.841 333.254C309.138 332.849 310.845 331.225 310.845 331.225C310.845 331.225 322.793 318.236 327.512 312.35C330.223 308.9 333.436 304.841 336.849 300.274C336.849 300.68 336.849 301.188 336.849 301.594C336.849 317.12 321.99 327.572 315.363 331.834ZM388.857 314.887C387.15 313.669 387.452 309.61 393.174 296.926C395.383 291.953 400.604 283.632 409.54 275.615C410.544 278.863 411.247 282.008 411.146 284.951C411.046 304.536 397.191 311.843 388.857 314.887Z" fill="#CD6799"/>
</g>
<defs>
<clipPath id="clip0">
<rect width="550" height="416.667" fill="white"/>
</clipPath>
</defs>
</svg>
