<svg width="550" height="551" viewBox="0 0 550 551" fill="none" xmlns="http://www.w3.org/2000/svg">
<path fill-rule="evenodd" clip-rule="evenodd" d="M284.625 550L269.988 544.996C269.988 544.996 271.776 470.357 244.994 465.001C227.146 444.284 247.857 -413.568 312.123 462.141C312.123 462.141 289.984 473.209 286.057 492.142C281.77 510.715 284.625 550 284.625 550V550Z" fill="white"/>
<path fill-rule="evenodd" clip-rule="evenodd" d="M284.625 550L269.988 544.996C269.988 544.996 271.776 470.357 244.994 465.001C227.146 444.284 247.857 -413.568 312.123 462.141C312.123 462.141 289.984 473.209 286.057 492.142C281.77 510.715 284.625 550 284.625 550V550Z" fill="#A6A385"/>
<path fill-rule="evenodd" clip-rule="evenodd" d="M292.484 477.856C292.484 477.856 420.667 393.568 390.67 218.209C361.752 90.7156 293.555 48.9299 286.057 32.8573C277.847 21.4288 269.989 1.43188 269.989 1.43188L275.347 356.067C275.347 356.427 264.278 464.639 292.488 477.86" fill="white"/>
<path fill-rule="evenodd" clip-rule="evenodd" d="M292.484 477.856C292.484 477.856 420.667 393.568 390.67 218.209C361.752 90.7156 293.555 48.9299 286.057 32.8573C277.847 21.4288 269.989 1.43188 269.989 1.43188L275.347 356.067C275.347 356.427 264.278 464.639 292.488 477.86" fill="#499D4A"/>
<path fill-rule="evenodd" clip-rule="evenodd" d="M262.492 482.496C262.492 482.496 142.163 400.353 149.306 255.715C156.088 111.073 241.065 40.0016 257.49 27.1451C268.203 15.7166 268.559 11.4285 269.275 0C276.773 16.0726 275.345 240.358 276.413 266.783C279.625 368.567 270.702 463.215 262.492 482.496Z" fill="white"/>
<path fill-rule="evenodd" clip-rule="evenodd" d="M262.492 482.496C262.492 482.496 142.163 400.353 149.306 255.715C156.088 111.073 241.065 40.0016 257.49 27.1451C268.203 15.7166 268.559 11.4285 269.275 0C276.773 16.0726 275.345 240.358 276.413 266.783C279.625 368.567 270.702 463.215 262.492 482.496Z" fill="#58AA50"/>
</svg>
