<svg width="393" height="550" viewBox="0 0 393 550" fill="none" xmlns="http://www.w3.org/2000/svg">
<path d="M0 432.143L66.6016 10.242C67.5223 3.54517 73.9676 -1.02087 80.7199 0.196742C84.4029 0.805545 87.779 3.24075 89.6205 6.58917L158.371 133.829L185.686 82.0808C188.756 75.9928 196.122 73.862 202.26 76.906C204.408 78.1236 206.25 79.95 207.478 82.0808L392.857 432.143H0Z" fill="#FFA000"/>
<path d="M235.714 266.35L162.388 130.952L0 432.143L235.714 266.35Z" fill="#F57C00"/>
<path d="M392.857 441.902L341.908 115.382C340.681 108.388 334.542 103.937 327.79 104.89C325.335 105.208 322.879 106.48 321.038 108.388L0 441.902L177.706 545.231C188.756 551.59 202.567 551.59 213.616 545.231L392.857 441.902Z" fill="#FFCA28"/>
</svg>
