<svg width="21" height="19" viewBox="0 0 21 19" fill="none" xmlns="http://www.w3.org/2000/svg">
<path d="M2 6.98483H16V8.73104H18V3.49241C18 2.532 17.1 1.74621 16 1.74621H15V0H13V1.74621H5V0H3V1.74621H2C0.89 1.74621 0.00999999 2.532 0.00999999 3.49241L0 15.7159C0 16.179 0.210714 16.6231 0.585787 16.9506C0.960859 17.2781 1.46957 17.4621 2 17.4621H9V15.7159H2V6.98483ZM2 3.49241H16V5.23862H2V3.49241ZM19.84 12.4679L19.13 13.0878L17.01 11.2368L17.72 10.6169C17.8125 10.536 17.9224 10.4718 18.0434 10.428C18.1644 10.3842 18.294 10.3616 18.425 10.3616C18.556 10.3616 18.6857 10.3842 18.8066 10.428C18.9276 10.4718 19.0375 10.536 19.13 10.6169L19.84 11.2368C20.23 11.5774 20.23 12.1274 19.84 12.4679ZM16.3 11.8567L18.42 13.7077L13.12 18.3352H11V16.4842L16.3 11.8567Z" fill="#3172BC"/>
</svg>
