<svg width="550" height="550" viewBox="0 0 550 550" fill="none" xmlns="http://www.w3.org/2000/svg">
<path d="M0 275V0H550V550H0" fill="#007ACC"/>
<path d="M120.588 275.962V298.375H192.088V501.875H242.825V298.375H314.325V276.375C314.325 264 314.325 253.962 313.775 253.687C313.775 253.275 270.188 253.137 217.25 253.137L121 253.55V276.1L120.588 275.962ZM441.925 253C455.95 256.3 466.675 262.625 476.3 272.662C481.388 278.162 488.95 287.787 489.5 290.262C489.5 291.087 465.713 307.175 451.275 316.112C450.725 316.525 448.525 314.187 446.325 310.612C439.175 300.437 431.888 296.037 420.475 295.212C403.975 294.112 392.975 302.775 392.975 317.212C392.975 321.612 393.8 324.087 395.45 327.662C399.163 335.225 406.038 339.762 427.35 349.112C466.675 366.025 483.725 377.162 494.038 393.112C505.725 410.987 508.338 439.037 500.5 460.075C491.7 483.037 470.25 498.575 439.588 503.662C429.963 505.312 407.963 505.037 397.65 503.25C375.65 499.125 354.613 488.125 341.688 473.962C336.6 468.462 326.838 453.75 327.388 452.787L332.613 449.487L353.238 437.525L368.775 428.45L372.35 433.262C376.888 440.412 387.063 450.037 392.975 453.337C410.85 462.55 434.775 461.312 446.6 450.587C451.688 445.912 453.888 440.962 453.888 434.087C453.888 427.762 452.925 424.875 449.763 420.062C445.363 414.012 436.563 409.062 411.813 398.062C383.35 385.962 371.25 378.262 359.975 366.437C353.513 359.287 347.6 348.15 344.85 338.937C342.788 330.962 342.1 311.437 344.025 303.6C349.938 276.1 370.7 256.85 400.4 251.35C410.025 249.425 432.713 250.25 442.2 252.725L441.925 253Z" fill="#FAFAFF"/>
</svg>
