<svg width="550" height="550" viewBox="0 0 550 550" fill="none" xmlns="http://www.w3.org/2000/svg">
<g clip-path="url(#clip0)">
<path d="M275 0C267.17 0 259.05 1.9 252.38 5.42857L36.62 122.143C22.7 129.743 14 143.857 14 159.057V391.943C14 407.143 22.7 421.257 36.62 428.857L93.17 459.257C120.72 471.743 130 472.014 142.76 472.014C183.36 472.014 206.85 448.943 206.85 408.771V178.871C206.85 175.614 203.95 172.9 200.47 172.9H173.5C169.73 172.9 166.83 175.614 166.83 178.871V408.771C166.83 426.686 147.11 444.329 115.5 429.4L56.05 397.643C55.0736 396.997 54.2752 396.144 53.7205 395.153C53.1659 394.162 52.8709 393.062 52.86 391.943V159.057C52.86 156.614 54.02 154.443 56.05 153.357L271.81 36.9143C273.55 35.8286 276.45 35.8286 278.19 36.9143L493.95 153.357C495.98 154.443 497.14 156.614 497.14 159.057V391.943C497.14 394.114 495.98 396.286 493.95 397.643L278.19 514.086C276.45 515.171 273.55 515.171 271.52 514.086L217 483.143C214.68 482.329 212.36 482.057 210.91 482.871C195.54 491.014 192.64 492.643 178.43 496.714C174.95 497.8 169.44 499.7 180.46 505.4L252.38 545.3C259.34 549.1 266.88 551 275 551C283.12 551 290.66 549.1 297.62 545.3L513.38 428.857C527.3 421.257 536 407.143 536 391.943V159.057C536 143.857 527.3 129.743 513.38 122.143L297.62 5.42857C290.95 1.9 283.12 0 275 0ZM333 166.929C271.52 166.929 234.69 191.086 234.69 231.8C234.69 275.5 271.23 288.257 330.39 293.686C400.86 300.2 406.37 309.971 406.37 323C406.37 345.529 386.94 355.029 341.7 355.029C284.28 355.029 272.1 341.729 267.75 315.129C267.445 313.754 266.645 312.519 265.483 311.629C264.322 310.74 262.87 310.251 261.37 310.243H233.53C230.05 310.243 227.44 312.686 227.44 316.214C227.44 349.871 247.16 390.586 341.7 390.586C409.85 390.586 449 365.343 449 321.371C449 277.671 417.68 266.271 351.27 257.857C284.28 249.714 277.61 245.371 277.61 230.714C277.61 218.5 283.41 202.214 333 202.214C376.5 202.214 393.61 211.171 400.28 239.129C400.86 241.843 403.47 243.743 406.37 243.743H434.5C435.95 243.743 437.69 243.2 438.85 241.843C440.01 240.757 440.88 239.129 440.3 237.5C436.24 189.186 402.02 166.929 333 166.929Z" fill="#75BB58"/>
</g>
<defs>
<clipPath id="clip0">
<rect width="550" height="550" fill="white"/>
</clipPath>
</defs>
</svg>
