<svg width="522" height="550" viewBox="0 0 522 550" fill="none" xmlns="http://www.w3.org/2000/svg">
<path d="M34.7305 336.264C24.4107 304.041 21.4338 270.028 27.3875 235.021C29.9675 220.501 33.9367 206.578 38.3028 192.455C38.3028 192.455 65.6902 102.351 158.371 61.1781C158.371 61.1781 190.323 44.2712 238.35 43.0778C238.35 43.0778 231.801 36.7128 227.633 33.9281C205.009 18.8114 171.271 13.8387 150.829 35.1216C144.677 41.4865 139.517 48.4482 133.762 54.8132C127.213 61.9737 119.274 67.9409 110.145 71.3223C102.207 74.3058 94.2684 73.7091 86.1316 75.1015C77.7963 76.4938 69.2625 79.4774 62.5149 84.8478C55.1719 90.815 52.195 98.7711 51.4011 107.921C50.6073 115.081 50.8058 122.441 50.4088 129.601C49.4165 150.685 42.6689 156.652 27.586 168.388C21.2353 173.162 15.8769 179.527 11.9077 186.289C0.000134468 207.373 19.0522 229.253 20.0445 250.536C20.243 254.912 19.8461 259.287 18.2584 263.464C16.6707 268.039 13.4954 271.023 10.9154 274.802C7.34314 279.775 4.96162 285.742 5.95392 291.908C6.94622 298.074 10.1216 303.842 13.0985 309.213C18.8538 318.76 25.9983 327.313 33.5398 335.468C33.9367 335.468 34.3336 335.866 34.7305 336.264Z" fill="#E32286"/>
<path d="M413.39 412.64C459.036 392.75 478.485 358.34 478.485 358.34C521.154 300.061 506.666 238.6 506.666 238.6C479.477 297.873 454.67 314.183 454.67 314.183C521.551 212.145 455.067 150.485 455.067 150.485C482.256 208.565 446.136 279.375 446.136 279.375C415.772 343.422 372.706 366.296 372.706 366.296C420.733 375.246 456.059 342.825 456.059 342.825C387.194 417.414 312.573 413.834 312.573 413.834C343.93 449.04 390.964 446.056 390.964 446.056C329.442 460.576 271.69 440.089 224.258 400.507C215.328 393.148 206.794 385.192 198.856 376.639C198.856 376.639 191.711 369.08 190.322 367.091L190.123 366.893C189.131 403.69 227.434 437.901 227.434 437.901C179.407 418.011 157.378 374.849 157.378 374.849C157.378 374.849 125.029 319.553 148.447 256.501C171.865 193.448 242.715 179.923 242.715 179.923C301.261 208.366 350.876 217.317 350.876 217.317C455.464 234.82 449.51 183.503 449.51 183.503C450.502 139.347 384.018 92.4053 384.018 92.4053C265.538 4.29089 158.37 61.1774 158.37 61.1774C65.6893 102.35 38.3018 192.454 38.3018 192.454C33.9357 206.576 29.9665 220.499 27.3866 235.019C17.2651 294.094 32.5465 349.986 65.6893 399.712C117.289 476.886 201.039 503.539 201.039 503.539C325.076 545.707 409.818 483.649 409.818 483.649C487.813 429.945 503.491 367.887 503.491 367.887C440.579 417.215 413.39 412.64 413.39 412.64ZM316.542 122.44C322.496 122.44 327.259 127.213 327.259 133.181C327.259 139.148 322.496 143.921 316.542 143.921C310.588 143.921 305.825 139.148 305.825 133.181C305.825 127.213 310.588 122.44 316.542 122.44Z" fill="url(#paint0_linear)"/>
<path d="M449.311 183.306C450.304 139.149 383.82 92.2075 383.82 92.2075C265.339 4.29174 158.171 61.1784 158.171 61.1784C65.4907 102.352 38.1033 192.455 38.1033 192.455C32.7449 207.771 27.9819 231.242 27.9819 231.242C22.2266 260.68 24.8065 287.93 24.8065 287.93C27.188 313.986 32.9434 331.49 32.9434 331.49C38.8972 350.187 41.6756 355.955 41.6756 355.955C41.4771 355.358 40.4848 350.982 40.4848 350.982C40.4848 350.982 32.1495 310.804 39.8895 272.216C39.8895 272.216 46.6371 232.037 74.0245 201.008C74.0245 201.008 118.479 137.558 201.237 162.421C201.237 162.421 219.098 168.786 225.251 171.968C231.403 174.952 242.12 179.527 242.12 179.527C300.665 207.97 350.28 216.921 350.28 216.921C455.265 234.623 449.311 183.306 449.311 183.306ZM316.542 144.122C310.588 144.122 305.825 139.348 305.825 133.381C305.825 127.414 310.588 122.64 316.542 122.64C322.496 122.64 327.259 127.414 327.259 133.381C327.259 139.348 322.496 144.122 316.542 144.122Z" fill="url(#paint1_radial)"/>
<path d="M248.67 103.346L180.996 82.2621C180.599 82.2621 178.614 81.2676 175.042 82.2621C175.042 82.2621 135.151 92.4063 142.097 114.286C142.097 114.286 146.265 128.011 157.577 141.337L232 137.757L248.67 103.346Z" fill="url(#paint2_linear)"/>
<defs>
<linearGradient id="paint0_linear" x1="82.1535" y1="480.27" x2="329.695" y2="217.517" gradientUnits="userSpaceOnUse">
<stop stop-color="#E01D84"/>
<stop offset="0.401" stop-color="#DF1D85"/>
<stop offset="0.77" stop-color="#932C87"/>
<stop offset="1" stop-color="#5D2F88"/>
</linearGradient>
<radialGradient id="paint1_radial" cx="0" cy="0" r="1" gradientUnits="userSpaceOnUse" gradientTransform="translate(353.963 147.112) rotate(0.137244) scale(241.292 202.221)">
<stop stop-color="#E01D84"/>
<stop offset="0.139" stop-color="#DE1E85"/>
<stop offset="0.285" stop-color="#D62085"/>
<stop offset="0.434" stop-color="#C92386"/>
<stop offset="0.586" stop-color="#B72786"/>
<stop offset="0.739" stop-color="#9D2B87"/>
<stop offset="0.891" stop-color="#7C2E88"/>
<stop offset="1" stop-color="#5D2F88"/>
</radialGradient>
<linearGradient id="paint2_linear" x1="141.129" y1="111.573" x2="248.613" y2="111.573" gradientUnits="userSpaceOnUse">
<stop stop-color="#E01D84"/>
<stop offset="0.238" stop-color="#DA1E85"/>
<stop offset="0.658" stop-color="#C72085"/>
<stop offset="0.999" stop-color="#B52284"/>
</linearGradient>
</defs>
</svg>
