<svg width="50" height="50" viewBox="0 0 50 50" fill="none" xmlns="http://www.w3.org/2000/svg">
<path d="M25 50C21.717 50 18.4661 49.3534 15.4329 48.097C12.3998 46.8406 9.6438 44.9991 7.32233 42.6777C2.63392 37.9893 0 31.6304 0 25C0 18.3696 2.63392 12.0107 7.32233 7.32233C12.0107 2.63392 18.3696 0 25 0C38.75 0 50 10 50 22.5C50 26.4782 48.4196 30.2936 45.6066 33.1066C42.7936 35.9196 38.9782 37.5 35 37.5H30.5C29.75 37.5 29.25 38 29.25 38.75C29.25 39 29.5 39.25 29.5 39.5C30.5 40.75 31 42.25 31 43.75C31.25 47.25 28.5 50 25 50V50ZM25 5C19.6957 5 14.6086 7.10714 10.8579 10.8579C7.10714 14.6086 5 19.6957 5 25C5 30.3043 7.10714 35.3914 10.8579 39.1421C14.6086 42.8929 19.6957 45 25 45C25.75 45 26.25 44.5 26.25 43.75C26.25 43.25 26 43 26 42.75C25 41.5 24.5 40.25 24.5 38.75C24.5 35.25 27.25 32.5 30.75 32.5H35C37.6522 32.5 40.1957 31.4464 42.0711 29.5711C43.9464 27.6957 45 25.1522 45 22.5C45 12.75 36 5 25 5V5ZM11.25 20C13.25 20 15 21.75 15 23.75C15 25.75 13.25 27.5 11.25 27.5C9.25 27.5 7.5 25.75 7.5 23.75C7.5 21.75 9.25 20 11.25 20ZM18.75 10C20.75 10 22.5 11.75 22.5 13.75C22.5 15.75 20.75 17.5 18.75 17.5C16.75 17.5 15 15.75 15 13.75C15 11.75 16.75 10 18.75 10ZM31.25 10C33.25 10 35 11.75 35 13.75C35 15.75 33.25 17.5 31.25 17.5C29.25 17.5 27.5 15.75 27.5 13.75C27.5 11.75 29.25 10 31.25 10ZM38.75 20C40.75 20 42.5 21.75 42.5 23.75C42.5 25.75 40.75 27.5 38.75 27.5C36.75 27.5 35 25.75 35 23.75C35 21.75 36.75 20 38.75 20Z" fill="#0D2772"/>
</svg>
