<svg width="550" height="550" viewBox="0 0 550 550" fill="none" xmlns="http://www.w3.org/2000/svg">
<path d="M79.0189 416.157L59.252 404.745L279.458 23.3474L299.225 34.7599L79.0189 416.157Z" fill="#E10098"/>
<path d="M54.7244 374.273H495.137V397.098H54.7244V374.273Z" fill="#E10098"/>
<path d="M283.728 514.284L63.4397 387.096L74.8522 367.329L295.141 494.517L283.728 514.284ZM475.093 182.8L254.804 55.6127L266.216 35.8457L486.505 163.033L475.093 182.8Z" fill="#E10098"/>
<path d="M74.913 182.713L63.5005 162.947L283.789 35.7598L295.202 55.5268L74.913 182.713Z" fill="#E10098"/>
<path d="M471.032 416.162L250.826 34.7641L270.593 23.3516L490.799 404.749L471.032 416.162ZM72.1887 147.812H95.0137V402.187H72.1887V147.812ZM454.989 147.812H477.814V402.187H454.989V147.812Z" fill="#E10098"/>
<path d="M279.843 504.624L269.874 487.357L461.467 376.738L471.435 394.004L279.843 504.624Z" fill="#E10098"/>
<path d="M508.063 409.611C494.863 432.574 465.438 440.411 442.475 427.211C419.513 414.011 411.675 384.586 424.875 361.624C438.075 338.661 467.5 330.824 490.463 344.024C513.563 357.361 521.4 386.649 508.063 409.611ZM124.988 188.374C111.788 211.336 82.3627 219.174 59.4002 205.974C36.4377 192.774 28.6002 163.349 41.8002 140.386C55.0002 117.424 84.4252 109.586 107.388 122.786C130.35 136.124 138.188 165.411 124.988 188.374ZM41.9377 409.611C28.7377 386.649 36.5752 357.361 59.5377 344.024C82.5002 330.824 111.788 338.661 125.125 361.624C138.325 384.586 130.488 413.874 107.525 427.211C84.4252 440.411 55.1377 432.574 41.9377 409.611ZM425.013 188.374C411.813 165.411 419.65 136.124 442.613 122.786C465.575 109.586 494.863 117.424 508.2 140.386C521.4 163.349 513.563 192.636 490.6 205.974C467.638 219.174 438.213 211.336 425.013 188.374ZM275 544.224C248.463 544.224 227.013 522.774 227.013 496.236C227.013 469.699 248.463 448.249 275 448.249C301.538 448.249 322.988 469.699 322.988 496.236C322.988 522.636 301.538 544.224 275 544.224ZM275 101.749C248.463 101.749 227.013 80.2989 227.013 53.7614C227.013 27.2239 248.463 5.77393 275 5.77393C301.538 5.77393 322.988 27.2239 322.988 53.7614C322.988 80.2989 301.538 101.749 275 101.749Z" fill="#E10098"/>
</svg>
