<svg width="31" height="36" viewBox="0 0 31 36" fill="none" xmlns="http://www.w3.org/2000/svg">
<path d="M5.36143 2.57143C5.62742 1.81909 6.12021 1.16776 6.77188 0.707215C7.42355 0.246671 8.20202 -0.000417806 9 5.30323e-07H16.7143C17.5123 -0.000417806 18.2907 0.246671 18.9424 0.707215C19.5941 1.16776 20.0869 1.81909 20.3529 2.57143H21.8571C22.8801 2.57143 23.8612 2.97781 24.5846 3.70116C25.3079 4.42451 25.7143 5.40559 25.7143 6.42857V16.704C25.2823 16.704 24.8503 16.7734 24.4363 16.92C24.4668 16.3403 24.3664 15.7613 24.1425 15.2257C23.9186 14.6902 23.5769 14.212 23.1429 13.8266V6.42857C23.1429 6.08758 23.0074 5.76055 22.7663 5.51943C22.5252 5.27832 22.1981 5.14286 21.8571 5.14286H20.3529C20.0869 5.8952 19.5941 6.54653 18.9424 7.00707C18.2907 7.46762 17.5123 7.7147 16.7143 7.71429H9C8.20202 7.7147 7.42355 7.46762 6.77188 7.00707C6.12021 6.54653 5.62742 5.8952 5.36143 5.14286H3.85714C3.51615 5.14286 3.18912 5.27832 2.94801 5.51943C2.70689 5.76055 2.57143 6.08758 2.57143 6.42857V32.1429C2.57143 32.4838 2.70689 32.8109 2.94801 33.052C3.18912 33.2931 3.51615 33.4286 3.85714 33.4286H11.7977L11.7309 33.6549C11.502 34.4571 11.5457 35.2697 11.8029 36H3.85714C2.83416 36 1.85309 35.5936 1.12973 34.8703C0.406377 34.1469 0 33.1658 0 32.1429V6.42857C0 5.40559 0.406377 4.42451 1.12973 3.70116C1.85309 2.97781 2.83416 2.57143 3.85714 2.57143H5.36143ZM9 2.57143C8.65901 2.57143 8.33198 2.70689 8.09086 2.94801C7.84974 3.18912 7.71429 3.51615 7.71429 3.85714C7.71429 4.19814 7.84974 4.52516 8.09086 4.76628C8.33198 5.0074 8.65901 5.14286 9 5.14286H16.7143C17.0553 5.14286 17.3823 5.0074 17.6234 4.76628C17.8645 4.52516 18 4.19814 18 3.85714C18 3.51615 17.8645 3.18912 17.6234 2.94801C17.3823 2.70689 17.0553 2.57143 16.7143 2.57143H9Z" fill="white"/>
<path d="M16.3802 35.5942C16.235 35.7471 16.0545 35.862 15.8545 35.929C15.6546 35.996 15.4413 36.013 15.2332 35.9785C15.0252 35.944 14.8288 35.8591 14.6611 35.7311C14.4935 35.6031 14.3598 35.4361 14.2717 35.2445C14.1453 34.9677 14.1216 34.6551 14.2048 34.3625L19.3477 16.3625C19.3939 16.2 19.4717 16.0483 19.5766 15.916C19.6815 15.7836 19.8115 15.6732 19.959 15.5911C20.1066 15.5089 20.2689 15.4567 20.4367 15.4372C20.6044 15.4178 20.7744 15.4316 20.9368 15.4779C21.0992 15.5242 21.251 15.602 21.3833 15.7069C21.5157 15.8118 21.6261 15.9417 21.7082 16.0893C21.7904 16.2368 21.8426 16.3991 21.862 16.5669C21.8815 16.7347 21.8676 16.9046 21.8214 17.067L16.6785 35.067C16.6227 35.2641 16.5204 35.4449 16.3802 35.5942V35.5942Z" fill="white"/>
<path d="M11.2629 21.3974C11.3727 21.2691 11.4561 21.1204 11.5083 20.9598C11.5606 20.7993 11.5808 20.63 11.5676 20.4617C11.5545 20.2933 11.5084 20.1292 11.4318 19.9787C11.3552 19.8282 11.2498 19.6943 11.1215 19.5845C10.9932 19.4748 10.8445 19.3914 10.6839 19.3391C10.5234 19.2868 10.3541 19.2666 10.1858 19.2798C10.0174 19.2929 9.85331 19.3391 9.70282 19.4156C9.55232 19.4922 9.41837 19.5976 9.30862 19.7259L5.45148 24.2259C5.25228 24.4588 5.14282 24.7552 5.14282 25.0617C5.14282 25.3681 5.25228 25.6645 5.45148 25.8974L9.30862 30.3974C9.41837 30.5257 9.55232 30.6311 9.70282 30.7077C9.85331 30.7842 10.0174 30.8304 10.1858 30.8435C10.3541 30.8567 10.5234 30.8365 10.6839 30.7842C10.8445 30.7319 10.9932 30.6485 11.1215 30.5388C11.2498 30.4291 11.3552 30.2951 11.4318 30.1446C11.5084 29.9941 11.5545 29.83 11.5676 29.6617C11.5808 29.4933 11.5606 29.324 11.5083 29.1635C11.4561 29.0029 11.3727 28.8543 11.2629 28.7259L8.12319 25.0617L11.2603 21.3974H11.2629Z" fill="white"/>
<path d="M24.8786 30.5359C24.7502 30.4261 24.6448 30.2922 24.5682 30.1417C24.4917 29.9912 24.4455 29.8271 24.4324 29.6587C24.4192 29.4904 24.4394 29.3211 24.4917 29.1606C24.544 29 24.6274 28.8513 24.7371 28.723L27.8794 25.0613L24.7371 21.3944C24.5155 21.1353 24.4059 20.7987 24.4324 20.4587C24.4589 20.1187 24.6194 19.8032 24.8786 19.5816C25.1377 19.3599 25.4743 19.2503 25.8143 19.2768C26.1543 19.3034 26.4698 19.4639 26.6914 19.723L30.5486 24.223C30.7478 24.4559 30.8572 24.7523 30.8572 25.0587C30.8572 25.3652 30.7478 25.6616 30.5486 25.8944L26.6914 30.3944C26.4694 30.6532 26.1537 30.8133 25.8137 30.8393C25.4738 30.8653 25.1374 30.7553 24.8786 30.5333V30.5359Z" fill="white"/>
</svg>
