<svg width="550" height="400" viewBox="0 0 550 400" fill="none" xmlns="http://www.w3.org/2000/svg">
<path d="M313.395 110.172L294.573 141.989L230.203 33.1485L32.5966 367.228H166.389C166.389 384.8 180.981 399.045 198.982 399.045H32.5966C20.9535 399.045 10.1959 392.977 4.37527 383.133C-1.44531 373.29 -1.44472 361.162 4.37684 351.319L201.983 17.24C207.805 7.39525 218.565 1.33057 230.21 1.33057C241.854 1.33057 252.614 7.39525 258.436 17.24L313.395 110.172Z" fill="#00C58E"/>
<path d="M456.05 351.32L332.225 141.99L313.403 110.173L294.581 141.99L170.77 351.32C164.948 361.163 164.948 373.291 170.768 383.135C176.589 392.978 187.346 399.046 198.989 399.046H427.79C439.435 399.046 450.197 392.985 456.021 383.14C461.845 373.296 461.846 361.166 456.023 351.32H456.05ZM198.989 367.229L313.403 173.807L427.79 367.229H198.989L198.989 367.229Z" fill="#2F495E"/>
<path d="M544.566 383.136C538.745 392.978 527.989 399.045 516.347 399.045H427.776C445.777 399.045 460.369 384.8 460.369 367.228H516.279L357.634 98.997L332.212 141.99L313.39 110.173L329.415 83.0885C335.237 73.2438 345.997 67.1791 357.641 67.1791C369.286 67.1791 380.046 73.2438 385.868 83.0885L544.566 351.319C550.388 361.163 550.388 373.292 544.566 383.136Z" fill="#108775"/>
</svg>
