<svg width="54" height="40" viewBox="0 0 54 40" fill="none" xmlns="http://www.w3.org/2000/svg">
<path d="M53.6424 18.4172C47.7714 6.16565 38.8968 0 27 0C15.097 0 6.2286 6.16564 0.357618 18.4233C0.12213 18.9173 0 19.4568 0 20.0031C0 20.5493 0.12213 21.0889 0.357618 21.5828C6.2286 33.8344 15.1032 40 27 40C38.903 40 47.7714 33.8344 53.6424 21.5767C54.1192 20.5828 54.1192 19.4294 53.6424 18.4172V18.4172ZM27 35.5828C17.0106 35.5828 9.69669 30.5644 4.53791 20C9.69669 9.43558 17.0106 4.41718 27 4.41718C36.9893 4.41718 44.3033 9.43558 49.4621 20C44.3095 30.5644 36.9955 35.5828 27 35.5828ZM26.7523 9.20245C20.7326 9.20245 15.8526 14.0368 15.8526 20C15.8526 25.9632 20.7326 30.7975 26.7523 30.7975C32.7719 30.7975 37.652 25.9632 37.652 20C37.652 14.0368 32.7719 9.20245 26.7523 9.20245ZM26.7523 26.8712C22.9188 26.8712 19.8161 23.7975 19.8161 20C19.8161 16.2025 22.9188 13.1288 26.7523 13.1288C30.5857 13.1288 33.6884 16.2025 33.6884 20C33.6884 23.7975 30.5857 26.8712 26.7523 26.8712Z" fill="white"/>
</svg>
