<svg width="35" height="27" viewBox="0 0 35 27" fill="none" xmlns="http://www.w3.org/2000/svg">
<path d="M0.695651 4.15328L0.785281 5.95996C0.194091 6.75645 -0.077083 7.71981 0.0189393 8.68244L1.44631 23.2189C1.54749 24.2508 2.06123 25.2104 2.88666 25.9093C3.7121 26.6082 4.78961 26.9959 5.90767 26.9963H19.7422V24.9197H5.90767C5.34866 24.9192 4.81003 24.7251 4.39752 24.3755C3.98502 24.0258 3.72842 23.5459 3.67811 23.03L2.25074 8.49346C2.22273 8.20616 2.25961 7.9166 2.35904 7.64323C2.45847 7.36987 2.61826 7.11871 2.82823 6.90575C3.03821 6.69279 3.29375 6.52271 3.57858 6.40635C3.86341 6.28999 4.17127 6.22991 4.48254 6.22992H30.5202C30.8315 6.22991 31.1394 6.28999 31.4242 6.40635C31.709 6.52271 31.9646 6.69279 32.1746 6.90575C32.3845 7.11871 32.5443 7.36987 32.6438 7.64323C32.7432 7.9166 32.7801 8.20616 32.752 8.49346L32.156 14.5365H34.408L34.9816 8.68244C35.0379 8.10784 34.9645 7.52866 34.7659 6.98183C34.5673 6.435 34.248 5.93252 33.8283 5.5064C33.4085 5.08029 32.8976 4.73989 32.3281 4.50692C31.7585 4.27395 31.1428 4.15351 30.5202 4.15328H21.5975C20.409 4.15305 19.2693 3.71532 18.4291 2.93637L16.5737 1.21691C15.7335 0.437966 14.5938 0.000235231 13.4053 0H5.17718C3.98861 0 2.84871 0.437577 2.00826 1.21647C1.16781 1.99536 0.695651 3.05176 0.695651 4.15328ZM13.4053 2.07664C13.9995 2.07676 14.5694 2.29562 14.9895 2.6851L16.5737 4.15328H4.48254C3.94476 4.15328 3.42938 4.2405 2.9521 4.40248L2.93642 4.11175C2.94815 3.56822 3.1894 3.05063 3.60836 2.67012C4.02732 2.28961 4.59058 2.07653 5.17718 2.07664H13.4053Z" fill="white"/>
<path d="M32.3745 25.3601L28.7871 22.0021M30.121 18.9891C30.121 20.12 29.6405 21.2046 28.7852 22.0043C27.9299 22.8039 26.7698 23.2532 25.5602 23.2532C24.3507 23.2532 23.1906 22.8039 22.3353 22.0043C21.48 21.2046 20.9995 20.12 20.9995 18.9891C20.9995 17.8582 21.48 16.7737 22.3353 15.974C23.1906 15.1743 24.3507 14.7251 25.5602 14.7251C26.7698 14.7251 27.9299 15.1743 28.7852 15.974C29.6405 16.7737 30.121 17.8582 30.121 18.9891Z" stroke="white" stroke-width="2" stroke-linecap="round" stroke-linejoin="round"/>
</svg>
