<svg width="22" height="19" viewBox="0 0 22 19" fill="none" xmlns="http://www.w3.org/2000/svg">
<path d="M13.3765 17.0354C13.1755 17.2109 12.9369 17.3502 12.6743 17.4452C12.4117 17.5402 12.1303 17.5891 11.846 17.5891C11.5617 17.5891 11.2803 17.5402 11.0177 17.4452C10.7551 17.3502 10.5165 17.2109 10.3155 17.0354L1.76651 9.57125C1.36066 9.21699 1.1326 8.73647 1.13251 8.2354V2.88852C1.13251 1.84691 2.10251 1 3.29651 1H9.4195C9.9925 1 10.5435 1.19907 10.9495 1.55355L19.4985 9.0177C19.6995 9.19316 19.859 9.40148 19.9678 9.63077C20.0766 9.86005 20.1326 10.1058 20.1326 10.354C20.1326 10.6022 20.0766 10.8479 19.9678 11.0772C19.859 11.3065 19.6995 11.5148 19.4985 11.6903L13.3765 17.0354Z" stroke="#3172BC" stroke-width="2" stroke-linecap="round" stroke-linejoin="round"/>
<path d="M4.63251 4.05591L5.13251 4.49078" stroke="#3172BC" stroke-width="2" stroke-linecap="round"/>
</svg>
