<svg width="40" height="33" viewBox="0 0 40 33" fill="none" xmlns="http://www.w3.org/2000/svg">
<path d="M0.795029 5.07692L0.897464 7.28538C0.221818 8.259 -0.0880949 9.4366 0.0216449 10.6133L1.65292 28.3825C1.76856 29.6439 2.35569 30.8169 3.29905 31.6713C4.2424 32.5256 5.47385 32.9995 6.75163 33H22.5625V30.4615H6.75163C6.11275 30.4609 5.49718 30.2237 5.02574 29.7963C4.5543 29.3689 4.26105 28.7822 4.20355 28.1515L2.57228 10.3823C2.54026 10.0311 2.58241 9.67715 2.69604 9.343C2.80968 9.00884 2.9923 8.70182 3.23227 8.44151C3.47223 8.18119 3.76429 7.97328 4.0898 7.83105C4.41532 7.68881 4.76717 7.61536 5.12291 7.61538H34.8803C35.236 7.61536 35.5879 7.68881 35.9134 7.83105C36.2389 7.97328 36.531 8.18119 36.7709 8.44151C37.0109 8.70182 37.1935 9.00884 37.3071 9.343C37.4208 9.67715 37.4629 10.0311 37.4309 10.3823L36.7497 17.7692H39.3234L39.979 10.6133C40.0434 9.91093 39.9594 9.20295 39.7325 8.53451C39.5055 7.86607 39.1406 7.25184 38.6609 6.73096C38.1812 6.21008 37.5973 5.79399 36.9463 5.50921C36.2954 5.22443 35.5918 5.0772 34.8803 5.07692H24.6829C23.3246 5.07664 22.0221 4.54156 21.0618 3.58938L18.9414 1.48754C17.9811 0.535365 16.6786 0.000287544 15.3203 0H5.91678C4.55841 0 3.25567 0.534889 2.29516 1.487C1.33464 2.4391 0.795029 3.73044 0.795029 5.07692V5.07692ZM15.3203 2.53846C15.9994 2.53861 16.6507 2.80614 17.1309 3.28223L18.9414 5.07692H5.12291C4.5083 5.07692 3.9193 5.18354 3.37383 5.38154L3.3559 5.02615C3.36931 4.36175 3.64503 3.72905 4.12384 3.26392C4.60265 2.79879 5.24638 2.53833 5.91678 2.53846H15.3203V2.53846Z" fill="white"/>
<path d="M37 31L32.9001 26.8952M34.4245 23.2123C34.4245 24.5946 33.8754 25.9204 32.8979 26.8979C31.9204 27.8754 30.5946 28.4245 29.2123 28.4245C27.8299 28.4245 26.5041 27.8754 25.5266 26.8979C24.5491 25.9204 24 24.5946 24 23.2123C24 21.8299 24.5491 20.5041 25.5266 19.5266C26.5041 18.5491 27.8299 18 29.2123 18C30.5946 18 31.9204 18.5491 32.8979 19.5266C33.8754 20.5041 34.4245 21.8299 34.4245 23.2123Z" stroke="white" stroke-width="2" stroke-linecap="round" stroke-linejoin="round"/>
</svg>
