<svg width="43" height="43" viewBox="0 0 43 43" fill="none" xmlns="http://www.w3.org/2000/svg">
<path d="M25.1284 41.4371C24.0001 42.7928 21.7123 42.05 21.6851 40.319L21.2876 15.0017H39.1306C42.3626 15.0017 44.1651 18.563 42.1555 20.9779L25.1284 41.4371Z" fill="url(#paint0_linear)"/>
<path d="M25.1284 41.4371C24.0001 42.7928 21.7123 42.05 21.6851 40.319L21.2876 15.0017H39.1306C42.3626 15.0017 44.1651 18.563 42.1555 20.9779L25.1284 41.4371Z" fill="url(#paint1_linear)" fill-opacity="0.2"/>
<path d="M17.8716 0.700137C18.9999 -0.655616 21.2877 0.0872564 21.3149 1.81823L21.4891 27.1357H3.86948C0.637533 27.1357 -1.16496 23.5744 0.844729 21.1595L17.8716 0.700137Z" fill="#3ECF8E"/>
<defs>
<linearGradient id="paint0_linear" x1="21.2876" y1="20.6152" x2="36.9153" y2="27.485" gradientUnits="userSpaceOnUse">
<stop stop-color="#249361"/>
<stop offset="1" stop-color="#3ECF8E"/>
</linearGradient>
<linearGradient id="paint1_linear" x1="14.2569" y1="11.4311" x2="20.9726" y2="24.6817" gradientUnits="userSpaceOnUse">
<stop/>
<stop offset="1" stop-opacity="0"/>
</linearGradient>
</defs>
</svg>
