<svg width="25" height="29" viewBox="0 0 25 29" fill="none" xmlns="http://www.w3.org/2000/svg">
<path d="M5.59598 25.0757H0.412946V8.33392H5.59598V25.0757ZM3.00167 6.0502C1.34431 6.0502 0 4.67324 0 3.01083C1.18627e-08 2.2123 0.316247 1.44649 0.87917 0.88185C1.44209 0.317211 2.20558 0 3.00167 0C3.79777 0 4.56125 0.317211 5.12418 0.88185C5.6871 1.44649 6.00335 2.2123 6.00335 3.01083C6.00335 4.67324 4.65848 6.0502 3.00167 6.0502ZM24.9944 25.0757H19.8225V16.9259C19.8225 14.9836 19.7835 12.4928 17.1278 12.4928C14.433 12.4928 14.0201 14.603 14.0201 16.786V25.0757H8.84263V8.33392H13.8136V10.6177H13.8862C14.5781 9.30227 16.2684 7.91412 18.7902 7.91412C24.0357 7.91412 25 11.3789 25 15.8792V25.0757H24.9944Z" fill="#0C478C"/>
</svg>
