<svg width="555" height="574" viewBox="0 0 555 574" fill="none" xmlns="http://www.w3.org/2000/svg">
<path d="M420.732 423.271C424.536 391.567 423.396 386.918 447.002 392.054L452.995 392.58C471.146 393.406 494.89 389.66 508.84 383.177C538.868 369.238 556.675 345.967 527.065 352.081C459.524 366.02 454.88 343.141 454.88 343.141C526.2 237.283 556.014 102.906 530.28 70.0128C460.089 -19.7069 338.592 22.7195 336.559 23.821L335.911 23.9406C322.566 21.1706 307.631 19.5157 290.854 19.2443C260.289 18.7419 237.097 27.26 219.504 40.6086C219.504 40.6086 2.75879 -48.7202 12.8422 152.949C14.9867 195.849 74.3135 477.571 145.072 392.478C170.934 361.362 195.927 335.053 195.927 335.053C208.337 343.301 223.196 347.509 238.779 345.997L239.984 344.97C239.607 348.833 239.773 352.612 240.466 357.085C222.241 377.46 227.596 381.037 191.153 388.541C154.282 396.143 175.944 409.677 190.083 413.214C207.228 417.503 246.892 423.579 273.699 386.046L272.631 390.329C279.782 396.051 279.298 431.46 280.312 456.759C281.327 482.059 283.021 505.668 288.176 519.588C293.331 533.505 299.414 569.358 347.309 559.09C387.338 550.509 417.943 538.158 420.732 423.27" fill="black"/>
<path d="M420.732 423.271C424.536 391.567 423.396 386.918 447.002 392.054L452.995 392.58C471.146 393.406 494.89 389.66 508.84 383.177C538.868 369.238 556.675 345.967 527.065 352.081C459.524 366.02 454.88 343.141 454.88 343.141C526.2 237.283 556.014 102.906 530.28 70.0128C460.089 -19.7069 338.592 22.7195 336.559 23.821L335.911 23.9406C322.566 21.1706 307.631 19.5157 290.854 19.2443C260.289 18.7419 237.097 27.26 219.504 40.6086C219.504 40.6086 2.75879 -48.7202 12.8422 152.949C14.9867 195.849 74.3135 477.571 145.072 392.478C170.934 361.362 195.927 335.053 195.927 335.053C208.337 343.301 223.196 347.509 238.779 345.997L239.984 344.97C239.607 348.833 239.773 352.612 240.466 357.085C222.241 377.46 227.596 381.037 191.153 388.541C154.282 396.143 175.944 409.677 190.083 413.214C207.228 417.503 246.892 423.579 273.699 386.046L272.631 390.329C279.782 396.051 279.298 431.46 280.312 456.759C281.327 482.059 283.021 505.668 288.176 519.588C293.331 533.505 299.414 569.358 347.309 559.09C387.338 550.509 417.943 538.158 420.732 423.27" stroke="black" stroke-width="24.7922"/>
<path d="M527.078 352.081C459.53 366.019 454.887 343.141 454.887 343.141C526.206 237.276 556.02 102.895 530.291 70.0067C460.101 -19.7077 338.598 22.7214 336.57 23.823L335.918 23.9398C322.573 21.1685 307.637 19.5176 290.852 19.2436C260.287 18.7425 237.103 27.2592 219.511 40.6052C219.511 40.6052 2.7613 -48.7196 12.842 152.948C14.9865 195.851 74.3119 477.573 145.073 392.48C170.936 361.364 195.925 335.055 195.925 335.055C208.337 343.303 223.196 347.511 238.772 345.999L239.982 344.972C239.606 348.835 239.778 352.614 240.467 357.087C222.238 377.462 227.595 381.039 191.154 388.543C154.281 396.145 175.942 409.679 190.085 413.216C207.23 417.505 246.897 423.581 273.698 386.048L272.63 390.331C279.772 396.053 284.788 427.556 283.947 456.112C283.106 484.67 282.545 504.276 288.173 519.59C293.801 534.904 299.41 569.36 347.314 559.092C387.343 550.511 408.086 528.273 410.972 491.18C413.02 464.809 417.654 468.707 417.947 445.131L421.664 433.969C425.95 398.221 422.344 386.689 447.006 392.053L452.999 392.579C471.15 393.406 494.906 389.659 508.849 383.176C538.872 369.238 556.678 345.966 527.075 352.081H527.078Z" fill="#336791"/>
<path d="M276.549 372.545C274.69 439.061 277.017 506.041 283.523 522.32C290.033 538.598 303.965 570.26 351.873 559.993C391.898 551.409 406.461 534.798 412.781 498.132C417.435 471.155 426.408 396.235 427.559 380.884" stroke="#FAFAFF" stroke-width="8.26407" stroke-linecap="round" stroke-linejoin="round"/>
<path d="M219.155 39.1207C219.155 39.1207 2.25759 -49.5606 12.341 152.107C14.4855 195.01 73.815 476.742 144.575 391.644C170.432 360.525 193.818 336.118 193.818 336.118" stroke="#FAFAFF" stroke-width="8.26407" stroke-linecap="round" stroke-linejoin="round"/>
<path d="M336.313 22.9222C328.805 25.277 456.965 -23.9453 529.799 69.1556C555.526 102.046 525.713 236.426 454.394 342.294" stroke="#FAFAFF" stroke-width="8.26407" stroke-linecap="round" stroke-linejoin="round"/>
<path d="M454.39 342.315C454.39 342.315 459.037 365.2 526.586 351.252C556.183 345.138 538.371 368.412 508.355 382.357C483.72 393.794 428.49 396.726 427.588 380.921C425.266 340.144 456.657 352.533 454.391 342.315C452.343 333.113 438.305 324.082 429.02 301.561C420.913 281.904 317.838 131.161 457.605 153.549C462.725 152.489 421.152 20.5565 290.35 18.4112C159.577 16.2659 163.867 179.291 163.867 179.291" stroke="#FAFAFF" stroke-width="8.26407" stroke-linecap="round" stroke-linejoin="bevel"/>
<path d="M239.971 356.246C221.739 376.619 227.101 380.197 190.657 387.703C153.784 395.306 175.448 408.838 189.587 412.373C206.733 416.665 246.399 422.741 273.201 385.199C281.362 373.769 273.152 355.53 261.941 350.881C256.524 348.636 249.281 345.824 239.971 356.246V356.246Z" stroke="#FAFAFF" stroke-width="8.26407" stroke-linecap="round" stroke-linejoin="round"/>
<path d="M238.774 355.879C236.937 343.901 242.708 329.647 248.893 312.971C258.188 287.95 279.635 262.925 262.479 183.555C249.691 124.41 163.92 171.247 163.866 179.266C163.814 187.283 167.745 219.915 162.433 257.916C155.501 307.502 193.974 349.439 238.275 345.149" stroke="#FAFAFF" stroke-width="8.26407" stroke-linecap="round" stroke-linejoin="round"/>
<path d="M218.353 178.053C217.966 180.792 223.366 188.101 230.406 189.078C237.435 190.059 243.45 184.347 243.832 181.61C244.213 178.871 238.82 175.854 231.777 174.873C224.745 173.892 218.726 175.321 218.354 178.053H218.353Z" fill="#FAFAFF" stroke="#FAFAFF" stroke-width="2.75467"/>
<path d="M432.451 172.486C432.833 175.225 427.44 182.534 420.398 183.511C413.364 184.491 407.348 178.779 406.963 176.043C406.591 173.304 411.985 170.287 419.02 169.306C426.055 168.326 432.07 169.754 432.451 172.487V172.486Z" fill="#FAFAFF" stroke="#FAFAFF" stroke-width="1.37733"/>
<path d="M457.615 153.542C458.774 175.027 452.989 189.661 452.259 212.533C451.18 245.778 468.104 283.829 442.603 321.927" stroke="#FAFAFF" stroke-width="8.26407" stroke-linecap="round" stroke-linejoin="round"/>
</svg>
