<svg width="550" height="493" viewBox="0 0 550 493" fill="none" xmlns="http://www.w3.org/2000/svg">
<g clip-path="url(#clip0)">
<path d="M275 295.351C302.074 295.351 324.021 273.279 324.021 246.052C324.021 218.826 302.074 196.754 275 196.754C247.926 196.754 225.978 218.826 225.978 246.052C225.978 273.279 247.926 295.351 275 295.351Z" fill="#61DAFB"/>
<path d="M275 347.055C420.274 347.055 538.043 301.835 538.043 246.053C538.043 190.272 420.274 145.052 275 145.052C129.725 145.052 11.9561 190.272 11.9561 246.053C11.9561 301.835 129.725 347.055 275 347.055Z" stroke="#61DAFB" stroke-width="5.8"/>
<path d="M188.021 296.554C260.659 423.076 358.485 503.032 406.522 475.141C454.559 447.25 434.617 322.074 361.98 195.552C289.342 69.0308 191.516 -10.9253 143.479 16.9655C95.4415 44.8563 115.384 170.032 188.021 296.554Z" stroke="#61DAFB" stroke-width="5.8"/>
<path d="M188.02 195.553C115.383 322.074 95.4401 447.25 143.477 475.141C191.514 503.032 289.341 423.076 361.978 296.554C434.615 170.032 454.558 44.8565 406.521 16.9657C358.484 -10.9251 260.657 69.031 188.02 195.553Z" stroke="#61DAFB" stroke-width="5.8"/>
</g>
<defs>
<clipPath id="clip0">
<rect width="550" height="492.105" fill="white"/>
</clipPath>
</defs>
</svg>
