<svg width="550" height="328" viewBox="0 0 550 328" fill="none" xmlns="http://www.w3.org/2000/svg">
<g clip-path="url(#clip0)">
<path d="M130.04 86.2268H233.554V94.3698H139.529V155.656H227.947V163.799H139.529V231.086H234.633V239.229H130.04V86.2268ZM242.828 86.2268H253.826L302.564 153.513L352.38 86.2268L420.138 0.757324L308.818 160.585L366.182 239.229H354.752L302.564 167.656L250.16 239.229H238.946L296.741 160.585L242.828 86.2268ZM370.279 94.3698V86.2268H488.242V94.3698H433.897V239.229H424.409V94.3698H370.279Z" fill="black"/>
<path d="M0.540039 86.2261H12.401L175.957 328.459L108.367 239.228L10.4601 97.7977L10.0288 239.228H0.540039V86.2261Z" fill="black"/>
<path d="M487.288 228.63C489.25 228.63 490.68 227.143 490.68 225.222C490.68 223.301 489.25 221.814 487.288 221.814C485.349 221.814 483.895 223.301 483.895 225.222C483.895 227.143 485.349 228.63 487.288 228.63ZM496.612 219.664C496.612 225.336 500.743 229.041 506.766 229.041C513.182 229.041 517.06 225.222 517.06 218.589V195.237H511.89V218.566C511.89 222.249 510.021 224.215 506.72 224.215C503.766 224.215 501.758 222.386 501.689 219.664H496.612ZM523.822 219.367C524.191 225.268 529.153 229.041 536.538 229.041C544.431 229.041 549.37 225.085 549.37 218.772C549.37 213.809 546.555 211.064 539.723 209.486L536.054 208.594C531.715 207.588 529.961 206.238 529.961 203.883C529.961 200.909 532.684 198.965 536.769 198.965C540.646 198.965 543.323 200.863 543.808 203.905H548.839C548.539 198.348 543.6 194.437 536.838 194.437C529.568 194.437 524.722 198.348 524.722 204.226C524.722 209.074 527.468 211.956 533.492 213.351L537.785 214.381C542.193 215.41 544.131 216.919 544.131 219.435C544.131 222.363 541.085 224.49 536.931 224.49C532.476 224.49 529.384 222.5 528.945 219.367H523.822Z" fill="black"/>
</g>
<defs>
<clipPath id="clip0">
<rect width="550" height="327.66" fill="white"/>
</clipPath>
</defs>
</svg>
