<svg width="252" height="270" viewBox="0 0 252 270" fill="none" xmlns="http://www.w3.org/2000/svg">
<path d="M49 208.509L65.5 181.509C61.3436 178.742 58.9156 178.582 54.5 179.509C44.1113 186.4 38.2813 190.26 27 196.509C20.3702 193.935 16.5498 192.809 9.5 191.509C5.77958 192.891 3.89509 194.05 1 197.009C0.109567 200.518 4.86374e-05 202.508 0 206.009C7.15046 208.486 12.4559 210.025 24 213.009C27 212.508 47 205.508 49 208.509Z" fill="url(#paint0_linear)"/>
<path d="M33.4999 181.008C41.115 180.279 45.3847 180.017 52.9999 181.008L33.4999 193.508C31.5486 188.689 31.2359 185.962 33.4999 181.008Z" fill="url(#paint1_linear)"/>
<path d="M99 205L65.5 181.5L49 208.5L99 242L123.5 223L106.5 199.5L99 205Z" fill="url(#paint2_linear)"/>
<path d="M244.5 243L236 226L216.5 243L219 270L244.5 243Z" fill="url(#paint3_linear)"/>
<path d="M104 199.5L125 182.5C154.202 199.417 169.969 200.575 209 189.5L218 193L237 226L217 242.5L224 299.5C183.527 302.7 160.965 302.703 121 299L129 220L121 226L118.5 222L105 200.5L104 199.5Z" fill="url(#paint4_linear)"/>
<path d="M221 268L219 270.5L214 226L221 268Z" fill="black" fill-opacity="0.3"/>
<path d="M103.347 152.104L103.738 62.1141C103.752 58.7984 104.839 55.5536 107.001 53.0398C143.261 10.886 204.882 7.80581 236.599 54.1038C238.174 56.4036 238.933 59.1664 238.933 61.954V154.742C238.933 157.33 238.278 159.903 236.908 162.098C205.52 212.392 136.998 211.839 105.287 159.39C103.966 157.204 103.335 154.659 103.347 152.104Z" fill="url(#paint5_linear)"/>
<path d="M165.75 135.69L161.876 128.69H180.817L176.943 135.69H165.75Z" fill="url(#paint6_linear)"/>
<path d="M161.876 128.69L165.75 106.19H176.943L180.817 128.69H161.876Z" fill="#FDD29D"/>
<path d="M103.76 95L103.33 145C98.4851 141.467 94.9685 139.231 90.6141 119.999C90.2396 118.345 90.0119 116.639 90.0013 114.944C89.9072 99.9797 95.1149 97.2629 103.76 95Z" fill="url(#paint7_linear)"/>
<path d="M102.548 109V133C99.3933 131.519 97.8128 129.676 96.0912 120.5C95.4169 111.411 97.116 109.303 102.548 109Z" fill="url(#paint8_linear)"/>
<path d="M102.979 113.5V129C101.28 127.882 100.349 127.103 99.5348 119.5C99.4152 115.57 100.031 114.106 102.979 113.5Z" fill="#E5B273"/>
<path d="M238.933 95L238.933 145C243.778 141.467 247.045 139.231 251.379 120C251.752 118.345 251.978 116.639 251.996 114.944C252.155 99.9797 247.579 97.2629 238.933 95Z" fill="url(#paint9_linear)"/>
<path d="M239.444 109V133C242.599 131.519 244.179 129.676 245.901 120.5C246.575 111.411 244.876 109.303 239.444 109Z" fill="url(#paint10_linear)"/>
<path d="M239.013 113.5V129C240.712 127.882 241.643 127.103 242.457 119.5C242.576 115.57 241.961 114.106 239.013 113.5Z" fill="#E5B273"/>
<path d="M102.038 49.7119V116.759C102.038 117.397 102.627 117.872 103.251 117.736L108.18 116.663C108.62 116.567 108.942 116.188 108.966 115.737L111.915 58.9635C111.931 58.6696 112.079 58.3936 112.314 58.216C131.618 43.6053 143.573 39.1814 165.021 36.6801C165.526 36.6212 165.815 37.2396 165.443 37.5856C165.092 37.9121 165.323 38.5 165.802 38.5H193.175C193.259 38.5 193.345 38.5112 193.427 38.5324C215.274 44.1842 223.079 49.2212 232.66 59.7286C232.818 59.9022 232.912 60.1287 232.921 60.3635L235.024 114.602C235.044 115.113 235.445 115.526 235.955 115.561L241.302 115.927C241.883 115.966 242.374 115.504 242.37 114.923L241.954 49.6934C241.949 48.9148 241.714 48.1489 241.282 47.501C230.032 30.629 222.722 21.4863 204.85 10.9599C204.408 10.6996 203.836 10.8183 203.523 11.2241C202.53 12.5077 201.77 13.211 200.809 13.6439C200.268 13.8878 199.686 13.4864 199.602 12.8987C198.923 8.14338 198.419 4.97883 197.619 2.36867C197.354 1.50216 196.194 1.526 195.797 2.34079C195.046 3.88272 194.196 4.85281 192.77 5.79045C192.56 5.92802 192.301 5.97308 192.055 5.92641C178.386 3.3342 169.874 3.20589 154.62 4.42524C154.101 4.46672 153.697 4.90078 153.697 5.42139V5.64025C153.697 6.13462 153.331 6.55508 152.843 6.63182C140.835 8.51855 134.789 10.9285 127.913 17.65C127.338 18.2126 126.352 17.9268 126.167 17.1436C125.325 13.5864 124.408 11.3553 122.872 9.0281C122.375 8.27459 121.226 8.58691 121.081 9.47806C119.236 20.876 112.828 32.2527 102.712 47.4876C102.275 48.1459 102.038 48.9217 102.038 49.7119Z" fill="#673A11"/>
<path d="M161.065 68.2893C144.323 64.0499 135.243 63.764 120.475 68.2767C120.265 68.3407 120.119 68.5357 120.119 68.755V75.7317C120.119 76.0613 120.437 76.2992 120.756 76.214C136.291 72.0547 145.281 72.4092 160.819 76.2311C161.135 76.3087 161.446 76.0714 161.446 75.7463V68.7746C161.446 68.5461 161.286 68.3454 161.065 68.2893Z" fill="#673A11"/>
<path d="M223.931 68.2893C207.189 64.0499 198.109 63.764 183.342 68.2767C183.132 68.3407 182.985 68.5357 182.985 68.755V75.7317C182.985 76.0613 183.304 76.2992 183.623 76.214C199.158 72.0547 208.148 72.4092 223.686 76.2311C224.002 76.3087 224.312 76.0714 224.312 75.7463V68.7746C224.312 68.5461 224.153 68.3454 223.931 68.2893Z" fill="#673A11"/>
<path d="M157.016 119.006H123.868C114.397 101.506 123.868 81.5061 141.087 81.0061C155.724 80.5811 168.208 102.506 157.016 119.006Z" fill="#FAFAFF"/>
<ellipse cx="141.087" cy="104.006" rx="11.1927" ry="13" fill="#356849"/>
<ellipse cx="141.087" cy="104.006" rx="9.47074" ry="11" fill="black"/>
<ellipse rx="4.19878" ry="5.84337" transform="matrix(0.872331 0.488916 -0.383671 0.92347 136.661 102.455)" fill="#FAFAFF"/>
<ellipse cx="144.962" cy="111.506" rx="1.29146" ry="1.5" fill="#FAFAFF"/>
<path d="M219.311 119.012H186.164C176.693 101.512 186.164 81.5122 203.383 81.0122C218.02 80.5872 230.504 102.512 219.311 119.012Z" fill="#FAFAFF"/>
<ellipse cx="203.383" cy="104.012" rx="11.1927" ry="13" fill="#356849"/>
<ellipse cx="203.383" cy="104.012" rx="9.47074" ry="11" fill="black"/>
<ellipse rx="4.19878" ry="5.84337" transform="matrix(0.872331 0.488916 -0.383671 0.92347 198.956 102.461)" fill="#FAFAFF"/>
<ellipse cx="207.258" cy="111.512" rx="1.29146" ry="1.5" fill="#FAFAFF"/>
<path d="M216.564 144.351C181.148 141.126 161.348 141.308 126.161 144.351L126.592 154.351H216.133L216.564 144.351Z" fill="url(#paint11_radial)"/>
<path d="M142.089 181.352C135.607 175.446 132.547 169.646 126.592 154.352H216.133C211.857 167.291 208.721 173.549 200.636 181.352H142.089Z" fill="url(#paint12_radial)"/>
<path d="M200.636 181.352H142.089C154.132 189.28 160.84 192.103 172.654 191.352C188.415 189.519 192.598 186.496 200.636 181.352Z" fill="url(#paint13_radial)"/>
<path d="M173.084 169.852C158.878 163.852 151.991 170.352 145.533 181.352H198.914C193.748 167.352 181.694 164.352 173.084 169.852Z" fill="#9A353D"/>
<ellipse cx="164.905" cy="174.852" rx="0.430488" ry="0.5" fill="#C4C4C4" fill-opacity="0.15"/>
<ellipse cx="170.071" cy="174.852" rx="0.430488" ry="0.5" fill="#C4C4C4" fill-opacity="0.15"/>
<ellipse cx="167.488" cy="172.852" rx="0.430488" ry="0.5" fill="#C4C4C4" fill-opacity="0.15"/>
<ellipse cx="170.071" cy="170.852" rx="0.430488" ry="0.5" fill="#C4C4C4" fill-opacity="0.15"/>
<ellipse cx="165.766" cy="170.852" rx="0.430488" ry="0.5" fill="#C4C4C4" fill-opacity="0.15"/>
<ellipse cx="176.098" cy="174.852" rx="0.430488" ry="0.5" fill="#C4C4C4" fill-opacity="0.15"/>
<ellipse cx="181.263" cy="174.852" rx="0.430488" ry="0.5" fill="#C4C4C4" fill-opacity="0.15"/>
<ellipse cx="178.68" cy="172.852" rx="0.430488" ry="0.5" fill="#C4C4C4" fill-opacity="0.15"/>
<ellipse cx="180.403" cy="170.852" rx="0.430488" ry="0.5" fill="#C4C4C4" fill-opacity="0.15"/>
<ellipse cx="176.098" cy="170.852" rx="0.430488" ry="0.5" fill="#C4C4C4" fill-opacity="0.15"/>
<ellipse cx="170.932" cy="172.852" rx="0.5" ry="0.430488" transform="rotate(90 170.932 172.852)" fill="#C4C4C4" fill-opacity="0.15"/>
<ellipse cx="170.932" cy="178.852" rx="0.5" ry="0.430488" transform="rotate(90 170.932 178.852)" fill="#C4C4C4" fill-opacity="0.15"/>
<ellipse cx="172.654" cy="175.852" rx="0.5" ry="0.430488" transform="rotate(90 172.654 175.852)" fill="#C4C4C4" fill-opacity="0.15"/>
<ellipse cx="174.376" cy="178.852" rx="0.5" ry="0.430488" transform="rotate(90 174.376 178.852)" fill="#C4C4C4" fill-opacity="0.15"/>
<ellipse cx="174.376" cy="172.852" rx="0.5" ry="0.430488" transform="rotate(90 174.376 172.852)" fill="#C4C4C4" fill-opacity="0.15"/>
<ellipse cx="170.932" cy="172.852" rx="0.5" ry="0.430488" transform="rotate(90 170.932 172.852)" fill="#C4C4C4" fill-opacity="0.15"/>
<ellipse cx="170.932" cy="178.852" rx="0.5" ry="0.430488" transform="rotate(90 170.932 178.852)" fill="#C4C4C4" fill-opacity="0.15"/>
<ellipse cx="172.654" cy="175.852" rx="0.5" ry="0.430488" transform="rotate(90 172.654 175.852)" fill="#C4C4C4" fill-opacity="0.15"/>
<ellipse cx="174.376" cy="178.852" rx="0.5" ry="0.430488" transform="rotate(90 174.376 178.852)" fill="#C4C4C4" fill-opacity="0.15"/>
<ellipse cx="176.959" cy="178.852" rx="0.5" ry="0.430488" transform="rotate(90 176.959 178.852)" fill="#C4C4C4" fill-opacity="0.15"/>
<ellipse cx="178.681" cy="175.852" rx="0.5" ry="0.430488" transform="rotate(90 178.681 175.852)" fill="#C4C4C4" fill-opacity="0.15"/>
<ellipse cx="180.403" cy="178.852" rx="0.5" ry="0.430488" transform="rotate(90 180.403 178.852)" fill="#C4C4C4" fill-opacity="0.15"/>
<ellipse cx="164.905" cy="178.852" rx="0.5" ry="0.430488" transform="rotate(90 164.905 178.852)" fill="#C4C4C4" fill-opacity="0.15"/>
<ellipse cx="166.627" cy="175.852" rx="0.5" ry="0.430488" transform="rotate(90 166.627 175.852)" fill="#C4C4C4" fill-opacity="0.15"/>
<ellipse cx="168.349" cy="178.852" rx="0.5" ry="0.430488" transform="rotate(90 168.349 178.852)" fill="#C4C4C4" fill-opacity="0.15"/>
<ellipse cx="174.376" cy="172.852" rx="0.5" ry="0.430488" transform="rotate(90 174.376 172.852)" fill="#C4C4C4" fill-opacity="0.15"/>
<g clip-path="url(#clip0)">
<path d="M211.462 81.5312C206.484 81.7818 202.315 82.3742 192.495 84.2196C180.146 86.5322 176.581 86.9537 169.939 86.8511C164.813 86.7714 162.614 86.4866 155.244 84.9487C150.323 83.9234 149.468 83.7526 147.839 83.4792C144.82 82.9665 137.507 82.078 133.656 81.7362C131.139 81.5198 124.361 81.554 122.094 81.7932C118.198 82.2147 114.905 82.7729 107.569 84.2652C105.097 84.7778 101.976 85.393 100.632 85.6322C99.2873 85.8828 98.171 86.0993 98.1596 86.1221C98.1368 86.1448 98.0912 87.2499 98.0456 88.5941C97.9659 91.3509 98.114 92.6837 98.6266 93.7546C98.7861 94.1077 99.4127 94.9051 100.13 95.6912C102.91 98.71 103.366 99.4163 103.924 101.478C105.166 105.978 106.145 109.054 107.432 112.403C108.913 116.276 110.656 120.035 111.511 121.243C114.438 125.344 120.875 128.215 129.328 129.172C130.148 129.263 131.925 129.308 134.055 129.308C139.945 129.286 143.715 128.682 147.27 127.155C153.148 124.626 157.659 119.99 162.011 111.97C163.07 110.011 163.503 108.928 164.255 106.342C165.2 103.016 165.519 102.093 166.18 100.726C166.909 99.2226 167.387 98.6303 168.196 98.2657C168.777 98.0037 168.891 97.9923 171.227 98.0151C174.143 98.0379 174.587 98.1404 175.453 98.915C176.82 100.145 177.549 101.535 178.825 105.386C180.727 111.127 182.584 114.921 185.204 118.418C186.252 119.819 188.132 121.813 189.328 122.792C195.639 127.953 206.085 130.322 215.563 128.739C223.412 127.429 229.712 123.487 233.073 117.791C234.394 115.536 235.533 112.426 236.855 107.391C239.122 98.7783 239.987 96.9215 242.494 95.2697C243.154 94.8368 243.485 94.5406 243.587 94.29C243.735 93.9254 243.747 93.7318 243.735 90.5876C243.735 89.6421 243.735 88.5143 243.747 88.0587C243.747 87.3979 243.712 87.1815 243.519 86.9195C243.166 86.4524 242.494 86.1107 241.594 85.974C239.714 85.6664 237.743 85.2335 234.702 84.4361C230.487 83.3311 229.53 83.1488 224.62 82.4539C218.013 81.5198 215.336 81.3375 211.462 81.5312ZM138.885 84.7209C141.858 84.869 143.704 85.0854 146.187 85.5867C156.041 87.5574 161.099 90.6674 162.25 95.4519C162.5 96.5114 162.557 98.6075 162.364 99.872C161.885 102.948 160.621 106.422 158.183 111.321C156.497 114.693 155.221 116.572 153.205 118.657C148.91 123.066 143.362 125.56 136.39 126.187C131.993 126.597 125.181 125.822 121.741 124.524C117.583 122.963 114.381 120.013 112.456 115.969C110.953 112.824 109.141 106.297 108.526 101.809C108.23 99.7125 108.23 95.133 108.515 93.9141C108.868 92.4331 109.506 91.3167 110.702 90.132C112.98 87.8536 116.329 86.5777 122.151 85.7575C125.568 85.2791 129.92 84.869 133.144 84.7323C136.151 84.5956 136.345 84.5956 138.885 84.7209ZM209.412 84.7209C215.358 84.9829 221.897 85.7575 225.189 86.6005C230.282 87.9106 233.095 89.9953 234.178 93.2647C235.009 95.7823 234.759 100.886 233.551 106.274C232.913 109.122 231.569 113.428 230.658 115.49C228.755 119.865 225.269 123.088 220.792 124.649C219.494 125.105 216.543 125.731 214.31 126.016C212.362 126.278 208.478 126.369 206.564 126.198C198.59 125.492 192.301 122.257 187.916 116.618C186.423 114.693 184.395 110.979 182.766 107.163C181.935 105.215 181.001 102.355 180.682 100.783C180.34 99.0745 180.317 96.5911 180.636 95.3722C181.844 90.7699 186.412 87.8536 195.605 85.8145C198.476 85.1765 200.697 84.8804 203.739 84.7323C206.359 84.5956 206.53 84.5956 209.412 84.7209Z" fill="black"/>
</g>
<defs>
<linearGradient id="paint0_linear" x1="32.75" y1="179" x2="32.75" y2="213.009" gradientUnits="userSpaceOnUse">
<stop stop-color="#EECCA7"/>
<stop offset="1" stop-color="#E3AA67"/>
</linearGradient>
<linearGradient id="paint1_linear" x1="43.2502" y1="181.008" x2="43.2502" y2="193.508" gradientUnits="userSpaceOnUse">
<stop stop-color="#E2BF95"/>
<stop offset="1" stop-color="#DEA35F"/>
</linearGradient>
<linearGradient id="paint2_linear" x1="66" y1="181" x2="69" y2="233.5" gradientUnits="userSpaceOnUse">
<stop stop-color="#E2BF95"/>
<stop offset="1" stop-color="#E3AA67"/>
</linearGradient>
<linearGradient id="paint3_linear" x1="237" y1="228" x2="221" y2="269" gradientUnits="userSpaceOnUse">
<stop stop-color="#E2BF95"/>
<stop offset="1" stop-color="#DFA24F"/>
</linearGradient>
<linearGradient id="paint4_linear" x1="154" y1="184" x2="154" y2="301.842" gradientUnits="userSpaceOnUse">
<stop stop-color="#162E6D"/>
<stop offset="1" stop-color="#2347A7"/>
</linearGradient>
<linearGradient id="paint5_linear" x1="170.271" y1="20" x2="170.271" y2="202.002" gradientUnits="userSpaceOnUse">
<stop stop-color="#EECCA7"/>
<stop offset="1" stop-color="#E3AA67"/>
</linearGradient>
<linearGradient id="paint6_linear" x1="171.347" y1="128.69" x2="171.347" y2="135.69" gradientUnits="userSpaceOnUse">
<stop stop-color="#E2A564"/>
<stop offset="1" stop-color="#D69545"/>
</linearGradient>
<linearGradient id="paint7_linear" x1="96.0909" y1="96.5" x2="104.16" y2="143.147" gradientUnits="userSpaceOnUse">
<stop stop-color="#E2BF95"/>
<stop offset="1" stop-color="#DEA35F"/>
</linearGradient>
<linearGradient id="paint8_linear" x1="98.2436" y1="110" x2="103.401" y2="132.202" gradientUnits="userSpaceOnUse">
<stop stop-color="#DFA24F"/>
<stop offset="1" stop-color="#BB6C2A"/>
</linearGradient>
<linearGradient id="paint9_linear" x1="245.901" y1="96.5001" x2="237.832" y2="143.147" gradientUnits="userSpaceOnUse">
<stop stop-color="#E2BF95"/>
<stop offset="1" stop-color="#DEA35F"/>
</linearGradient>
<linearGradient id="paint10_linear" x1="243.749" y1="110" x2="238.591" y2="132.202" gradientUnits="userSpaceOnUse">
<stop stop-color="#DFA24F"/>
<stop offset="1" stop-color="#BB6C2A"/>
</linearGradient>
<radialGradient id="paint11_radial" cx="0" cy="0" r="1" gradientUnits="userSpaceOnUse" gradientTransform="translate(171.362 148.176) rotate(0.131492) scale(76.6271 756.593)">
<stop stop-color="white"/>
<stop offset="1" stop-color="#B3B6BD"/>
</radialGradient>
<radialGradient id="paint12_radial" cx="0" cy="0" r="1" gradientUnits="userSpaceOnUse" gradientTransform="translate(171.147 167.852) rotate(90) scale(13.5 44.986)">
<stop stop-color="#130101"/>
<stop offset="1" stop-color="#2B0102"/>
</radialGradient>
<radialGradient id="paint13_radial" cx="0" cy="0" r="1" gradientUnits="userSpaceOnUse" gradientTransform="translate(171.363 186.41) rotate(-1.21411) scale(49.9479 389.894)">
<stop stop-color="white"/>
<stop offset="1" stop-color="#C4C4C4" stop-opacity="0.15"/>
</radialGradient>
<clipPath id="clip0">
<rect width="145.815" height="72.9075" fill="white" transform="translate(98 69)"/>
</clipPath>
</defs>
</svg>
