<svg width="304" height="418" viewBox="0 0 304 418" fill="none" xmlns="http://www.w3.org/2000/svg">
<path d="M127.713 367.506C145.24 368.127 147.634 376.762 148.119 388.479C134.492 392.046 117.832 392.355 102.711 387.319C103.686 372.504 108.671 366.831 127.713 367.506Z" fill="url(#paint0_radial)"/>
<path d="M44.8743 349.968C61.8689 354.303 62.372 363.249 60.3541 374.801C46.2812 375.389 29.9358 372.148 16.2314 364.012C20.3345 349.743 26.4114 345.26 44.8743 349.968Z" fill="url(#paint1_radial)"/>
<path d="M143.528 372.492L138.299 291.185L48.8571 268.838L26.9906 349.12C45.9476 351.117 52.9619 353.599 58.8945 360.506L82.8179 298.291C93.8915 301.313 91.9133 300.574 103.055 302.788L106.203 373.391C110.7 368.445 133.038 366.061 143.528 372.492Z" fill="url(#paint2_linear)"/>
<path d="M213.172 189.972L185.459 189.972L162.309 218.875L222.616 212.847L257.667 171.14C257.884 170.882 257.75 170.486 257.421 170.412L236.107 165.627C230.963 169.421 221.282 181.83 213.172 189.972Z" fill="url(#paint3_linear)"/>
<path d="M228.549 149.347L236.017 165.784L257.694 171.024L269.627 143.64L276.492 130.361C276.783 127.678 274.741 125.648 271.913 126.699L265.378 141.105L262.764 140.183L268.579 124.076C267.528 121.248 265.389 120.112 262.906 122.558L257.544 138.261L255.357 137.572L260.121 118.637C259.118 115.362 255.988 115.023 253.959 117.065L249.627 136.186L246.944 135.895L249.644 119.312C248.243 115.542 245.463 116.145 243.385 118.107L239.64 138.928L236.993 146.63L234.374 137.748C231.015 134.23 229.303 135.117 226.915 136.076L228.549 149.347Z" fill="url(#paint4_linear)"/>
<path d="M274.758 132.796C273.131 132.475 272.278 132.098 270.887 131" stroke="#DFA24F" stroke-width="0.179882"/>
<path d="M272.059 139.092C270.432 138.771 269.58 138.394 268.189 137.296" stroke="#DFA24F" stroke-width="0.179882"/>
<path d="M264.065 135.045C262.407 135.011 261.503 134.786 259.943 133.945" stroke="#DFA24F" stroke-width="0.179882"/>
<path d="M265.864 128.749C264.206 128.715 263.302 128.49 261.742 127.649" stroke="#DFA24F" stroke-width="0.179882"/>
<path d="M256.991 125.122C255.348 125.347 254.42 125.266 252.748 124.679" stroke="#DFA24F" stroke-width="0.179882"/>
<path d="M256.092 132.318C254.449 132.542 253.52 132.462 251.848 131.874" stroke="#DFA24F" stroke-width="0.179882"/>
<path d="M247.12 125.974C245.519 126.406 244.587 126.444 242.854 126.074" stroke="#DFA24F" stroke-width="0.179882"/>
<path d="M246.856 133.22C245.255 133.652 244.324 133.69 242.591 133.32" stroke="#DFA24F" stroke-width="0.179882"/>
<path d="M234.886 147.625C234.266 149.163 232.419 152.116 231.079 153.276" stroke="#DFA24F" stroke-width="0.179882"/>
<path d="M235.369 146.29C236.74 148.248 238.879 152.781 239.257 155.284" stroke="#DFA24F" stroke-width="0.179882"/>
<path d="M231.759 143.267C230.93 143.901 229.001 144.924 227.926 145.144" stroke="#DFA24F" stroke-width="0.179882"/>
<path d="M263.819 147.904C261.803 148.755 240.927 143.415 239.854 142.696" stroke="#DFA24F" stroke-width="0.269823"/>
<path d="M248.643 162.051C253.465 159.428 249.824 149.051 243.91 143.865" stroke="#DFA24F" stroke-width="0.269824"/>
<path d="M43.113 214.931L54.2994 202.004L67.5155 221.154L59.3356 244.129L43.113 214.931Z" fill="url(#paint5_linear)"/>
<path d="M188.843 189.442L160.706 188.764C131.496 197.017 117.498 194.522 85.943 176.195L77.3214 177.245L53.4279 201.782L67.1909 220.607L48.4214 268.727C82.983 280.512 102.646 285.529 138.299 291.185L148.885 220.557L178.095 219.592L180.794 208.799L184.841 197.106L188.843 189.442Z" fill="url(#paint6_linear)"/>
<path d="M58.037 241.942L59.2244 244.565L73.4727 206.894L58.037 241.942Z" fill="black" fill-opacity="0.3"/>
<path d="M71.1996 135.808L92.5753 57.7427C93.3629 54.8664 95.0651 52.3022 97.5307 50.6245C138.877 22.4898 193.114 34.2189 209.838 81.843C210.669 84.2086 210.682 86.7856 210.031 89.2067L188.341 169.794C187.736 172.041 186.565 174.122 184.862 175.708C145.844 212.052 86.4629 195.554 71.1821 142.589C70.5452 140.382 70.5927 138.024 71.1996 135.808Z" fill="url(#paint7_linear)"/>
<path d="M129.234 136.139L127.506 129.154L143.957 133.582L138.955 138.756L129.234 136.139Z" fill="url(#paint8_linear)"/>
<path d="M127.506 129.154L136.131 110.518L145.851 113.135L143.957 133.582L127.506 129.154Z" fill="#FDD29D"/>
<path d="M84.9072 86.3095L72.8455 129.634C69.4638 125.434 66.9324 122.669 67.6461 104.948C67.7075 103.424 67.9085 101.89 68.2957 100.414C71.7119 87.3962 76.8699 86.254 84.9072 86.3095Z" fill="url(#paint9_linear)"/>
<path d="M80.5823 98.1852L74.9722 119.029C72.578 117.006 71.6361 115.036 72.2859 106.664C73.825 98.6118 75.7933 97.1786 80.5823 98.1852Z" fill="url(#paint10_linear)"/>
<path d="M79.9039 102.194L76.2807 115.656C75.0667 114.288 74.4398 113.394 75.5103 106.6C76.3252 103.159 77.202 102.031 79.9039 102.194Z" fill="#E5B273"/>
<path d="M202.305 117.907L190.618 161.332C195.651 159.397 199.011 158.218 207.271 142.529C207.981 141.179 208.576 139.75 208.988 138.282C212.625 125.323 209.285 121.893 202.305 117.907Z" fill="url(#paint11_linear)"/>
<path d="M199.476 130.186L193.866 151.03C196.952 150.481 198.756 149.25 202.396 141.683C205.106 133.946 204.123 131.719 199.476 130.186Z" fill="url(#paint12_linear)"/>
<path d="M198.05 133.993L194.427 147.455C196.163 146.882 197.155 146.423 199.639 140.01C200.661 136.624 200.469 135.209 198.05 133.993Z" fill="#E5B273"/>
<path d="M93.9981 46.5741L78.3254 104.805C78.1763 105.359 78.5771 105.909 79.1503 105.937L83.6819 106.157C84.087 106.176 84.4551 105.922 84.5807 105.537L100.414 56.918C100.496 56.6663 100.689 56.4614 100.935 56.362C121.116 48.185 132.533 47.1374 151.746 49.9788C152.198 50.0457 152.304 50.6503 151.9 50.8638C151.519 51.0652 151.582 51.6298 151.998 51.7419L175.771 58.1404C175.845 58.1601 175.917 58.19 175.983 58.2275C193.636 68.2431 199.237 74.4423 205.102 85.8075C205.199 85.9953 205.227 86.2138 205.18 86.4199L194.328 134.018C194.226 134.466 194.478 134.919 194.913 135.069L199.471 136.636C199.966 136.806 200.501 136.52 200.634 136.014L215.52 79.2646C215.698 78.5872 215.673 77.867 215.449 77.2033C209.622 59.9202 205.41 50.2708 192.349 36.9509C192.026 36.6215 191.502 36.591 191.135 36.8701C189.973 37.753 189.148 38.186 188.212 38.3375C187.685 38.4228 187.274 37.9381 187.338 37.4081C187.86 33.1192 188.162 30.253 188.078 27.7992C188.05 26.9846 187.036 26.7341 186.501 27.349C185.489 28.5127 184.524 29.1565 183.066 29.6374C182.852 29.708 182.616 29.6864 182.413 29.5883C171.148 24.1418 163.785 22.0407 150.252 19.5339C149.791 19.4487 149.339 19.7311 149.217 20.1833L149.166 20.3733C149.05 20.8027 148.635 21.0824 148.192 21.0349C137.323 19.8667 131.508 20.5464 123.966 24.7768C123.334 25.1309 122.545 24.6523 122.567 23.9288C122.667 20.6425 122.392 18.4904 121.603 16.1103C121.347 15.3396 120.276 15.3422 119.942 16.0824C115.675 25.5502 107.451 33.9331 95.1033 44.7999C94.5698 45.2694 94.1828 45.8879 93.9981 46.5741Z" fill="#673A11"/>
<path d="M140.92 76.5068C127.371 68.9114 119.552 66.5404 105.671 67.0077C105.474 67.0143 105.301 67.1494 105.25 67.3398L103.619 73.3991C103.542 73.6854 103.763 73.9666 104.06 73.967C118.524 73.986 126.249 76.3954 138.851 83.3469C139.107 83.4882 139.432 83.3547 139.508 83.0723L141.138 77.0174C141.191 76.8189 141.1 76.6073 140.92 76.5068Z" fill="#673A11"/>
<path d="M195.52 91.2024C181.971 83.6069 174.152 81.236 160.271 81.7032C160.074 81.7099 159.901 81.8449 159.85 82.0354L158.219 88.0947C158.142 88.3809 158.363 88.6621 158.66 88.6625C173.124 88.6816 180.849 91.0909 193.451 98.0425C193.707 98.1837 194.032 98.0502 194.108 97.7679L195.738 91.7129C195.791 91.5144 195.7 91.3029 195.52 91.2024Z" fill="#673A11"/>
<path d="M125.548 119.608L96.7593 111.859C92.6246 94.4465 105.525 79.2903 120.597 82.8813C133.409 85.9336 139.126 107.894 125.548 119.608Z" fill="#FAFAFF"/>
<ellipse cx="115.221" cy="102.857" rx="10.0668" ry="11.6924" transform="rotate(15.0642 115.221 102.857)" fill="#356849"/>
<ellipse cx="115.22" cy="102.857" rx="8.5181" ry="9.89353" transform="rotate(15.0642 115.22 102.857)" fill="black"/>
<ellipse rx="3.77643" ry="5.25559" transform="matrix(0.715284 0.698834 -0.610496 0.792019 111.738 100.475)" fill="#FAFAFF"/>
<ellipse cx="116.833" cy="110.276" rx="1.16156" ry="1.34912" transform="rotate(15.0642 116.833 110.276)" fill="#FAFAFF"/>
<path d="M179.651 134.175L150.862 126.427C146.727 109.014 159.628 93.8577 174.7 97.4487C187.511 100.501 193.228 122.461 179.651 134.175Z" fill="#FAFAFF"/>
<ellipse cx="169.323" cy="117.425" rx="10.0668" ry="11.6924" transform="rotate(15.0642 169.323 117.425)" fill="#356849"/>
<ellipse cx="169.323" cy="117.424" rx="8.5181" ry="9.89353" transform="rotate(15.0642 169.323 117.424)" fill="black"/>
<ellipse rx="3.77643" ry="5.25559" transform="matrix(0.715284 0.698834 -0.610496 0.792019 165.841 115.042)" fill="#FAFAFF"/>
<ellipse cx="170.935" cy="124.844" rx="1.16156" ry="1.34912" transform="rotate(15.0642 170.935 124.844)" fill="#FAFAFF"/>
<g clip-path="url(#clip0)">
<path d="M182.683 98.5896C178.32 97.5553 174.571 97.0194 165.627 96.146C154.381 95.0406 151.196 94.5087 145.486 92.7516C141.079 91.3948 139.252 90.5964 133.273 87.4165C129.281 85.2947 128.586 84.9324 127.248 84.287C124.769 83.0859 118.677 80.481 115.437 79.2185C113.317 78.399 107.455 76.7256 105.437 76.3626C101.967 75.7478 98.9834 75.4027 92.2727 74.8483C90.0091 74.6699 87.1589 74.417 85.9379 74.2858C84.7141 74.1645 83.6956 74.071 83.68 74.0878C83.6546 74.1017 83.3376 75.0446 82.9605 76.194C82.199 78.5548 81.9921 79.7431 82.1657 80.7966C82.2148 81.1417 82.5555 81.9878 82.9778 82.8469C84.6198 86.1523 84.8359 86.8768 84.7999 88.7977C84.7417 92.9957 84.815 95.8981 85.0853 99.1139C85.3911 102.831 85.9518 106.515 86.3863 107.773C87.8843 112.05 92.7216 116.146 99.781 119.096C100.466 119.381 101.99 119.867 103.829 120.402C108.921 121.862 112.329 122.288 115.782 121.863C121.494 121.156 126.555 118.285 132.328 112.452C133.735 111.026 134.381 110.201 135.68 108.156C137.332 105.521 137.84 104.804 138.754 103.79C139.761 102.674 140.323 102.283 141.113 102.171C141.681 102.091 141.782 102.11 143.793 102.716C146.306 103.469 146.664 103.669 147.217 104.555C148.088 105.961 148.369 107.345 148.503 110.991C148.704 116.427 149.354 120.169 150.738 123.848C151.291 125.321 152.414 127.515 153.201 128.662C157.354 134.704 165.781 139.375 174.364 140.389C181.471 141.229 187.902 139.408 192.235 135.334C193.943 133.718 195.708 131.318 198.115 127.302C202.236 120.434 203.45 119.048 206.03 118.251C206.709 118.043 207.069 117.87 207.22 117.679C207.44 117.402 207.498 117.237 208.278 114.519C208.516 113.703 208.799 112.729 208.924 112.338C209.09 111.767 209.114 111.572 209.013 111.297C208.825 110.805 208.331 110.341 207.588 109.997C206.042 109.259 204.449 108.39 202.022 106.937C198.66 104.924 197.879 104.526 193.814 102.692C188.342 100.225 186.076 99.3955 182.683 98.5896ZM119.203 83.1098C121.734 83.9847 123.273 84.6353 125.292 85.6921C133.306 89.8698 136.893 93.8263 136.685 98.2474C136.635 99.2253 136.158 101.05 135.673 102.093C134.487 104.629 132.522 107.312 129.186 110.93C126.882 113.418 125.308 114.721 123.043 116.015C118.227 118.743 112.809 119.504 106.63 118.293C102.73 117.543 97.0414 115.162 94.3966 113.176C91.1978 110.784 89.1746 107.432 88.528 103.455C88.0193 100.362 88.0951 94.27 88.6915 90.2393C88.9623 88.3547 90.1129 84.3998 90.6651 83.4187C91.3421 82.2285 92.1736 81.4246 93.5042 80.702C96.0443 79.3068 99.2572 79.0464 104.491 79.8006C107.562 80.246 111.423 80.9852 114.242 81.6771C116.873 82.3146 117.041 82.3633 119.203 83.1098ZM180.11 100.829C185.18 102.549 190.632 104.861 193.264 106.416C197.332 108.827 199.238 111.334 199.352 114.43C199.437 116.813 197.939 121.157 195.542 125.507C194.276 127.807 192.033 131.188 190.728 132.739C187.986 136.039 184.165 137.948 179.907 138.171C178.671 138.238 175.965 138.038 173.966 137.723C172.217 137.46 168.84 136.562 167.23 135.934C160.521 133.32 155.903 128.947 153.532 122.975C152.727 120.937 151.909 117.221 151.461 113.516C151.232 111.624 151.144 108.92 151.263 107.482C151.397 105.921 152.002 103.771 152.583 102.798C154.783 99.1268 159.46 97.756 167.912 98.3047C170.551 98.475 172.544 98.7773 175.208 99.4136C177.505 99.9538 177.653 99.9968 180.11 100.829Z" fill="black"/>
</g>
<path d="M171.341 155.54C141.336 144.46 124.098 139.99 92.8263 134.408L90.8626 143.194L168.63 164.125L171.341 155.54Z" fill="url(#paint13_radial)"/>
<path d="M98.0105 170.266C93.7609 163.622 92.4591 157.869 90.8623 143.194L168.629 164.125C161.891 174.363 157.704 179.065 148.858 183.952L98.0105 170.266Z" fill="url(#paint14_radial)"/>
<path d="M148.859 183.952L98.0107 170.266C106.616 179.967 111.783 183.987 122.219 186.096C136.335 188.188 140.675 186.541 148.859 183.952Z" fill="url(#paint15_radial)"/>
<path d="M127.618 167.524C116.683 158.992 109.181 163.027 101.002 171.071L147.363 183.549C146.149 170.183 136.382 164.759 127.618 167.524Z" fill="#9A353D"/>
<ellipse cx="119.346" cy="169.955" rx="0.387441" ry="0.450002" transform="rotate(15.0642 119.346 169.955)" fill="#C4C4C4" fill-opacity="0.15"/>
<ellipse cx="123.833" cy="171.162" rx="0.387441" ry="0.450002" transform="rotate(15.0642 123.833 171.162)" fill="#C4C4C4" fill-opacity="0.15"/>
<ellipse cx="122.057" cy="168.821" rx="0.387441" ry="0.450002" transform="rotate(15.0642 122.057 168.821)" fill="#C4C4C4" fill-opacity="0.15"/>
<ellipse cx="124.768" cy="167.688" rx="0.387441" ry="0.450002" transform="rotate(15.0642 124.768 167.688)" fill="#C4C4C4" fill-opacity="0.15"/>
<ellipse cx="121.029" cy="166.682" rx="0.387441" ry="0.450002" transform="rotate(15.0642 121.029 166.682)" fill="#C4C4C4" fill-opacity="0.15"/>
<ellipse cx="129.067" cy="172.571" rx="0.387441" ry="0.450002" transform="rotate(15.0642 129.067 172.571)" fill="#C4C4C4" fill-opacity="0.15"/>
<ellipse cx="133.554" cy="173.779" rx="0.387441" ry="0.450002" transform="rotate(15.0642 133.554 173.779)" fill="#C4C4C4" fill-opacity="0.15"/>
<ellipse cx="131.778" cy="171.438" rx="0.387441" ry="0.450002" transform="rotate(15.0642 131.778 171.438)" fill="#C4C4C4" fill-opacity="0.15"/>
<ellipse cx="133.741" cy="170.103" rx="0.387441" ry="0.450002" transform="rotate(15.0642 133.741 170.103)" fill="#C4C4C4" fill-opacity="0.15"/>
<ellipse cx="130.002" cy="169.097" rx="0.387441" ry="0.450002" transform="rotate(15.0642 130.002 169.097)" fill="#C4C4C4" fill-opacity="0.15"/>
<ellipse cx="125.047" cy="169.626" rx="0.450002" ry="0.387441" transform="rotate(105.064 125.047 169.626)" fill="#C4C4C4" fill-opacity="0.15"/>
<ellipse cx="123.645" cy="174.837" rx="0.450002" ry="0.387441" transform="rotate(105.064 123.645 174.837)" fill="#C4C4C4" fill-opacity="0.15"/>
<ellipse cx="125.841" cy="172.634" rx="0.450002" ry="0.387441" transform="rotate(105.064 125.841 172.634)" fill="#C4C4C4" fill-opacity="0.15"/>
<ellipse cx="126.636" cy="175.642" rx="0.450002" ry="0.387441" transform="rotate(105.064 126.636 175.642)" fill="#C4C4C4" fill-opacity="0.15"/>
<ellipse cx="128.038" cy="170.431" rx="0.450002" ry="0.387441" transform="rotate(105.064 128.038 170.431)" fill="#C4C4C4" fill-opacity="0.15"/>
<ellipse cx="125.047" cy="169.626" rx="0.450002" ry="0.387441" transform="rotate(105.064 125.047 169.626)" fill="#C4C4C4" fill-opacity="0.15"/>
<ellipse cx="123.645" cy="174.837" rx="0.450002" ry="0.387441" transform="rotate(105.064 123.645 174.837)" fill="#C4C4C4" fill-opacity="0.15"/>
<ellipse cx="125.841" cy="172.634" rx="0.450002" ry="0.387441" transform="rotate(105.064 125.841 172.634)" fill="#C4C4C4" fill-opacity="0.15"/>
<ellipse cx="126.636" cy="175.642" rx="0.450002" ry="0.387441" transform="rotate(105.064 126.636 175.642)" fill="#C4C4C4" fill-opacity="0.15"/>
<ellipse cx="128.879" cy="176.246" rx="0.450002" ry="0.387441" transform="rotate(105.064 128.879 176.246)" fill="#C4C4C4" fill-opacity="0.15"/>
<ellipse cx="131.076" cy="174.043" rx="0.450002" ry="0.387441" transform="rotate(105.064 131.076 174.043)" fill="#C4C4C4" fill-opacity="0.15"/>
<ellipse cx="131.87" cy="177.051" rx="0.450002" ry="0.387441" transform="rotate(105.064 131.87 177.051)" fill="#C4C4C4" fill-opacity="0.15"/>
<ellipse cx="118.41" cy="173.429" rx="0.450002" ry="0.387441" transform="rotate(105.064 118.41 173.429)" fill="#C4C4C4" fill-opacity="0.15"/>
<ellipse cx="120.607" cy="171.225" rx="0.450002" ry="0.387441" transform="rotate(105.064 120.607 171.225)" fill="#C4C4C4" fill-opacity="0.15"/>
<ellipse cx="121.401" cy="174.234" rx="0.450002" ry="0.387441" transform="rotate(105.064 121.401 174.234)" fill="#C4C4C4" fill-opacity="0.15"/>
<ellipse cx="128.038" cy="170.431" rx="0.450002" ry="0.387441" transform="rotate(105.064 128.038 170.431)" fill="#C4C4C4" fill-opacity="0.15"/>
<defs>
<radialGradient id="paint0_radial" cx="0" cy="0" r="1" gradientUnits="userSpaceOnUse" gradientTransform="translate(125.72 379.286) rotate(92.0301) scale(11.8428 22.7101)">
<stop stop-color="#282828"/>
<stop offset="1" stop-color="#000104"/>
</radialGradient>
<radialGradient id="paint1_radial" cx="0" cy="0" r="1" gradientUnits="userSpaceOnUse" gradientTransform="translate(40.4226 361.055) rotate(104.307) scale(11.8428 22.7101)">
<stop stop-color="#252525"/>
<stop offset="1" stop-color="#000104"/>
</radialGradient>
<linearGradient id="paint2_linear" x1="94.287" y1="279.96" x2="72.8387" y2="364.062" gradientUnits="userSpaceOnUse">
<stop stop-color="#000A41"/>
<stop offset="1" stop-color="#000016"/>
</linearGradient>
<linearGradient id="paint3_linear" x1="246.401" y1="173.027" x2="179.44" y2="217.211" gradientUnits="userSpaceOnUse">
<stop stop-color="#E2BF95"/>
<stop offset="1" stop-color="#DEA35F"/>
</linearGradient>
<linearGradient id="paint4_linear" x1="258.574" y1="119.22" x2="246.481" y2="173.183" gradientUnits="userSpaceOnUse">
<stop stop-color="#E2BF95"/>
<stop offset="1" stop-color="#E2BF95"/>
</linearGradient>
<linearGradient id="paint5_linear" x1="52.9833" y1="203.525" x2="57.8148" y2="242.813" gradientUnits="userSpaceOnUse">
<stop stop-color="#E2BF95"/>
<stop offset="1" stop-color="#DFA24F"/>
</linearGradient>
<linearGradient id="paint6_linear" x1="135.099" y1="183.626" x2="108.907" y2="286.327" gradientUnits="userSpaceOnUse">
<stop offset="0.244792" stop-color="#162E6D"/>
<stop offset="1" stop-color="#2347A7"/>
</linearGradient>
<linearGradient id="paint7_linear" x1="160.204" y1="36.719" x2="117.659" y2="194.789" gradientUnits="userSpaceOnUse">
<stop stop-color="#EECCA7"/>
<stop offset="1" stop-color="#E3AA67"/>
</linearGradient>
<linearGradient id="paint8_linear" x1="135.731" y1="131.368" x2="134.095" y2="137.447" gradientUnits="userSpaceOnUse">
<stop stop-color="#E2A564"/>
<stop offset="1" stop-color="#D69545"/>
</linearGradient>
<linearGradient id="paint9_linear" x1="77.8959" y1="85.8196" x2="74" y2="128.219" gradientUnits="userSpaceOnUse">
<stop stop-color="#E2BF95"/>
<stop offset="1" stop-color="#DEA35F"/>
</linearGradient>
<linearGradient id="paint10_linear" x1="76.6098" y1="98.0474" x2="75.8991" y2="118.536" gradientUnits="userSpaceOnUse">
<stop stop-color="#DFA24F"/>
<stop offset="1" stop-color="#BB6C2A"/>
</linearGradient>
<linearGradient id="paint11_linear" x1="208.006" y1="120.839" x2="190.094" y2="159.465" gradientUnits="userSpaceOnUse">
<stop stop-color="#E2BF95"/>
<stop offset="1" stop-color="#DEA35F"/>
</linearGradient>
<linearGradient id="paint12_linear" x1="202.981" y1="132.061" x2="193.312" y2="150.138" gradientUnits="userSpaceOnUse">
<stop stop-color="#DFA24F"/>
<stop offset="1" stop-color="#BB6C2A"/>
</linearGradient>
<radialGradient id="paint13_radial" cx="0" cy="0" r="1" gradientUnits="userSpaceOnUse" gradientTransform="translate(131.19 148.295) rotate(15.1957) scale(68.9193 680.488)">
<stop stop-color="white"/>
<stop offset="1" stop-color="#B3B6BD"/>
</radialGradient>
<radialGradient id="paint14_radial" cx="0" cy="0" r="1" gradientUnits="userSpaceOnUse" gradientTransform="translate(126.403 165.334) rotate(105.064) scale(12.1421 40.461)">
<stop stop-color="#130101"/>
<stop offset="1" stop-color="#2B0102"/>
</radialGradient>
<radialGradient id="paint15_radial" cx="0" cy="0" r="1" gradientUnits="userSpaceOnUse" gradientTransform="translate(122.252 181.502) rotate(13.85) scale(44.9237 350.675)">
<stop stop-color="white"/>
<stop offset="1" stop-color="#C4C4C4" stop-opacity="0.15"/>
</radialGradient>
<clipPath id="clip0">
<rect width="131.148" height="65.5738" fill="white" transform="translate(87.8442 59.261) rotate(16.2209)"/>
</clipPath>
</defs>
</svg>
