<svg width="453" height="432" viewBox="0 0 453 432" fill="none" xmlns="http://www.w3.org/2000/svg">
<path d="M154.701 175.804L155.154 71.7922C155.17 67.9599 156.426 64.2094 158.925 61.304C200.835 12.5821 272.057 9.02203 308.716 62.5338C310.536 65.1919 311.414 68.3851 311.414 71.6071V178.853C311.414 181.844 310.657 184.817 309.073 187.354C272.794 245.485 193.596 244.846 156.945 184.225C155.417 181.698 154.688 178.757 154.701 175.804Z" fill="url(#paint0_linear)"/>
<path d="M226.834 160.299L222.356 152.208H244.249L239.771 160.299H226.834Z" fill="url(#paint1_linear)"/>
<path d="M222.356 152.208L226.834 126.203H239.771L244.249 152.208H222.356Z" fill="#FDD29D"/>
<path d="M155.179 109.802L154.682 167.593C149.083 163.51 145.018 160.925 139.985 138.696C139.552 136.785 139.289 134.813 139.277 132.853C139.168 115.558 145.187 112.417 155.179 109.802Z" fill="url(#paint2_linear)"/>
<path d="M153.779 125.983V153.723C150.132 152.011 148.305 149.881 146.315 139.275C145.536 128.77 147.5 126.334 153.779 125.983Z" fill="url(#paint3_linear)"/>
<path d="M154.276 131.185V149.1C152.313 147.808 151.236 146.907 150.296 138.119C150.158 133.577 150.869 131.885 154.276 131.185Z" fill="#E5B273"/>
<path d="M311.414 109.802L311.414 167.593L311.563 167.484C317.081 163.462 320.834 160.727 325.799 138.697C326.23 136.785 326.491 134.813 326.512 132.853C326.696 115.558 321.406 112.417 311.414 109.802Z" fill="url(#paint4_linear)"/>
<path d="M312.004 125.983V153.723C315.65 152.011 317.477 149.881 319.467 139.275C320.246 128.77 318.283 126.334 312.004 125.983Z" fill="url(#paint5_linear)"/>
<path d="M311.506 131.185V149.1C313.469 147.808 314.546 146.907 315.486 138.119C315.625 133.577 314.913 131.885 311.506 131.185Z" fill="#E5B273"/>
<path d="M153.189 57.4576V134.951C153.189 135.689 153.87 136.237 154.591 136.08L160.287 134.84C160.797 134.729 161.169 134.291 161.196 133.77L164.605 68.1506C164.623 67.8109 164.795 67.492 165.066 67.2867C187.377 50.3995 201.195 45.2863 225.986 42.3953C226.569 42.3272 226.903 43.042 226.473 43.4419C226.067 43.8192 226.334 44.4987 226.888 44.4987H258.526C258.623 44.4987 258.723 44.5117 258.817 44.5361C284.069 51.0686 293.09 56.8904 304.163 69.035C304.346 69.2357 304.454 69.4974 304.464 69.7688L306.896 132.459C306.919 133.049 307.383 133.527 307.972 133.567L314.152 133.989C314.823 134.035 315.391 133.501 315.387 132.829L314.906 57.4362C314.9 56.5362 314.628 55.651 314.129 54.9022C301.126 35.4013 292.676 24.8341 272.02 12.6676C271.509 12.3667 270.849 12.5039 270.486 12.9729C269.339 14.4565 268.46 15.2694 267.35 15.7698C266.724 16.0517 266.052 15.5877 265.955 14.9085C265.169 9.4122 264.587 5.75459 263.663 2.73773C263.356 1.73622 262.015 1.76376 261.556 2.70551C260.689 4.48769 259.706 5.60893 258.058 6.69266C257.816 6.85167 257.516 6.90375 257.231 6.84981C241.433 3.8537 231.595 3.7054 213.964 5.11474C213.364 5.16268 212.897 5.66437 212.897 6.2661V6.51906C212.897 7.09046 212.474 7.57643 211.91 7.66513C198.031 9.84583 191.043 12.6313 183.096 20.4C182.431 21.0503 181.291 20.72 181.077 19.8148C180.104 15.7033 179.044 13.1246 177.269 10.4348C176.695 9.56386 175.366 9.92485 175.199 10.9549C173.066 24.1287 165.661 37.278 153.968 54.8867C153.463 55.6476 153.189 56.5442 153.189 57.4576Z" fill="#673A11"/>
<path d="M265.38 175.683C253.016 189.23 231.829 195.568 212.171 189.402L212.967 192.568C235.779 197.729 247.534 195.288 266.097 178.533L265.38 175.683Z" fill="#D68B37"/>
<mask id="mask0" mask-type="alpha" maskUnits="userSpaceOnUse" x="175" y="94" width="48" height="45">
<path d="M217.751 138.704H179.439C168.493 118.478 179.439 95.3614 199.341 94.7835C216.259 94.2923 230.688 119.633 217.751 138.704Z" fill="white"/>
</mask>
<g mask="url(#mask0)">
<path d="M217.751 139.86H179.439C168.493 119.633 179.439 96.5173 199.341 95.9393C216.259 95.4481 230.688 120.789 217.751 139.86Z" fill="#FAFAFF"/>
<ellipse cx="199.341" cy="125.99" rx="12.9366" ry="15.0255" fill="#356849"/>
<ellipse cx="199.341" cy="125.99" rx="10.9464" ry="12.7139" fill="black"/>
<ellipse rx="3.49313" ry="4.86132" transform="matrix(1 0 0.116812 0.993154 197.659 131.967)" fill="#FAFAFF"/>
</g>
<mask id="mask1" mask-type="alpha" maskUnits="userSpaceOnUse" x="247" y="94" width="49" height="45">
<path d="M290.567 138.704H252.255C241.308 118.478 252.255 95.3614 272.157 94.7835C289.074 94.2923 303.504 119.633 290.567 138.704Z" fill="white"/>
</mask>
<g mask="url(#mask1)">
<path d="M290.567 139.86H252.255C241.308 119.633 252.255 96.5173 272.157 95.9393C289.074 95.4481 303.504 120.789 290.567 139.86Z" fill="#FAFAFF"/>
<ellipse cx="272.158" cy="125.99" rx="12.9366" ry="15.0255" fill="#356849"/>
<ellipse cx="272.157" cy="125.99" rx="10.9464" ry="12.7139" fill="black"/>
<ellipse rx="3.49313" ry="4.86132" transform="matrix(1 0 0.116812 0.993154 270.476 131.967)" fill="#FAFAFF"/>
</g>
<path d="M291.039 89.1031C272.279 80.7824 262.607 84.756 247.375 94.7792C247.191 94.9006 247.089 95.1188 247.117 95.3378L247.892 101.314C247.947 101.737 248.432 101.952 248.79 101.721C264.762 91.3862 274.404 89.3044 291.348 96.1052C291.761 96.2707 292.209 95.9356 292.152 95.495L291.382 89.5578C291.356 89.3585 291.223 89.1846 291.039 89.1031Z" fill="#673A11"/>
<path d="M222.191 97.9045C204.84 91.6562 195.161 90.08 178.847 92.0093C178.586 92.0402 178.375 92.2446 178.34 92.5052L177.515 98.5856C177.465 98.9538 177.776 99.2723 178.146 99.2397C195.26 97.7351 204.836 99.3604 220.975 105.067C221.321 105.189 221.698 104.965 221.748 104.601L222.572 98.527C222.608 98.2572 222.447 97.9967 222.191 97.9045Z" fill="#673A11"/>
<g clip-path="url(#clip0)">
<path d="M279.009 97.6575C273.255 97.9472 268.436 98.6319 257.086 100.765C242.814 103.438 238.693 103.925 231.016 103.806C225.091 103.714 222.55 103.385 214.031 101.608C208.343 100.423 207.356 100.225 205.473 99.9091C201.984 99.3166 193.531 98.2896 189.08 97.8946C186.17 97.6444 178.336 97.6839 175.716 97.9604C171.213 98.4476 167.408 99.0927 158.928 100.818C156.071 101.41 152.463 102.121 150.91 102.398C149.356 102.687 148.066 102.937 148.053 102.964C148.026 102.99 147.974 104.267 147.921 105.821C147.829 109.007 148 110.548 148.592 111.785C148.777 112.194 149.501 113.115 150.33 114.024C153.543 117.513 154.07 118.329 154.715 120.713C156.15 125.913 157.282 129.468 158.77 133.339C160.482 137.816 162.496 142.161 163.484 143.557C166.868 148.297 174.307 151.615 184.077 152.721C185.025 152.826 187.079 152.879 189.541 152.879C196.348 152.853 200.706 152.155 204.814 150.39C211.608 147.467 216.823 142.109 221.852 132.839C223.077 130.574 223.577 129.324 224.446 126.335C225.539 122.49 225.908 121.424 226.671 119.844C227.514 118.106 228.067 117.421 229.002 117C229.673 116.697 229.805 116.684 232.504 116.71C235.875 116.736 236.388 116.855 237.389 117.75C238.969 119.172 239.812 120.778 241.286 125.229C243.485 131.865 245.631 136.249 248.66 140.292C249.871 141.911 252.044 144.215 253.426 145.348C260.72 151.312 272.794 154.051 283.749 152.221C292.821 150.706 300.102 146.151 303.986 139.567C305.514 136.96 306.83 133.366 308.358 127.546C310.978 117.592 311.979 115.446 314.875 113.537C315.639 113.036 316.021 112.694 316.139 112.404C316.311 111.983 316.324 111.759 316.311 108.125C316.311 107.032 316.311 105.729 316.324 105.202C316.324 104.438 316.284 104.188 316.06 103.885C315.652 103.346 314.875 102.951 313.835 102.793C311.663 102.437 309.385 101.937 305.869 101.015C300.998 99.7379 299.892 99.5272 294.217 98.7241C286.58 97.6444 283.486 97.4337 279.009 97.6575ZM195.124 101.344C198.56 101.515 200.693 101.766 203.564 102.345C214.953 104.623 220.799 108.217 222.129 113.747C222.418 114.972 222.484 117.395 222.26 118.856C221.707 122.411 220.246 126.427 217.428 132.089C215.48 135.986 214.005 138.158 211.674 140.568C206.71 145.664 200.298 148.547 192.24 149.271C187.158 149.745 179.284 148.85 175.308 147.349C170.502 145.545 166.802 142.135 164.577 137.461C162.839 133.827 160.745 126.282 160.034 121.094C159.692 118.672 159.692 113.379 160.021 111.97C160.429 110.258 161.167 108.968 162.549 107.598C165.182 104.965 169.054 103.49 175.782 102.542C179.732 101.989 184.761 101.515 188.488 101.357C191.964 101.199 192.188 101.199 195.124 101.344ZM276.639 101.344C283.512 101.647 291.07 102.542 294.875 103.517C300.761 105.031 304.013 107.44 305.264 111.219C306.225 114.129 305.935 120.028 304.539 126.256C303.802 129.547 302.248 134.524 301.195 136.908C298.996 141.964 294.967 145.69 289.793 147.494C288.292 148.02 284.881 148.745 282.301 149.074C280.049 149.377 275.559 149.482 273.347 149.284C264.131 148.468 256.863 144.729 251.793 138.211C250.069 135.986 247.725 131.694 245.842 127.283C244.881 125.031 243.801 121.726 243.433 119.909C243.038 117.934 243.011 115.064 243.38 113.655C244.776 108.336 250.055 104.965 260.681 102.608C263.999 101.871 266.567 101.529 270.082 101.357C273.11 101.199 273.308 101.199 276.639 101.344Z" fill="black"/>
</g>
<path d="M42.187 409.157H423.605C423.605 421.286 413.773 431.118 401.644 431.118H64.1474C52.019 431.118 42.187 421.286 42.187 409.157Z" fill="#EDF2F7"/>
<path d="M5.31075 217.052C2.55655 202.791 13.4826 189.553 28.0076 189.553H426.125C440.095 189.553 450.873 201.85 449.041 215.7L423.605 408.001H42.1871L5.31075 217.052Z" fill="#EDF2F7"/>
<g clip-path="url(#clip1)">
<path d="M394.759 221.062L371.567 216.816L359.818 243.939L370.905 262.377L392.416 262.76L410.031 239.024L394.759 221.062Z" fill="#DD0031"/>
<path d="M394.759 221.061L392.112 225.647L392.123 225.626L380.042 246.552L370.906 262.376L392.417 262.759L410.032 239.023L394.759 221.061Z" fill="#C3002F"/>
<path d="M392.123 225.626L364.536 245.643L369.019 248.231L374.919 243.595L385.123 249.486L384.058 256.914L388.54 259.502L392.123 225.626ZM385.7 244.862L378.677 240.807L387.066 234.385L385.7 244.862Z" fill="#EDF2F7"/>
</g>
<g clip-path="url(#clip2)">
<path d="M91.9049 293.352C93.7238 292.714 94.6775 290.711 94.0349 288.879C93.3924 287.046 91.397 286.077 89.5781 286.714C87.7592 287.352 86.8055 289.355 87.4481 291.188C88.0906 293.021 90.086 293.989 91.9049 293.352Z" fill="#61DAFB"/>
<path d="M93.1247 296.832C102.885 293.411 109.73 287.593 108.413 283.838C107.097 280.083 98.1177 279.812 88.3577 283.234C78.5976 286.655 71.7527 292.473 73.0691 296.228C74.3855 299.983 83.3647 300.254 93.1247 296.832Z" stroke="#61DAFB" stroke-width="1.15581"/>
<path d="M86.0891 295.481C93.9549 302.288 102.414 305.367 104.983 302.358C107.552 299.349 103.258 291.392 95.3927 284.585C87.5269 277.778 79.0677 274.7 76.4986 277.709C73.9295 280.717 78.2233 288.675 86.0891 295.481Z" stroke="#61DAFB" stroke-width="1.15581"/>
<path d="M83.7056 288.682C81.8114 298.91 83.4256 307.806 87.3111 308.553C91.1966 309.299 95.882 301.612 97.7762 291.384C99.6705 281.156 98.0562 272.26 94.1708 271.514C90.2853 270.767 85.5999 278.454 83.7056 288.682Z" stroke="#61DAFB" stroke-width="1.15581"/>
</g>
<g clip-path="url(#clip3)">
<path d="M212.613 311.455C212.665 311.561 212.587 311.704 212.436 311.779C212.271 311.88 212.109 311.856 212.05 311.735C211.997 311.63 212.076 311.486 212.227 311.411C212.376 311.318 212.553 311.334 212.613 311.455ZM210.873 312.023C210.888 312.146 211.053 312.216 211.225 312.17C211.387 312.155 211.517 312.025 211.496 311.904C211.475 311.783 211.316 311.711 211.136 311.742C210.982 311.772 210.857 311.9 210.873 312.023ZM213.136 310.791C213.002 310.902 212.948 311.054 213.023 311.167C213.091 311.265 213.261 311.266 213.399 311.151C213.532 311.04 213.587 310.888 213.519 310.79C213.454 310.698 213.279 310.7 213.136 310.791ZM206.585 288.935C199.345 292.522 196.55 300.805 200.165 308.099C203.054 313.932 209.171 317.117 215.245 316.295C215.973 316.085 216.003 315.554 215.833 315.212C215.672 314.886 214.765 313.095 214.218 311.99C214.218 311.99 210.954 314.59 209.02 312.614C209.02 312.614 207.666 311.378 206.615 311.408C206.615 311.408 205.01 311.174 206.297 310.556C206.297 310.556 207.649 310.018 208.984 310.915C211.133 312.379 212.76 310.846 213.334 310.129C213.037 309.228 213.088 308.476 213.291 307.943C210.212 309.062 207.057 310.095 204.55 305.035C203.833 303.589 203.871 302.667 204.247 301.327C203.942 301.053 202.8 299.863 202.614 297.689C203.535 296.807 206.919 297.325 206.919 297.325C207.817 296.513 208.864 295.804 209.976 295.253C211.088 294.702 212.286 294.299 213.475 294.076C213.475 294.076 215.111 291.065 216.374 290.872C217.993 292.342 218.245 293.966 218.279 294.375C219.575 294.893 220.446 295.365 221.16 296.806C223.675 301.881 220.801 303.809 218.047 305.586C218.733 305.764 219.531 306.351 220.143 307.587C221.022 309.359 222.092 311.56 222.306 311.992C222.475 312.333 222.921 312.63 223.524 312.18C227.879 307.848 228.946 301.104 226.056 295.271C222.442 287.977 213.826 285.348 206.585 288.935ZM207.868 310.892C207.826 310.978 207.901 311.091 208.04 311.147C208.165 311.19 208.303 311.167 208.337 311.065C208.379 310.979 208.303 310.866 208.165 310.81C208.04 310.767 207.902 310.79 207.868 310.892ZM207.093 310.745C207.09 310.832 207.184 310.89 207.314 310.891C207.424 310.902 207.521 310.834 207.521 310.743C207.523 310.656 207.429 310.598 207.299 310.597C207.179 310.617 207.103 310.674 207.093 310.745ZM209.712 311.779C209.662 311.889 209.772 312.031 209.941 312.072C210.121 312.133 210.28 312.074 210.306 311.956C210.34 311.854 210.231 311.712 210.077 311.664C209.902 311.6 209.738 311.662 209.712 311.779ZM208.734 311.301C208.676 311.395 208.744 311.532 208.887 311.611C209.031 311.691 209.198 311.674 209.24 311.588C209.289 311.478 209.221 311.341 209.078 311.262C208.945 311.177 208.783 311.191 208.734 311.301Z" fill="black"/>
</g>
<g clip-path="url(#clip4)">
<path d="M294.669 365.286C294.38 365.233 294.107 365.106 293.88 364.914L291.523 362.877C291.168 362.586 291.375 362.543 291.513 362.522C292.072 362.434 292.186 362.412 292.805 362.196C292.87 362.173 292.945 362.199 292.999 362.246L294.81 363.813C294.876 363.866 294.98 363.885 295.055 363.858L303.789 360.744C303.869 360.716 303.932 360.64 303.948 360.553L305.599 351.459C305.616 351.368 305.583 351.278 305.516 351.219L298.437 345.239C298.372 345.182 298.275 345.164 298.194 345.195L289.465 348.305C289.381 348.334 289.316 348.41 289.301 348.497L287.649 357.592C287.634 357.679 287.666 357.77 287.734 357.825L289.673 359.465C290.742 360.265 291.586 359.705 291.712 359.01L293.342 350.034C293.365 349.906 293.484 349.825 293.613 349.849L294.615 350.031C294.739 350.053 294.824 350.171 294.801 350.299L293.171 359.279C292.887 360.842 291.869 361.584 290.382 361.314C289.925 361.231 289.565 361.166 288.649 360.49L286.79 358.922C286.565 358.729 286.394 358.481 286.294 358.202C286.194 357.924 286.17 357.624 286.222 357.333L287.873 348.238C287.981 347.646 288.398 347.151 288.964 346.953L297.706 343.838C298.258 343.647 298.923 343.768 299.369 344.14L306.448 350.129C306.674 350.321 306.845 350.569 306.945 350.847C307.044 351.126 307.069 351.425 307.017 351.716L305.365 360.811C305.258 361.4 304.84 361.893 304.275 362.096L295.543 365.212C295.263 365.311 294.962 365.335 294.669 365.282" fill="#689F63"/>
<path d="M298.25 359.463C294.79 358.834 294.352 357.12 294.593 355.792C294.616 355.666 294.736 355.584 294.863 355.607L295.884 355.792C295.997 355.813 296.077 355.912 296.075 356.026C296.041 357.091 296.405 357.698 298.498 358.078C300.164 358.38 300.941 358.134 301.101 357.253C301.193 356.746 301.06 356.333 298.516 355.61C296.389 355.004 295.138 354.285 295.451 352.559C295.74 350.969 297.258 350.266 299.512 350.676C302.044 351.135 303.14 352.239 302.957 354.15C302.954 354.182 302.944 354.213 302.928 354.241C302.912 354.27 302.891 354.294 302.865 354.314C302.839 354.333 302.81 354.347 302.778 354.354C302.747 354.362 302.714 354.363 302.682 354.357L301.655 354.17C301.548 354.151 301.468 354.059 301.465 353.953C301.416 352.817 300.881 352.359 299.256 352.064C297.437 351.734 297.111 352.326 297.025 352.8C296.921 353.374 297.139 353.587 299.535 354.356C301.908 355.119 302.979 355.782 302.67 357.485C302.359 359.201 300.743 359.925 298.237 359.47L298.25 359.463ZM309.62 351.574L309.885 351.622C310.103 351.661 310.172 351.517 310.188 351.428C310.231 351.195 310.07 351.166 309.981 351.15L309.708 351.1L309.62 351.574ZM309.433 350.769L310.021 350.876C310.223 350.913 310.618 350.985 310.537 351.434C310.48 351.748 310.266 351.776 310.138 351.794C310.371 351.853 310.359 352.009 310.351 352.232C310.342 352.371 310.325 352.61 310.358 352.698L309.996 352.632C310.001 352.552 310.024 352.107 310.028 352.084C310.022 351.983 309.997 351.929 309.876 351.907L309.577 351.853L309.453 352.536L309.123 352.476L309.433 350.769ZM308.572 351.489C308.444 352.196 308.912 352.872 309.615 352.999C310.323 353.128 311.001 352.648 311.128 351.953C311.256 351.245 310.778 350.577 310.076 350.45C309.383 350.324 308.7 350.773 308.57 351.487L308.572 351.489ZM311.372 352.002C311.22 352.838 310.41 353.396 309.572 353.244C308.741 353.093 308.171 352.293 308.324 351.448C308.48 350.588 309.308 350.058 310.124 350.206C310.945 350.355 311.526 351.143 311.37 352.001" fill="#689F63"/>
<path fill-rule="evenodd" clip-rule="evenodd" d="M276.643 325.254C276.708 324.891 276.577 324.523 276.295 324.285L268.784 317.955C268.659 317.848 268.509 317.774 268.347 317.74L268.261 317.724C268.099 317.701 267.932 317.715 267.773 317.772L258.517 321.057C258.346 321.119 258.195 321.224 258.078 321.362C257.961 321.499 257.883 321.666 257.85 321.843L255.517 334.796C255.485 334.976 255.547 335.16 255.69 335.278C255.827 335.4 256.021 335.436 256.192 335.369L261.693 333.429C262.042 333.3 262.294 333.005 262.359 332.645L263.457 326.596C263.489 326.418 263.567 326.253 263.684 326.115C263.801 325.978 263.952 325.874 264.122 325.814L266.465 324.981C266.635 324.92 266.818 324.905 266.996 324.937C267.17 324.969 267.339 325.045 267.475 325.164L269.375 326.767C269.657 327.003 269.789 327.372 269.723 327.733L268.625 333.782C268.56 334.141 268.694 334.508 268.974 334.75L273.439 338.497C273.507 338.557 273.59 338.597 273.679 338.613C273.768 338.629 273.86 338.621 273.945 338.589C274.03 338.559 274.105 338.506 274.162 338.438C274.22 338.369 274.259 338.287 274.275 338.199L276.643 325.254ZM314.982 339.18C314.965 339.27 314.902 339.345 314.815 339.375L311.635 340.507C311.593 340.522 311.547 340.525 311.503 340.517C311.458 340.509 311.417 340.49 311.382 340.461L308.803 338.283C308.732 338.224 308.699 338.132 308.716 338.042L309.317 334.729C309.334 334.638 309.396 334.564 309.482 334.532L312.661 333.398C312.748 333.367 312.845 333.384 312.916 333.444L315.495 335.624C315.566 335.684 315.599 335.776 315.582 335.866L314.982 339.18ZM320.215 314.779C320.146 314.722 320.063 314.684 319.975 314.669C319.886 314.654 319.795 314.662 319.711 314.693C319.54 314.756 319.415 314.904 319.382 315.083L317.054 327.907C317.043 327.969 317.015 328.027 316.974 328.075C316.934 328.123 316.881 328.159 316.821 328.181C316.762 328.202 316.698 328.207 316.635 328.196C316.573 328.184 316.515 328.157 316.467 328.116L314.586 326.529C314.448 326.413 314.282 326.334 314.104 326.302C313.927 326.27 313.744 326.285 313.574 326.345L304.311 329.647C304.141 329.707 303.99 329.811 303.873 329.948C303.756 330.085 303.678 330.25 303.646 330.427L301.893 340.078C301.828 340.439 301.961 340.805 302.241 341.044L309.752 347.394C310.033 347.63 310.418 347.7 310.765 347.578L320.029 344.271C320.374 344.147 320.629 343.85 320.694 343.489L325.061 319.437C325.094 319.257 325.077 319.072 325.014 318.9C324.951 318.728 324.842 318.577 324.701 318.46L320.215 314.779ZM344.306 340.991C344.475 340.93 344.625 340.826 344.741 340.689C344.857 340.552 344.935 340.387 344.968 340.21L345.392 337.871C345.458 337.512 345.326 337.145 345.047 336.907L337.588 330.572C337.45 330.455 337.284 330.376 337.105 330.344C336.927 330.312 336.743 330.327 336.573 330.388L327.312 333.689C326.964 333.813 326.712 334.11 326.647 334.471L324.895 344.118C324.829 344.481 324.964 344.852 325.246 345.089L332.719 351.334C332.994 351.565 333.369 351.636 333.711 351.52L339.258 349.644C339.432 349.584 339.564 349.435 339.597 349.253C339.63 349.072 339.563 348.884 339.421 348.767L331.861 342.41C331.719 342.292 331.652 342.107 331.685 341.927L332.234 338.901C332.267 338.72 332.392 338.571 332.567 338.51L335.466 337.477C335.639 337.415 335.831 337.45 335.971 337.569L338.323 339.555C338.463 339.672 338.53 339.857 338.497 340.037L338.065 342.416C338.033 342.596 338.099 342.781 338.239 342.9C338.38 343.017 338.574 343.052 338.746 342.99L344.306 340.991Z" fill="#212429"/>
<path fill-rule="evenodd" clip-rule="evenodd" d="M335.423 338.912C335.456 338.9 335.491 338.897 335.525 338.904C335.559 338.91 335.591 338.925 335.617 338.947L337.059 340.165C337.112 340.21 337.138 340.281 337.125 340.35L336.789 342.203C336.776 342.272 336.728 342.329 336.661 342.353L334.884 342.986C334.851 342.998 334.816 343.001 334.782 342.994C334.748 342.988 334.716 342.973 334.69 342.951L333.25 341.733C333.223 341.711 333.202 341.682 333.19 341.65C333.178 341.617 333.175 341.582 333.181 341.548L333.518 339.695C333.53 339.626 333.577 339.569 333.645 339.545L335.423 338.912Z" fill="#689F63"/>
<path d="M308.221 329.404L286.806 313.657L270.309 335.967L291.723 351.714L308.221 329.404Z" fill="url(#paint6_linear)"/>
<path d="M270.53 326.068L283.059 351.463L307.937 339.288L295.407 313.894L270.53 326.068Z" fill="url(#paint7_linear)"/>
<path d="M282.375 320.46L278.527 341.654L296.675 344.949L300.523 323.755L282.375 320.46Z" fill="url(#paint8_linear)"/>
</g>
<g clip-path="url(#clip5)">
<path d="M64.5877 353.788C62.1031 347.026 58.5744 345.6 57.5651 344.398C57.1441 343.865 56.7596 343.305 56.4143 342.72C56.4506 343.345 56.42 343.746 55.9558 344.283C55.0236 345.363 51.0197 349.602 51.6737 357.567C52.2837 364.993 58.6462 368.793 59.4698 369.164C60.0935 369.376 60.7706 369 61.0842 368.69C63.6166 366.416 66.7531 360.826 64.5907 353.787" fill="#10AA50"/>
<path d="M59.579 365.153C59.6717 366.998 59.7059 368.073 59.4731 369.165C59.4731 369.165 59.9417 370.873 60.3516 372.693L60.9532 372.615C60.9277 371.299 60.9791 369.982 61.1071 368.672C60.2783 368.39 59.8177 366.752 59.579 365.153Z" fill="#B8C4C2"/>
<path d="M61.1063 368.674C60.2718 368.412 59.8221 366.737 59.5802 365.153C59.4335 362.507 59.1478 359.871 58.7244 357.255C58.5037 355.882 57.0815 344.488 56.5059 342.868C56.8246 343.401 57.1785 343.911 57.5651 344.397C58.5745 345.6 62.1042 347.026 64.5877 353.788C66.7516 360.813 63.634 366.388 61.1063 368.674Z" fill="#12924F"/>
<path d="M164.512 352.643C164.175 352.687 163.833 352.63 163.528 352.48C163.223 352.33 162.969 352.092 162.799 351.798C162.628 351.503 162.548 351.165 162.569 350.825C162.59 350.486 162.711 350.16 162.916 349.889C163.121 349.618 163.402 349.414 163.723 349.302C164.044 349.19 164.391 349.176 164.72 349.261C165.049 349.347 165.346 349.527 165.573 349.781C165.799 350.034 165.946 350.349 165.995 350.686C166.031 350.913 166.02 351.144 165.965 351.367C165.909 351.589 165.809 351.798 165.67 351.981C165.532 352.164 165.358 352.317 165.159 352.431C164.96 352.545 164.74 352.617 164.512 352.643ZM164.086 349.376C163.778 349.414 163.488 349.542 163.253 349.746C163.018 349.949 162.849 350.217 162.767 350.517C162.684 350.817 162.692 351.134 162.79 351.429C162.888 351.725 163.072 351.984 163.317 352.175C163.562 352.366 163.858 352.479 164.168 352.501C164.478 352.523 164.787 352.453 165.057 352.299C165.326 352.145 165.544 351.914 165.683 351.636C165.821 351.358 165.874 351.045 165.835 350.736C165.812 350.531 165.749 350.332 165.648 350.151C165.547 349.971 165.411 349.813 165.248 349.686C165.085 349.559 164.898 349.466 164.698 349.413C164.499 349.359 164.291 349.347 164.086 349.376ZM164.842 351.961L164.277 351.066L163.922 351.112L164.046 352.064L163.787 352.098L163.505 349.932L164.143 349.849C164.618 349.787 164.842 349.967 164.894 350.367C164.936 350.684 164.812 350.902 164.542 350.999L165.125 351.921L164.842 351.961ZM163.903 350.887L164.277 350.838C164.58 350.799 164.682 350.681 164.646 350.404C164.61 350.128 164.487 350.048 164.146 350.093L163.805 350.137L163.903 350.887Z" fill="#21313C"/>
<path d="M138.874 354.397C139.385 354.707 140.329 354.739 141.144 354.633C142.2 354.495 143.209 354.165 144.102 353.118C145.01 352.046 145.532 350.519 145.233 348.228C144.947 346.027 143.877 344.349 142.025 343.527C140.977 343.043 139.691 342.966 138.26 343.152C137.848 343.206 137.427 343.283 137.2 343.424C137.111 343.515 137.055 343.633 137.041 343.759C137.049 344.157 137.438 347.142 137.668 348.907C137.904 350.716 138.232 353.239 138.316 353.543C138.372 353.802 138.564 354.245 138.875 354.401L138.874 354.397ZM132.904 342.854C133.278 342.805 134.708 342.685 135.369 342.599C136.605 342.438 137.451 342.261 139.761 341.96C141.698 341.708 143.396 342.019 144.691 342.869C146.26 343.907 147.235 345.507 147.505 347.577C147.888 350.519 146.77 352.394 145.548 353.527C144.34 354.704 142.672 355.498 140.19 355.821C138.869 355.993 136.596 356.245 134.701 356.47L134.662 356.475C134.551 356.312 134.713 355.6 134.865 355.562C135.372 355.437 135.506 355.399 135.73 355.27C136.108 355.054 136.175 354.837 136.126 354.113C136.016 352.753 135.784 351.143 135.546 349.312C135.376 348.005 135.065 345.453 134.917 344.652C134.762 343.986 134.455 343.848 133.862 343.792C133.442 343.759 133.021 343.747 132.6 343.757C132.54 343.632 132.801 342.997 132.894 342.855" fill="#21313C"/>
<path d="M152.254 341.458C152.169 341.491 152.088 341.724 152.102 341.832C152.181 342.62 152.426 344.67 152.611 346.087C152.62 346.113 152.637 346.136 152.659 346.153C152.681 346.17 152.708 346.18 152.735 346.182C153.024 346.166 153.731 346.097 154.325 346.02C155.162 345.911 155.632 345.738 155.879 345.573C156.538 345.133 156.764 344.327 156.656 343.5C156.409 341.604 154.995 341.057 153.037 341.312C152.771 341.343 152.509 341.392 152.25 341.458L152.254 341.458ZM158.381 349.524C158.132 347.606 156.581 346.701 154.005 347.036C153.896 347.05 153.075 347.135 152.886 347.204C152.823 347.234 152.763 347.286 152.769 347.33C152.947 348.703 153.211 350.906 153.392 351.769C153.484 352.134 153.817 352.622 154.166 352.732C154.544 352.882 155.341 352.822 155.892 352.751C157.41 352.553 158.643 351.529 158.381 349.524ZM148.139 340.908C148.338 340.882 148.931 340.871 150.428 340.676C151.836 340.493 152.975 340.3 154.337 340.123C156.031 339.902 158.443 340.209 158.772 342.736C158.934 343.974 158.185 345.095 157.103 345.724C157.04 345.754 157.045 345.798 157.114 345.811C158.797 346.011 160.357 346.829 160.607 348.746C160.851 350.62 159.838 351.949 158.24 352.911C157.27 353.503 156.009 353.821 154.714 353.99C153.724 354.119 151.057 354.361 149.584 354.57C149.421 354.525 149.626 353.788 149.744 353.663C150.08 353.608 150.409 353.512 150.721 353.376C151.232 353.177 151.272 352.999 151.236 352.205C151.192 351.524 150.877 349.105 150.653 347.383C150.347 345.029 150.162 343.437 150.037 342.655C149.936 342.048 149.69 341.88 149.258 341.826C148.92 341.803 148.361 341.81 147.913 341.802C147.788 341.707 148.042 341.009 148.14 340.908" fill="#21313C"/>
<path d="M70.9812 364.826C70.9064 364.694 70.8638 364.546 70.8569 364.394C70.8387 364.292 70.8486 364.188 70.8856 364.091C71.1649 364.013 71.4394 363.919 71.7079 363.809C72.0846 363.661 72.2032 363.43 72.1611 362.93C72.072 361.746 71.789 359.542 71.5645 357.995L71.5586 357.95C71.5368 357.783 71.5073 357.556 71.2804 357.423C70.8887 357.242 70.4729 357.12 70.0461 357.059C69.8546 357.028 69.74 356.945 69.7304 356.83C69.7207 356.716 69.8197 356.567 70.0535 356.488C70.6827 356.34 72.3016 355.723 72.9183 355.335C72.9973 355.414 73.0431 355.521 73.0461 355.633C73.055 355.701 73.0541 355.774 73.0566 355.85C73.0665 356.071 73.0783 356.322 73.1105 356.57C73.1185 356.599 73.1345 356.626 73.1568 356.647C73.1791 356.668 73.2068 356.682 73.2368 356.688C73.2667 356.694 73.2978 356.692 73.3264 356.681C73.3551 356.67 73.3801 356.652 73.3988 356.627C74.5206 355.484 75.5948 354.988 76.1686 354.913C77.1132 354.79 77.9076 355.146 78.5984 356.003C78.6144 356.023 78.6355 356.04 78.6595 356.05C78.6836 356.06 78.7099 356.064 78.736 356.061C78.7595 356.058 78.7819 356.049 78.8013 356.035C78.8207 356.021 78.8364 356.003 78.8471 355.982C79.8821 354.96 80.9525 354.29 81.7148 354.191C83.5155 353.957 84.7678 355.167 85.0622 357.427C85.1468 358.077 85.248 358.902 85.3419 359.671C85.4246 360.346 85.5018 360.979 85.5588 361.416C85.5722 361.52 85.7531 361.798 85.974 361.829C86.2545 361.924 86.6432 361.94 87.135 361.96L87.1536 361.958C87.2065 362.083 87.196 362.597 87.1363 362.71C87.0168 362.726 86.8506 362.737 86.6433 362.753C86.2669 362.783 85.7506 362.824 85.1541 362.902C83.9571 363.058 83.3348 363.162 82.7424 363.279C82.6776 363.136 82.5993 362.655 82.6407 362.547C82.8831 362.476 83.121 362.39 83.3533 362.291C83.7181 362.116 83.8057 361.928 83.7635 361.418C83.7258 361.057 83.3817 357.876 83.1611 357.139C82.9461 356.373 82.2398 355.536 80.9553 355.703C80.4783 355.765 79.7347 356.064 79.0738 356.717C79.0351 356.775 79.0181 356.844 79.0261 356.913L79.0281 356.929C79.1675 357.324 79.2293 357.798 79.3227 358.515C79.3765 358.928 79.4325 359.358 79.4834 359.789C79.5921 360.664 79.6955 361.49 79.7912 362.112C79.8465 362.537 80.1164 362.606 80.334 362.66C80.4495 362.67 80.5409 362.681 80.6333 362.689C80.8108 362.709 80.9957 362.729 81.268 362.737C81.3311 362.913 81.352 363.101 81.3292 363.287C81.327 363.356 81.3089 363.423 81.2762 363.484C80.6078 363.548 79.9223 363.617 78.9364 363.746C78.6377 363.784 78.1521 363.86 77.7229 363.928C77.3749 363.982 77.0465 364.035 76.8592 364.06C76.7929 363.947 76.7534 363.82 76.7438 363.689C76.7173 363.568 76.7252 363.442 76.7666 363.325L77.025 363.242C77.2504 363.171 77.4457 363.11 77.627 363.038C77.9391 362.892 78.0385 362.699 78.0081 362.28C77.9457 361.302 77.6312 358.502 77.4031 357.82C77.0241 356.728 76.3123 356.242 75.2862 356.375C74.6857 356.454 73.9642 356.842 73.4047 357.388C73.3526 357.454 73.3147 357.53 73.2934 357.612C73.2721 357.693 73.2678 357.778 73.2808 357.861C73.3242 358.194 73.3758 358.59 73.4311 359.015C73.6139 360.418 73.832 362.165 73.9644 362.916C74.0154 363.147 74.1338 363.412 74.5827 363.457C74.6821 363.472 74.8504 363.477 75.0462 363.484C75.1588 363.489 75.2819 363.492 75.4095 363.499C75.4813 363.741 75.4941 363.996 75.4469 364.244C75.2553 364.269 75.0177 364.287 74.7464 364.311C74.3319 364.346 73.8139 364.391 73.2319 364.466C72.5437 364.556 72.0677 364.641 71.6859 364.71C71.4289 364.756 71.2067 364.795 70.9833 364.825" fill="#21313C"/>
<path d="M92.0109 353.798C91.6381 353.839 91.2858 353.99 90.9987 354.231C90.295 354.796 90.0266 355.776 90.2045 357.142C90.5374 359.698 92.0484 361.317 93.8789 361.079C94.3718 361.03 94.8284 360.798 95.1582 360.428C95.6609 359.896 95.8373 358.918 95.6662 357.604C95.3382 355.086 93.8682 353.556 92.0088 353.799L92.0109 353.798ZM93.4482 362.099C90.1415 362.529 88.6476 360.253 88.3517 357.981C88.1449 356.394 88.6312 355.068 89.7974 354.04C90.6205 353.369 91.6087 352.931 92.6587 352.772C95.1815 352.443 97.1806 354.03 97.5196 356.633C97.7499 358.401 97.2282 359.889 96.0099 360.935C95.4213 361.411 94.365 361.979 93.4482 362.099Z" fill="#21313C"/>
<path d="M125.676 349.414C125.302 349.454 124.949 349.604 124.662 349.847C123.958 350.412 123.689 351.392 123.867 352.757C124.2 355.313 125.711 356.933 127.542 356.694C128.036 356.647 128.494 356.414 128.825 356.043C129.328 355.511 129.503 354.534 129.332 353.219C129.004 350.702 127.535 349.171 125.676 349.414ZM127.115 357.714C123.808 358.144 122.315 355.869 122.019 353.597C121.812 352.008 122.298 350.683 123.465 349.655C124.288 348.983 125.276 348.545 126.326 348.387C128.848 348.058 130.848 349.646 131.186 352.247C131.417 354.017 130.895 355.504 129.677 356.549C129.088 357.026 128.032 357.594 127.115 357.714Z" fill="#21313C"/>
<path d="M114.531 350.777C113.512 350.91 112.958 351.801 113.12 353.048C113.283 354.295 114.043 355.704 115.639 355.496C115.913 355.46 116.394 355.274 116.604 354.971C116.931 354.581 117.086 353.843 116.989 353.098C116.777 351.472 115.86 350.604 114.536 350.776L114.531 350.777ZM115.525 359.401C115.237 359.435 114.962 359.543 114.728 359.714C113.989 360.335 113.682 360.899 113.76 361.499C113.833 362.06 114.108 362.478 114.628 362.813C115.257 363.22 116.052 363.355 117.056 363.224C119.033 362.967 119.78 361.787 119.643 360.733C119.547 359.998 119.115 359.554 118.322 359.374C117.711 359.237 116.721 359.246 115.528 359.401L115.525 359.401ZM116.319 364.438C115.132 364.593 114.244 364.454 113.441 363.986C112.658 363.529 112.233 362.756 112.159 362.193C112.12 361.829 112.213 361.463 112.421 361.162C112.597 360.9 113.018 360.397 114.026 359.491C114.043 359.481 114.056 359.467 114.064 359.45C114.072 359.433 114.075 359.414 114.073 359.396C114.07 359.375 114.061 359.355 114.046 359.341C114.031 359.326 114.012 359.316 113.991 359.314C113.034 359.083 112.683 358.54 112.559 358.242C112.558 358.23 112.556 358.213 112.544 358.194C112.502 358.076 112.462 357.964 112.613 357.823C112.729 357.716 112.917 357.568 113.118 357.41C113.404 357.199 113.675 356.968 113.928 356.719C113.941 356.7 113.95 356.679 113.953 356.657C113.957 356.635 113.956 356.613 113.949 356.591C113.943 356.57 113.932 356.55 113.916 356.534C113.901 356.517 113.882 356.504 113.862 356.496C112.453 356.218 111.642 355.303 111.443 353.769C111.376 353.292 111.426 352.805 111.587 352.35C111.749 351.896 112.017 351.487 112.37 351.159C112.857 350.658 114.153 349.964 115.035 349.849L115.087 349.842C115.997 349.746 116.534 349.87 117.277 350.04C117.699 350.133 118.135 350.145 118.562 350.076C119.313 349.978 119.61 349.697 119.857 349.383C119.919 349.502 119.96 349.63 119.979 349.763C120.038 350.078 119.993 350.404 119.851 350.691C119.725 350.924 119.384 351.126 119.053 351.169C119.019 351.173 118.986 351.178 118.949 351.177C118.774 351.188 118.598 351.181 118.423 351.159L118.343 351.2C118.321 351.242 118.344 351.283 118.373 351.336C118.38 351.346 118.385 351.357 118.39 351.369C118.486 351.636 118.563 351.91 118.621 352.188C118.83 353.792 118.29 354.573 117.674 355.18C117.078 355.762 116.334 356.168 115.522 356.354C115.505 356.356 115.42 356.374 115.261 356.41C115.16 356.432 115.027 356.462 115.008 356.465L114.988 356.467C114.845 356.528 114.482 356.763 114.527 357.106C114.564 357.391 114.785 357.722 115.631 357.677L116.178 357.645C117.292 357.578 118.684 357.494 119.361 357.63C119.812 357.725 120.22 357.96 120.529 358.302C120.839 358.643 121.032 359.074 121.083 359.532C121.27 360.971 120.425 362.457 118.822 363.507C118.065 363.998 117.207 364.312 116.313 364.425" fill="#21313C"/>
<path d="M110.45 358.904C109.957 358.902 109.595 358.882 109.152 358.741C109.059 358.667 108.991 358.566 108.957 358.452C108.825 357.782 108.57 355.821 108.403 354.538C108.266 353.491 107.972 352.6 107.444 352.003C106.819 351.33 106.014 350.992 105.046 351.119C104.188 351.23 103.12 351.967 102.279 352.897C102.26 352.922 102.132 353.079 102.108 352.864C102.083 352.649 102.059 352.209 102.043 351.928C102.043 351.853 102.025 351.779 101.991 351.712C101.956 351.645 101.907 351.587 101.846 351.543C101.269 351.933 99.5887 352.571 98.9551 352.717C98.4993 352.869 98.4395 353.335 98.9594 353.426L98.9666 353.425C99.3809 353.483 99.7845 353.602 100.165 353.777C100.382 353.904 100.389 354.124 100.412 354.298C100.624 355.755 100.916 358 101.009 359.229C101.05 359.711 100.94 359.903 100.599 360.036L100.63 360.021C100.371 360.123 100.105 360.209 99.8353 360.28C99.7392 360.402 99.8215 361.035 99.9488 361.151C100.169 361.122 101.28 360.912 102.207 360.791C103.482 360.625 104.151 360.604 104.481 360.561C104.594 360.391 104.561 359.797 104.456 359.678C104.15 359.704 103.842 359.699 103.536 359.664C103.173 359.623 103.062 359.46 102.989 359.071C102.813 358.052 102.529 355.873 102.336 354.391C102.282 353.978 102.366 353.767 102.483 353.637C102.872 353.188 103.565 352.833 104.203 352.749C104.821 352.669 105.258 352.811 105.601 353.032C106.002 353.3 106.285 353.711 106.392 354.182C106.587 354.995 106.781 356.658 106.967 358.093C107.07 358.878 107.03 359.083 106.755 359.207C106.632 359.289 106.288 359.401 105.876 359.499C105.761 359.647 105.884 360.251 105.989 360.371C106.561 360.296 107.217 360.145 108.181 360.019C109.392 359.861 110.171 359.826 110.479 359.786C110.59 359.616 110.561 359.041 110.454 358.903" fill="#21313C"/>
</g>
<g clip-path="url(#clip6)">
<path fill-rule="evenodd" clip-rule="evenodd" d="M200.796 359.975C200.575 359.975 200.369 360.022 200.179 360.085C200.583 360.354 200.804 360.709 200.915 361.111C200.922 361.166 200.938 361.206 200.946 361.261C200.954 361.308 200.962 361.356 200.962 361.403C200.994 362.097 200.78 362.184 200.63 362.594C200.401 363.123 200.464 363.691 200.741 364.149C200.764 364.204 200.796 364.267 200.835 364.322C200.535 362.326 202.203 362.026 202.511 361.403C202.535 360.859 202.084 360.496 201.729 360.243C201.389 360.038 201.08 359.975 200.796 359.975ZM203.309 360.425C203.278 360.606 203.301 360.559 203.294 360.654C203.286 360.717 203.286 360.796 203.278 360.859C203.262 360.922 203.246 360.985 203.222 361.048C203.207 361.111 203.183 361.174 203.159 361.237C203.128 361.3 203.104 361.356 203.072 361.419C203.049 361.45 203.033 361.482 203.009 361.514C202.993 361.537 202.977 361.561 202.962 361.585C202.922 361.64 202.883 361.695 202.843 361.742C202.796 361.79 202.756 361.845 202.701 361.884C202.701 361.892 202.701 361.892 202.701 361.892C202.653 361.932 202.606 361.979 202.551 362.018C202.385 362.145 202.195 362.239 202.021 362.358C201.966 362.397 201.91 362.429 201.863 362.476C201.808 362.516 201.76 362.555 201.713 362.602C201.658 362.65 201.618 362.697 201.571 362.752C201.531 362.8 201.484 362.855 201.452 362.91C201.412 362.965 201.373 363.021 201.341 363.076C201.31 363.139 201.286 363.194 201.254 363.257C201.231 363.32 201.207 363.376 201.191 363.439C201.167 363.51 201.152 363.573 201.136 363.636C201.128 363.668 201.128 363.707 201.12 363.739C201.112 363.77 201.112 363.802 201.104 363.833C201.104 363.896 201.096 363.967 201.096 364.03C201.096 364.078 201.096 364.125 201.104 364.172C201.104 364.236 201.112 364.299 201.128 364.37C201.136 364.433 201.152 364.496 201.167 364.559C201.191 364.622 201.207 364.685 201.231 364.748C201.247 364.788 201.27 364.827 201.286 364.859L199.468 364.157C199.16 364.07 198.86 363.991 198.551 363.92C198.385 363.881 198.219 363.841 198.053 363.802C197.579 363.707 197.097 363.636 196.615 363.589C196.599 363.589 196.591 363.581 196.575 363.581C196.101 363.533 195.635 363.51 195.16 363.51C194.813 363.51 194.465 363.525 194.125 363.549C193.643 363.581 193.161 363.644 192.679 363.723C192.56 363.738 192.441 363.762 192.323 363.786C192.078 363.833 191.841 363.888 191.612 363.944C191.493 363.975 191.374 364.007 191.256 364.038C191.137 364.086 191.027 364.141 190.916 364.188C190.829 364.228 190.742 364.267 190.655 364.307C190.639 364.314 190.624 364.314 190.616 364.322C190.537 364.362 190.465 364.393 190.394 364.433C190.371 364.441 190.355 364.449 190.339 364.456C190.252 364.496 190.165 364.543 190.094 364.583C190.039 364.606 189.983 364.638 189.936 364.662C189.912 364.677 189.881 364.693 189.865 364.701C189.794 364.741 189.722 364.78 189.659 364.819C189.588 364.859 189.525 364.898 189.47 364.938C189.414 364.977 189.359 365.009 189.311 365.048C189.304 365.056 189.296 365.056 189.288 365.064C189.24 365.096 189.185 365.135 189.138 365.174C189.138 365.174 189.13 365.182 189.122 365.19C189.082 365.222 189.043 365.253 189.003 365.285C188.987 365.293 188.972 365.309 188.956 365.316C188.916 365.348 188.877 365.387 188.837 365.419C188.829 365.435 188.814 365.443 188.806 365.451C188.758 365.498 188.711 365.537 188.663 365.585C188.655 365.585 188.655 365.593 188.648 365.6C188.6 365.64 188.553 365.687 188.505 365.735C188.497 365.743 188.497 365.75 188.49 365.75C188.45 365.79 188.41 365.829 188.371 365.877C188.355 365.892 188.331 365.908 188.316 365.924C188.276 365.971 188.229 366.019 188.181 366.066C188.173 366.082 188.158 366.09 188.15 366.105C188.086 366.169 188.031 366.232 187.968 366.295C187.96 366.303 187.952 366.311 187.944 366.318C187.818 366.453 187.683 366.587 187.541 366.705C187.399 366.831 187.249 366.95 187.098 367.052C186.94 367.163 186.79 367.257 186.624 367.352C186.466 367.439 186.3 367.518 186.126 367.589C185.96 367.66 185.786 367.723 185.612 367.778C185.28 367.849 184.941 367.983 184.648 368.007C184.585 368.007 184.514 368.023 184.451 368.031C184.379 368.046 184.316 368.062 184.253 368.078C184.19 368.102 184.126 368.125 184.063 368.149C184 368.173 183.937 368.204 183.874 368.236C183.818 368.275 183.755 368.307 183.7 368.346C183.644 368.386 183.589 368.433 183.542 368.48C183.486 368.52 183.431 368.575 183.384 368.622C183.336 368.678 183.289 368.725 183.249 368.78C183.21 368.843 183.162 368.898 183.131 368.962C183.091 369.017 183.052 369.08 183.02 369.143C182.988 369.214 182.957 369.277 182.933 369.348C182.909 369.411 182.886 369.482 182.862 369.553C182.846 369.616 182.83 369.68 182.822 369.743C182.822 369.751 182.814 369.758 182.814 369.766C182.799 369.837 182.799 369.932 182.791 369.979C182.783 370.035 182.775 370.082 182.775 370.137C182.775 370.169 182.775 370.208 182.783 370.24C182.791 370.295 182.799 370.342 182.814 370.39C182.83 370.437 182.846 370.484 182.87 370.532C182.87 370.54 182.87 370.54 182.87 370.54C182.893 370.587 182.925 370.634 182.957 370.682C182.988 370.729 183.02 370.776 183.059 370.824C183.099 370.863 183.146 370.91 183.194 370.95C183.241 370.997 183.289 371.037 183.344 371.076C183.534 371.242 183.581 371.297 183.826 371.423C183.866 371.447 183.905 371.463 183.953 371.486C183.961 371.486 183.968 371.494 183.976 371.494C183.976 371.51 183.976 371.518 183.984 371.534C183.992 371.597 184.008 371.66 184.024 371.723C184.04 371.794 184.063 371.857 184.087 371.912C184.111 371.96 184.127 372.007 184.15 372.055C184.158 372.07 184.166 372.086 184.174 372.094C184.206 372.157 184.237 372.212 184.269 372.268C184.308 372.323 184.348 372.378 184.387 372.433C184.427 372.481 184.474 372.536 184.522 372.583C184.569 372.63 184.617 372.67 184.672 372.717C184.672 372.717 184.68 372.725 184.688 372.725C184.735 372.765 184.783 372.804 184.83 372.836C184.885 372.875 184.941 372.907 185.004 372.938C185.059 372.97 185.122 373.001 185.186 373.025C185.233 373.049 185.288 373.064 185.344 373.08C185.352 373.088 185.36 373.088 185.375 373.096C185.407 373.104 185.446 373.112 185.478 373.12C185.454 373.546 185.446 373.948 185.51 374.09C185.581 374.248 185.929 373.767 186.276 373.214C186.229 373.759 186.197 374.398 186.276 374.587C186.363 374.784 186.838 374.169 187.249 373.49C192.853 372.197 197.966 376.063 198.504 381.522C198.401 380.67 197.35 380.197 196.868 380.315C196.631 380.899 196.228 381.649 195.579 382.114C195.635 381.593 195.611 381.057 195.5 380.536C195.326 381.262 194.987 381.941 194.52 382.524C193.769 382.58 193.019 382.217 192.623 381.672C192.592 381.649 192.584 381.601 192.56 381.57C192.536 381.515 192.513 381.459 192.497 381.404C192.473 381.349 192.457 381.294 192.449 381.238C192.442 381.183 192.442 381.128 192.442 381.065C192.442 381.025 192.442 380.986 192.442 380.947C192.449 380.891 192.465 380.836 192.481 380.781C192.497 380.726 192.513 380.67 192.536 380.615C192.568 380.56 192.592 380.505 192.631 380.449C192.766 380.071 192.766 379.763 192.521 379.582C192.473 379.55 192.426 379.526 192.37 379.503C192.339 379.495 192.299 379.479 192.268 379.471C192.244 379.463 192.228 379.455 192.204 379.447C192.149 379.432 192.094 379.416 192.038 379.408C191.983 379.392 191.928 379.384 191.872 379.384C191.817 379.376 191.754 379.369 191.699 379.369C191.659 379.369 191.62 379.376 191.58 379.376C191.517 379.376 191.461 379.384 191.406 379.4C191.351 379.408 191.295 379.416 191.24 379.432C191.185 379.447 191.129 379.463 191.074 379.487C191.019 379.511 190.971 379.534 190.916 379.558C190.869 379.582 190.821 379.613 190.766 379.637C188.924 380.836 190.023 383.645 191.28 384.458C190.805 384.544 190.323 384.647 190.189 384.749C190.181 384.757 190.173 384.765 190.173 384.765C190.513 384.97 190.869 385.144 191.24 385.294C191.746 385.46 192.283 385.609 192.521 385.673V385.681C193.177 385.815 193.841 385.862 194.512 385.823C198.014 385.578 200.883 382.919 201.405 379.416C201.42 379.487 201.436 379.55 201.452 379.621C201.476 379.763 201.507 379.913 201.523 380.063C201.523 380.063 201.523 380.063 201.523 380.071C201.539 380.142 201.547 380.213 201.555 380.276C201.555 380.292 201.555 380.3 201.555 380.307C201.563 380.378 201.571 380.449 201.571 380.513C201.579 380.599 201.586 380.686 201.586 380.773C201.586 380.812 201.586 380.852 201.586 380.899C201.586 380.939 201.594 380.986 201.594 381.025C201.594 381.073 201.586 381.12 201.586 381.167C201.586 381.207 201.586 381.246 201.586 381.278C201.586 381.333 201.579 381.381 201.579 381.436C201.579 381.467 201.579 381.499 201.571 381.538C201.571 381.594 201.563 381.649 201.563 381.712C201.555 381.736 201.555 381.759 201.555 381.783C201.547 381.846 201.539 381.901 201.531 381.964C201.531 381.988 201.531 382.012 201.523 382.035C201.515 382.114 201.499 382.185 201.492 382.264V382.272V382.28C201.476 382.351 201.46 382.43 201.444 382.501C201.444 382.509 201.444 382.517 201.444 382.525C201.428 382.596 201.412 382.667 201.397 382.738C201.397 382.746 201.389 382.761 201.389 382.769C201.373 382.84 201.357 382.911 201.333 382.982C201.333 382.99 201.333 382.998 201.333 383.006C201.31 383.085 201.286 383.156 201.27 383.227C201.262 383.235 201.262 383.243 201.262 383.243C201.239 383.321 201.215 383.4 201.191 383.479C201.16 383.558 201.136 383.629 201.104 383.708C201.073 383.787 201.049 383.866 201.017 383.937C200.986 384.016 200.954 384.087 200.922 384.166H200.914C200.883 384.237 200.851 384.316 200.812 384.387C200.804 384.41 200.796 384.426 200.788 384.442C200.78 384.45 200.78 384.458 200.772 384.466C200.258 385.499 199.5 386.406 198.551 387.117C198.488 387.156 198.425 387.203 198.361 387.251C198.346 387.266 198.322 387.274 198.306 387.29C198.251 387.33 198.196 387.369 198.132 387.408L198.156 387.456H198.164C198.275 387.44 198.385 387.424 198.496 387.408H198.504C198.709 387.377 198.915 387.337 199.12 387.298C199.176 387.29 199.239 387.274 199.294 387.259C199.334 387.251 199.365 387.243 199.405 387.235C199.46 387.227 199.516 387.211 199.571 387.203C199.618 387.188 199.666 387.18 199.713 387.164C200.504 386.975 201.27 386.714 202.005 386.406C200.749 388.119 199.065 389.499 197.097 390.407C198.006 390.344 198.915 390.194 199.792 389.941C202.977 389.002 205.657 386.864 207.261 383.984C206.937 385.807 206.21 387.543 205.135 389.057C205.902 388.552 206.605 387.969 207.246 387.306C209.016 385.46 210.178 383.116 210.573 380.599C210.842 381.846 210.921 383.132 210.802 384.402C216.509 376.457 211.277 368.22 209.087 366.05C209.079 366.035 209.071 366.027 209.071 366.011C209.064 366.019 209.064 366.019 209.064 366.027C209.064 366.019 209.064 366.019 209.056 366.011C209.056 366.106 209.048 366.2 209.04 366.295C209.016 366.476 208.992 366.65 208.961 366.824C208.921 366.997 208.874 367.171 208.826 367.344C208.771 367.51 208.708 367.684 208.637 367.849C208.566 368.007 208.487 368.173 208.4 368.331C208.313 368.48 208.218 368.638 208.115 368.78C208.012 368.93 207.902 369.072 207.791 369.206C207.672 369.348 207.546 369.475 207.419 369.601C207.34 369.672 207.269 369.735 207.19 369.798C207.127 369.853 207.072 369.901 207.008 369.956C206.866 370.066 206.724 370.169 206.566 370.264C206.416 370.358 206.258 370.453 206.1 370.532C205.934 370.611 205.768 370.682 205.602 370.753C205.436 370.816 205.262 370.871 205.088 370.918C204.914 370.966 204.732 371.005 204.558 371.037C204.376 371.068 204.195 371.084 204.021 371.1C203.894 371.108 203.768 371.116 203.641 371.116C203.46 371.116 203.278 371.1 203.104 371.084C202.922 371.068 202.74 371.045 202.566 371.005C202.385 370.974 202.211 370.926 202.037 370.871H202.029C202.203 370.855 202.377 370.839 202.551 370.808C202.732 370.776 202.906 370.737 203.08 370.69C203.254 370.642 203.428 370.587 203.594 370.524C203.768 370.461 203.934 370.382 204.092 370.303C204.258 370.224 204.408 370.137 204.566 370.043C204.716 369.94 204.866 369.837 205.009 369.727C205.151 369.617 205.285 369.498 205.412 369.372C205.546 369.254 205.665 369.119 205.783 368.985C205.902 368.843 206.013 368.701 206.115 368.559C206.131 368.536 206.147 368.504 206.163 368.48C206.242 368.354 206.321 368.228 206.392 368.102C206.479 367.944 206.558 367.786 206.629 367.62C206.7 367.455 206.763 367.289 206.819 367.115C206.874 366.95 206.914 366.776 206.953 366.603C206.985 366.421 207.016 366.248 207.032 366.074C207.048 365.892 207.064 365.711 207.064 365.537C207.064 365.411 207.056 365.285 207.048 365.159C207.032 364.977 207.008 364.804 206.985 364.63C206.953 364.449 206.914 364.275 206.866 364.101C206.811 363.936 206.756 363.762 206.692 363.597C206.629 363.431 206.55 363.265 206.471 363.107C206.384 362.95 206.297 362.792 206.202 362.642C206.1 362.492 205.997 362.35 205.886 362.208C205.768 362.074 205.649 361.94 205.523 361.805C205.459 361.742 205.388 361.671 205.317 361.608C204.961 361.332 204.59 361.072 204.218 360.835C204.163 360.803 204.116 360.78 204.06 360.756C203.799 360.59 203.554 360.504 203.309 360.425L203.309 360.425Z" fill="#E0234E"/>
</g>
<g clip-path="url(#clip7)">
<path d="M369.819 384.942L367.95 383.863L388.774 347.795L390.643 348.875L369.819 384.942Z" fill="#E10098"/>
<path d="M367.521 380.981H409.17V383.14H367.521V380.981Z" fill="#E10098"/>
<path d="M389.178 394.222L368.346 382.194L369.425 380.325L390.257 392.352L389.178 394.222ZM407.274 362.874L386.442 350.847L387.522 348.978L408.353 361.005L407.274 362.874Z" fill="#E10098"/>
<path d="M369.431 362.866L368.352 360.997L389.183 348.969L390.263 350.839L369.431 362.866Z" fill="#E10098"/>
<path d="M406.891 384.942L386.066 348.875L387.936 347.796L408.76 383.863L406.891 384.942ZM369.173 359.566H371.332V383.621H369.173V359.566ZM405.373 359.566H407.532V383.621H405.373V359.566Z" fill="#E10098"/>
<path d="M388.81 393.308L387.868 391.675L405.986 381.214L406.929 382.847L388.81 393.308Z" fill="#E10098"/>
<path d="M410.392 384.323C409.144 386.495 406.361 387.236 404.19 385.987C402.018 384.739 401.277 381.957 402.525 379.785C403.774 377.614 406.556 376.872 408.728 378.121C410.912 379.382 411.653 382.152 410.392 384.323ZM374.166 363.401C372.918 365.573 370.135 366.314 367.964 365.066C365.792 363.818 365.051 361.035 366.299 358.863C367.548 356.692 370.33 355.951 372.502 357.199C374.673 358.46 375.414 361.23 374.166 363.401ZM366.312 384.323C365.064 382.152 365.805 379.382 367.977 378.121C370.148 376.872 372.918 377.614 374.179 379.785C375.427 381.957 374.686 384.726 372.515 385.987C370.33 387.236 367.561 386.495 366.312 384.323ZM402.538 363.401C401.29 361.23 402.031 358.46 404.203 357.199C406.374 355.951 409.144 356.692 410.405 358.863C411.653 361.035 410.912 363.805 408.741 365.066C406.569 366.314 403.787 365.573 402.538 363.401ZM388.352 397.053C385.843 397.053 383.814 395.024 383.814 392.515C383.814 390.005 385.843 387.977 388.352 387.977C390.862 387.977 392.89 390.005 392.89 392.515C392.89 395.011 390.862 397.053 388.352 397.053ZM388.352 355.21C385.843 355.21 383.814 353.181 383.814 350.672C383.814 348.162 385.843 346.134 388.352 346.134C390.862 346.134 392.89 348.162 392.89 350.672C392.89 353.181 390.862 355.21 388.352 355.21Z" fill="#E10098"/>
</g>
<g clip-path="url(#clip8)">
<path d="M40.0709 211.826C38.4652 211.628 36.8371 211.91 35.3924 212.636C33.9477 213.362 32.7513 214.5 31.9544 215.905C31.1576 217.31 30.7961 218.92 30.9157 220.53C31.0354 222.141 31.6307 223.68 32.6265 224.953C33.6222 226.226 34.9737 227.176 36.51 227.683C38.0462 228.19 39.6983 228.23 41.2573 227.8C42.8162 227.369 44.2121 226.486 45.2682 225.264C46.3244 224.041 46.9935 222.533 47.191 220.93C47.453 218.781 46.8506 216.616 45.5158 214.909C44.181 213.202 42.2229 212.093 40.0709 211.826Z" fill="#478AFF"/>
<path d="M51.6388 213.98C53.6811 214.231 55.5404 212.783 55.7915 210.744C56.0426 208.705 54.5905 206.848 52.5481 206.597C50.5058 206.345 48.6465 207.794 48.3954 209.833C48.1443 211.872 49.5964 213.728 51.6388 213.98Z" fill="#478AFF"/>
<path d="M56.1896 214.56L56.0762 214.202L55.7993 214.453C55.1085 215.065 54.2769 215.498 53.3785 215.712L53.1254 215.769L53.1926 216.023C54.1124 219.319 53.8475 222.832 52.4439 225.953C51.0402 229.074 48.5864 231.605 45.5081 233.107C42.4298 234.61 38.9213 234.989 35.5913 234.179C32.2613 233.369 29.32 231.42 27.2776 228.672C25.2353 225.924 24.2208 222.549 24.4101 219.133C24.5995 215.717 25.9807 212.475 28.3143 209.971C30.6478 207.466 33.7863 205.856 37.1854 205.421C40.5844 204.985 44.0294 205.751 46.9227 207.586L47.1371 207.723L47.2662 207.493C47.732 206.697 48.3873 206.028 49.1742 205.545L49.4948 205.339L49.1839 205.126C46.8229 203.507 44.1046 202.482 41.2612 202.139C37.4126 201.666 33.5145 202.449 30.1502 204.372C26.7858 206.295 24.1363 209.255 22.598 212.807C21.0598 216.36 20.7156 220.315 21.6169 224.08C22.5182 227.846 24.6167 231.219 27.5981 233.695C30.5795 236.171 34.2836 237.617 38.1561 237.817C42.0285 238.016 45.861 236.959 49.0799 234.802C52.2989 232.645 54.7312 229.505 56.0129 225.852C57.2946 222.2 57.3566 218.23 56.1898 214.538L56.1896 214.56Z" fill="#478AFF"/>
<path d="M70.7616 215.974L67.0054 215.511L65.0984 230.994L68.8546 231.457L70.7616 215.974Z" fill="#478AFF"/>
<path d="M111.297 220.967L107.541 220.504L105.634 235.987L109.39 236.449L111.297 220.967Z" fill="#478AFF"/>
<path d="M98.9121 219.073C96.2707 218.748 94.0345 220.086 93.5128 220.466L93.4755 218.772L90.3493 218.387L88.4424 233.869L92.1986 234.332L93.3532 224.958C93.5785 223.129 96.2659 221.922 98.0955 222.148C99.9252 222.373 101.084 224.289 100.828 226.369L99.7328 235.26L103.489 235.722L104.538 227.202C105.026 223.141 103.674 219.659 98.9121 219.073Z" fill="#478AFF"/>
<path d="M119.598 234.85C116.774 234.503 115.18 232.066 115.515 229.345C115.85 226.623 117.988 224.647 120.811 224.995C123.22 225.291 124.402 227.802 124.402 227.802L127.347 226.32C126.708 225.014 125.889 224.176 124.741 223.273C123.75 222.493 122.566 221.995 121.314 221.832C116.615 221.253 112.592 224.334 112.006 228.913C111.464 233.497 114.619 237.462 119.318 238.04C120.567 238.183 121.831 237.987 122.977 237.472C124.31 236.877 125.308 236.261 126.245 235.148L123.747 232.996C123.747 232.996 122.006 235.147 119.598 234.85Z" fill="#478AFF"/>
<path d="M80.6012 216.818C79.5376 216.669 78.4552 216.735 77.4175 217.01C76.3798 217.285 75.4077 217.765 74.5585 218.42C73.7092 219.076 72.9999 219.895 72.4722 220.828C71.9445 221.761 71.609 222.791 71.4855 223.856C70.9448 228.246 73.7703 232.43 78.6606 233.033C83.0881 233.578 87.133 230.638 87.7104 225.95C88.3716 220.582 84.4931 217.297 80.6012 216.818ZM80.2551 220.007C82.584 220.294 84.5568 222.452 84.1823 225.493C83.8158 228.469 81.3813 230.138 79.033 229.849C76.4521 229.531 74.6837 227.211 75.0371 224.342C75.3827 221.536 77.65 219.686 80.2672 220.008L80.2551 220.007Z" fill="#478AFF"/>
</g>
<g clip-path="url(#clip9)">
<path d="M288.999 221.916L284.328 229.923L279.657 221.916H264.102L284.328 256.59L304.554 221.916H288.999Z" fill="#41B883"/>
<path d="M289 221.916L284.329 229.923L279.658 221.916H272.193L284.329 242.72L296.464 221.916H289Z" fill="#34495E"/>
</g>
<g clip-path="url(#clip10)">
<path d="M194.448 255.266C194.83 252.081 194.716 251.614 197.088 252.13L197.69 252.183C199.514 252.266 201.9 251.89 203.302 251.238C206.32 249.838 208.109 247.5 205.133 248.115C198.346 249.515 197.879 247.217 197.879 247.217C205.046 236.583 208.043 223.084 205.456 219.779C198.403 210.767 186.193 215.029 185.989 215.139L185.924 215.151C184.583 214.873 183.082 214.707 181.396 214.679C178.325 214.629 175.994 215.485 174.226 216.826C174.226 216.826 152.445 207.852 153.458 228.111C153.674 232.42 159.635 260.721 166.746 252.173C169.345 249.047 171.857 246.404 171.857 246.404C173.104 247.233 174.597 247.655 176.163 247.504L176.284 247.4C176.246 247.788 176.263 248.168 176.332 248.617C174.501 250.664 175.039 251.023 171.377 251.777C167.672 252.541 169.849 253.9 171.269 254.256C172.992 254.687 176.978 255.297 179.672 251.527L179.565 251.957C180.283 252.532 180.235 256.089 180.337 258.63C180.439 261.172 180.609 263.543 181.127 264.942C181.645 266.34 182.256 269.941 187.069 268.91C191.092 268.048 194.167 266.807 194.448 255.266" fill="black"/>
<path d="M194.448 255.266C194.83 252.081 194.716 251.614 197.088 252.13L197.69 252.183C199.514 252.266 201.9 251.89 203.302 251.238C206.32 249.838 208.109 247.5 205.133 248.115C198.346 249.515 197.879 247.217 197.879 247.217C205.046 236.583 208.043 223.084 205.456 219.779C198.403 210.767 186.193 215.029 185.989 215.139L185.924 215.151C184.583 214.873 183.082 214.707 181.396 214.679C178.325 214.629 175.994 215.485 174.226 216.826C174.226 216.826 152.445 207.852 153.458 228.111C153.674 232.42 159.635 260.721 166.746 252.173C169.345 249.047 171.857 246.404 171.857 246.404C173.104 247.233 174.597 247.655 176.163 247.504L176.284 247.4C176.246 247.788 176.263 248.168 176.332 248.617C174.501 250.664 175.039 251.023 171.377 251.777C167.672 252.541 169.849 253.9 171.269 254.256C172.992 254.687 176.978 255.297 179.672 251.527L179.565 251.957C180.283 252.532 180.235 256.089 180.337 258.63C180.439 261.172 180.609 263.543 181.127 264.942C181.645 266.34 182.256 269.941 187.069 268.91C191.092 268.048 194.167 266.807 194.448 255.266" stroke="black" stroke-width="5.04631"/>
<path d="M205.134 248.115C198.346 249.515 197.88 247.216 197.88 247.216C205.047 236.582 208.043 223.083 205.457 219.779C198.404 210.766 186.193 215.029 185.99 215.139L185.924 215.151C184.583 214.873 183.082 214.707 181.395 214.679C178.324 214.629 175.994 215.484 174.226 216.825C174.226 216.825 152.445 207.852 153.458 228.111C153.673 232.42 159.635 260.721 166.746 252.173C169.345 249.047 171.856 246.404 171.856 246.404C173.103 247.233 174.596 247.655 176.162 247.504L176.283 247.4C176.246 247.789 176.263 248.168 176.332 248.617C174.5 250.664 175.039 251.024 171.377 251.777C167.671 252.541 169.848 253.901 171.269 254.256C172.992 254.687 176.978 255.297 179.672 251.527L179.564 251.957C180.282 252.532 180.786 255.696 180.702 258.565C180.617 261.434 180.561 263.403 181.126 264.942C181.692 266.48 182.255 269.941 187.069 268.91C191.092 268.048 193.176 265.814 193.466 262.088C193.672 259.439 194.138 259.83 194.167 257.462L194.541 256.341C194.972 252.75 194.609 251.591 197.088 252.13L197.69 252.183C199.514 252.266 201.901 251.889 203.302 251.238C206.319 249.838 208.109 247.5 205.134 248.115H205.134Z" fill="#336791"/>
<path d="M179.963 250.173C179.776 256.855 180.01 263.583 180.664 265.219C181.318 266.854 182.718 270.035 187.533 269.003C191.555 268.141 193.018 266.472 193.653 262.789C194.121 260.079 195.023 252.553 195.138 251.011" stroke="#EDF2F7" stroke-width="1.6821" stroke-linecap="round" stroke-linejoin="round"/>
<path d="M174.193 216.676C174.193 216.676 152.396 207.767 153.41 228.026C153.625 232.336 159.587 260.637 166.698 252.089C169.297 248.963 171.647 246.511 171.647 246.511" stroke="#EDF2F7" stroke-width="1.6821" stroke-linecap="round" stroke-linejoin="round"/>
<path d="M185.966 215.05C185.212 215.286 198.091 210.342 205.41 219.694C207.996 222.998 204.999 236.497 197.833 247.133" stroke="#EDF2F7" stroke-width="1.6821" stroke-linecap="round" stroke-linejoin="round"/>
<path d="M197.832 247.132C197.832 247.132 198.299 249.431 205.087 248.03C208.061 247.416 206.272 249.754 203.255 251.155C200.78 252.304 195.229 252.598 195.139 251.011C194.905 246.914 198.06 248.159 197.832 247.132C197.626 246.208 196.216 245.301 195.283 243.039C194.468 241.064 184.11 225.921 198.155 228.17C198.67 228.063 194.492 214.81 181.347 214.595C168.206 214.379 168.637 230.756 168.637 230.756" stroke="#EDF2F7" stroke-width="1.6821" stroke-linecap="round" stroke-linejoin="bevel"/>
<path d="M176.285 248.533C174.452 250.58 174.991 250.939 171.329 251.693C167.624 252.457 169.801 253.816 171.221 254.172C172.944 254.603 176.931 255.213 179.624 251.442C180.444 250.294 179.619 248.461 178.492 247.994C177.948 247.769 177.22 247.486 176.285 248.533V248.533Z" stroke="#EDF2F7" stroke-width="1.6821" stroke-linecap="round" stroke-linejoin="round"/>
<path d="M176.164 248.498C175.98 247.294 176.56 245.862 177.181 244.187C178.115 241.674 180.271 239.16 178.547 231.187C177.261 225.245 168.642 229.95 168.637 230.756C168.631 231.561 169.027 234.839 168.493 238.657C167.796 243.638 171.662 247.851 176.114 247.42" stroke="#EDF2F7" stroke-width="1.6821" stroke-linecap="round" stroke-linejoin="round"/>
<path d="M174.114 230.635C174.075 230.91 174.618 231.644 175.325 231.743C176.031 231.841 176.636 231.267 176.674 230.992C176.713 230.717 176.171 230.414 175.463 230.316C174.756 230.217 174.151 230.361 174.114 230.635H174.114Z" fill="#EDF2F7" stroke="#EDF2F7" stroke-width="0.560696"/>
<path d="M195.627 230.074C195.665 230.349 195.123 231.084 194.415 231.182C193.709 231.28 193.104 230.706 193.065 230.431C193.028 230.156 193.57 229.853 194.277 229.755C194.984 229.656 195.588 229.8 195.627 230.074V230.074Z" fill="#EDF2F7" stroke="#EDF2F7" stroke-width="0.280348"/>
<path d="M198.155 228.17C198.271 230.328 197.69 231.798 197.617 234.096C197.508 237.436 199.209 241.258 196.646 245.085" stroke="#EDF2F7" stroke-width="1.6821" stroke-linecap="round" stroke-linejoin="round"/>
</g>
<defs>
<linearGradient id="paint0_linear" x1="232.053" y1="23.1162" x2="232.053" y2="233.477" gradientUnits="userSpaceOnUse">
<stop stop-color="#EECCA7"/>
<stop offset="1" stop-color="#E3AA67"/>
</linearGradient>
<linearGradient id="paint1_linear" x1="233.302" y1="152.208" x2="233.302" y2="160.299" gradientUnits="userSpaceOnUse">
<stop stop-color="#E2A564"/>
<stop offset="1" stop-color="#D69545"/>
</linearGradient>
<linearGradient id="paint2_linear" x1="146.315" y1="111.536" x2="155.642" y2="165.451" gradientUnits="userSpaceOnUse">
<stop stop-color="#E2BF95"/>
<stop offset="1" stop-color="#DEA35F"/>
</linearGradient>
<linearGradient id="paint3_linear" x1="148.803" y1="127.139" x2="154.764" y2="152.8" gradientUnits="userSpaceOnUse">
<stop stop-color="#DFA24F"/>
<stop offset="1" stop-color="#BB6C2A"/>
</linearGradient>
<linearGradient id="paint4_linear" x1="319.467" y1="111.536" x2="310.141" y2="165.451" gradientUnits="userSpaceOnUse">
<stop stop-color="#E2BF95"/>
<stop offset="1" stop-color="#DEA35F"/>
</linearGradient>
<linearGradient id="paint5_linear" x1="316.979" y1="127.139" x2="311.018" y2="152.801" gradientUnits="userSpaceOnUse">
<stop stop-color="#DFA24F"/>
<stop offset="1" stop-color="#BB6C2A"/>
</linearGradient>
<linearGradient id="paint6_linear" x1="297.509" y1="321.511" x2="281.073" y2="343.863" gradientUnits="userSpaceOnUse">
<stop offset="0.3" stop-color="#3E863D"/>
<stop offset="0.5" stop-color="#55934F"/>
<stop offset="0.8" stop-color="#5AAD45"/>
</linearGradient>
<linearGradient id="paint7_linear" x1="276.871" y1="338.911" x2="301.711" y2="326.656" gradientUnits="userSpaceOnUse">
<stop offset="0.57" stop-color="#3E863D"/>
<stop offset="0.72" stop-color="#619857"/>
<stop offset="1" stop-color="#76AC64"/>
</linearGradient>
<linearGradient id="paint8_linear" x1="280.457" y1="331.059" x2="298.603" y2="334.354" gradientUnits="userSpaceOnUse">
<stop offset="0.16" stop-color="#6BBF47"/>
<stop offset="0.38" stop-color="#79B461"/>
<stop offset="0.47" stop-color="#75AC64"/>
<stop offset="0.7" stop-color="#659E5A"/>
<stop offset="0.9" stop-color="#3E863D"/>
</linearGradient>
<clipPath id="clip0">
<rect width="168.535" height="84.2673" fill="white" transform="translate(147.868 83.174)"/>
</clipPath>
<clipPath id="clip1">
<rect width="59.6334" height="59.6334" fill="white" transform="translate(372.515 199.955) rotate(30)"/>
</clipPath>
<clipPath id="clip2">
<rect width="39.1554" height="35.1048" fill="white" transform="translate(66.459 279.946) rotate(-19.3182)"/>
</clipPath>
<clipPath id="clip3">
<rect width="28.8953" height="30.0511" fill="white" transform="translate(193.598 294.846) rotate(-26.356)"/>
</clipPath>
<clipPath id="clip4">
<rect width="88.9974" height="54.3231" fill="white" transform="translate(261.094 303.978) rotate(10.2909)"/>
</clipPath>
<clipPath id="clip5">
<rect width="115.581" height="31.2069" fill="white" transform="translate(49.1221 343.178) rotate(-7.42083)"/>
</clipPath>
<clipPath id="clip6">
<rect width="32.3627" height="31.2069" fill="white" transform="translate(182.04 359.457)"/>
</clipPath>
<clipPath id="clip7">
<rect width="52.0115" height="52.0115" fill="white" transform="translate(362.347 345.587)"/>
</clipPath>
<clipPath id="clip8">
<rect width="106.335" height="35.8301" fill="white" transform="translate(23.4507 199.955) rotate(7.02156)"/>
</clipPath>
<clipPath id="clip9">
<rect width="40.4534" height="34.6743" fill="white" transform="translate(264.103 221.916)"/>
</clipPath>
<clipPath id="clip10">
<rect width="58.3058" height="60.1022" fill="white" transform="translate(150.833 211.513)"/>
</clipPath>
</defs>
</svg>
