<svg width="1600" height="892" viewBox="0 0 1600 892" fill="none" xmlns="http://www.w3.org/2000/svg">
<mask id="mask0" mask-type="alpha" maskUnits="userSpaceOnUse" x="0" y="0" width="1600" height="892">
<rect width="1600" height="892" fill="url(#paint0_linear)"/>
</mask>
<g mask="url(#mask0)">
<rect width="1600" height="892" fill="url(#paint1_linear)"/>
<path style="mix-blend-mode:hard-light" d="M1329.64 171.221L1572.42 0.135498" stroke="#FAFAFF" stroke-opacity="0.8" stroke-width="3" stroke-miterlimit="10" stroke-linecap="round"/>
<path style="mix-blend-mode:hard-light" d="M1215.62 744.208L1607.82 501.773" stroke="#FAFAFF" stroke-opacity="0.8" stroke-width="3" stroke-miterlimit="10" stroke-linecap="round"/>
<path style="mix-blend-mode:hard-light" d="M-8 706.336L261.315 577.621" stroke="#FAFAFF" stroke-opacity="0.2" stroke-width="5" stroke-miterlimit="10" stroke-linecap="round"/>
<path style="mix-blend-mode:hard-light" d="M0 555.92L539.115 298.258" stroke="#FAFAFF" stroke-opacity="0.1" stroke-width="12" stroke-miterlimit="10" stroke-linecap="round"/>
<path d="M792.131 0L0.52459 405.305L0 0H792.131Z" fill="#0C478C" fill-opacity="0.4"/>
<path d="M1246.59 892.986L1691.43 598.755L1695.09 798.549L1250 1079.32L1246.59 892.986Z" fill="url(#paint2_linear)"/>
<ellipse cx="522.5" cy="138.817" rx="17.5" ry="19.5125" fill="url(#paint3_linear)"/>
<ellipse cx="11" cy="247.53" rx="11" ry="12.265" fill="url(#paint4_linear)"/>
<ellipse cx="778.5" cy="632.763" rx="42.5" ry="47.3875" fill="url(#paint5_linear)"/>
<ellipse cx="990" cy="229.159" rx="22" ry="24.53" fill="url(#paint6_linear)"/>
<ellipse cx="1479.5" cy="694.087" rx="17.5" ry="19.5125" fill="url(#paint7_linear)"/>
<ellipse cx="23.2344" cy="763.588" rx="3.75" ry="4.48993" fill="#FAFAFF" fill-opacity="0.3"/>
<ellipse cx="58.2227" cy="763.588" rx="3.75" ry="4.48993" fill="#FAFAFF" fill-opacity="0.3"/>
<ellipse cx="93.2109" cy="763.588" rx="3.75" ry="4.48993" fill="#FAFAFF" fill-opacity="0.3"/>
<ellipse cx="128.199" cy="763.588" rx="3.75" ry="4.48993" fill="#FAFAFF" fill-opacity="0.3"/>
<ellipse cx="163.188" cy="763.588" rx="3.75" ry="4.48993" fill="#FAFAFF" fill-opacity="0.3"/>
<ellipse cx="17.9531" cy="803.899" rx="3.75" ry="4.48993" fill="#FAFAFF" fill-opacity="0.3"/>
<ellipse cx="52.9414" cy="803.899" rx="3.75" ry="4.48993" fill="#FAFAFF" fill-opacity="0.3"/>
<ellipse cx="87.9297" cy="803.899" rx="3.75" ry="4.48993" fill="#FAFAFF" fill-opacity="0.3"/>
<ellipse cx="122.918" cy="803.899" rx="3.75" ry="4.48993" fill="#FAFAFF" fill-opacity="0.3"/>
<ellipse cx="157.906" cy="803.899" rx="3.75" ry="4.48993" fill="#FAFAFF" fill-opacity="0.3"/>
<ellipse cx="11.3516" cy="843.42" rx="3.75" ry="4.48993" fill="#FAFAFF" fill-opacity="0.3"/>
<ellipse cx="46.3398" cy="843.42" rx="3.75" ry="4.48993" fill="#FAFAFF" fill-opacity="0.3"/>
<ellipse cx="81.3281" cy="843.42" rx="3.75" ry="4.48993" fill="#FAFAFF" fill-opacity="0.3"/>
<ellipse cx="116.316" cy="843.42" rx="3.75" ry="4.48993" fill="#FAFAFF" fill-opacity="0.3"/>
<ellipse cx="151.305" cy="843.42" rx="3.75" ry="4.48993" fill="#FAFAFF" fill-opacity="0.3"/>
<ellipse cx="4.75" cy="882.941" rx="3.75" ry="4.48993" fill="#FAFAFF" fill-opacity="0.3"/>
<ellipse cx="39.7383" cy="882.941" rx="3.75" ry="4.48993" fill="#FAFAFF" fill-opacity="0.3"/>
<ellipse cx="74.7266" cy="882.941" rx="3.75" ry="4.48993" fill="#FAFAFF" fill-opacity="0.3"/>
<ellipse cx="109.715" cy="882.941" rx="3.75" ry="4.48993" fill="#FAFAFF" fill-opacity="0.3"/>
<ellipse cx="144.703" cy="882.941" rx="3.75" ry="4.48993" fill="#FAFAFF" fill-opacity="0.3"/>
</g>
<defs>
<linearGradient id="paint0_linear" x1="0" y1="0" x2="1632.41" y2="828.108" gradientUnits="userSpaceOnUse">
<stop stop-color="#003A7D"/>
<stop offset="0.520833" stop-color="#3778C3"/>
<stop offset="1" stop-color="#66ADFF"/>
</linearGradient>
<linearGradient id="paint1_linear" x1="0" y1="0" x2="1632.41" y2="828.108" gradientUnits="userSpaceOnUse">
<stop stop-color="#003A7D"/>
<stop offset="1" stop-color="#66ADFF"/>
</linearGradient>
<linearGradient id="paint2_linear" x1="1438.37" y1="761.135" x2="1521.25" y2="896.905" gradientUnits="userSpaceOnUse">
<stop stop-color="#3C7DC9"/>
<stop offset="1" stop-color="#66ADFF"/>
</linearGradient>
<linearGradient id="paint3_linear" x1="505" y1="119.305" x2="543.795" y2="154.099" gradientUnits="userSpaceOnUse">
<stop stop-color="#60A6F7"/>
<stop offset="1" stop-color="#054084"/>
</linearGradient>
<linearGradient id="paint4_linear" x1="0" y1="235.265" x2="24.3854" y2="257.135" gradientUnits="userSpaceOnUse">
<stop stop-color="#60A6F7"/>
<stop offset="1" stop-color="#054084"/>
</linearGradient>
<linearGradient id="paint5_linear" x1="736" y1="585.375" x2="830.216" y2="669.874" gradientUnits="userSpaceOnUse">
<stop stop-color="#60A6F7"/>
<stop offset="1" stop-color="#054084"/>
</linearGradient>
<linearGradient id="paint6_linear" x1="968" y1="204.629" x2="1016.77" y2="248.369" gradientUnits="userSpaceOnUse">
<stop stop-color="#60A6F7"/>
<stop offset="1" stop-color="#054084"/>
</linearGradient>
<linearGradient id="paint7_linear" x1="1462" y1="674.575" x2="1500.79" y2="709.369" gradientUnits="userSpaceOnUse">
<stop stop-color="#60A6F7"/>
<stop offset="1" stop-color="#054084"/>
</linearGradient>
</defs>
</svg>
