<svg width="215" height="145" viewBox="0 0 215 145" fill="none" xmlns="http://www.w3.org/2000/svg">
<circle cx="2.10784" cy="2.10784" r="2.10784" fill="#1D5A81"/>
<circle cx="212.892" cy="2.10784" r="2.10784" fill="#1D5A81"/>
<circle cx="107.5" cy="2.10784" r="2.10784" fill="#1D5A81"/>
<circle cx="160.196" cy="2.10784" r="2.10784" fill="#1D5A81"/>
<circle cx="54.8039" cy="2.10784" r="2.10784" fill="#1D5A81"/>
<circle cx="81.5033" cy="2.10784" r="2.10784" fill="#1D5A81"/>
<circle cx="28.8073" cy="2.10784" r="2.10784" fill="#1D5A81"/>
<circle cx="134.199" cy="2.10784" r="2.10784" fill="#1D5A81"/>
<circle cx="186.895" cy="2.10784" r="2.10784" fill="#1D5A81"/>
<circle cx="2.10784" cy="142.631" r="2.10784" fill="#1D5A81"/>
<circle cx="212.892" cy="142.631" r="2.10784" fill="#1D5A81"/>
<circle cx="107.5" cy="142.631" r="2.10784" fill="#1D5A81"/>
<circle cx="160.196" cy="142.631" r="2.10784" fill="#1D5A81"/>
<circle cx="54.8039" cy="142.631" r="2.10784" fill="#1D5A81"/>
<circle cx="81.5033" cy="142.631" r="2.10784" fill="#1D5A81"/>
<circle cx="28.8073" cy="142.631" r="2.10784" fill="#1D5A81"/>
<circle cx="134.199" cy="142.631" r="2.10784" fill="#1D5A81"/>
<circle cx="186.895" cy="142.631" r="2.10784" fill="#1D5A81"/>
<circle cx="2.10784" cy="72.3693" r="2.10784" fill="#1D5A81"/>
<circle cx="212.892" cy="72.3693" r="2.10784" fill="#1D5A81"/>
<circle cx="107.5" cy="72.3693" r="2.10784" fill="#1D5A81"/>
<circle cx="160.196" cy="72.3693" r="2.10784" fill="#1D5A81"/>
<circle cx="54.8039" cy="72.3693" r="2.10784" fill="#1D5A81"/>
<circle cx="81.5033" cy="72.3693" r="2.10784" fill="#1D5A81"/>
<circle cx="28.8073" cy="72.3693" r="2.10784" fill="#1D5A81"/>
<circle cx="134.199" cy="72.3693" r="2.10784" fill="#1D5A81"/>
<circle cx="186.895" cy="72.3693" r="2.10784" fill="#1D5A81"/>
<circle cx="2.10784" cy="107.5" r="2.10784" fill="#1D5A81"/>
<circle cx="212.892" cy="107.5" r="2.10784" fill="#1D5A81"/>
<circle cx="107.5" cy="107.5" r="2.10784" fill="#1D5A81"/>
<circle cx="160.196" cy="107.5" r="2.10784" fill="#1D5A81"/>
<circle cx="54.8039" cy="107.5" r="2.10784" fill="#1D5A81"/>
<circle cx="81.5033" cy="107.5" r="2.10784" fill="#1D5A81"/>
<circle cx="28.8073" cy="107.5" r="2.10784" fill="#1D5A81"/>
<circle cx="134.199" cy="107.5" r="2.10784" fill="#1D5A81"/>
<circle cx="186.895" cy="107.5" r="2.10784" fill="#1D5A81"/>
<circle cx="2.10784" cy="37.2386" r="2.10784" fill="#1D5A81"/>
<circle cx="212.892" cy="37.2386" r="2.10784" fill="#1D5A81"/>
<circle cx="107.5" cy="37.2386" r="2.10784" fill="#1D5A81"/>
<circle cx="160.196" cy="37.2386" r="2.10784" fill="#1D5A81"/>
<circle cx="54.8039" cy="37.2386" r="2.10784" fill="#1D5A81"/>
<circle cx="81.5033" cy="37.2386" r="2.10784" fill="#1D5A81"/>
<circle cx="28.8073" cy="37.2386" r="2.10784" fill="#1D5A81"/>
<circle cx="134.199" cy="37.2386" r="2.10784" fill="#1D5A81"/>
<circle cx="186.895" cy="37.2386" r="2.10784" fill="#1D5A81"/>
<circle cx="2.10784" cy="19.6732" r="2.10784" fill="#1D5A81"/>
<circle cx="212.892" cy="19.6732" r="2.10784" fill="#1D5A81"/>
<circle cx="107.5" cy="19.6732" r="2.10784" fill="#1D5A81"/>
<circle cx="160.196" cy="19.6732" r="2.10784" fill="#1D5A81"/>
<circle cx="54.8039" cy="19.6732" r="2.10784" fill="#1D5A81"/>
<circle cx="81.5033" cy="19.6732" r="2.10784" fill="#1D5A81"/>
<circle cx="28.8073" cy="19.6732" r="2.10784" fill="#1D5A81"/>
<circle cx="134.199" cy="19.6732" r="2.10784" fill="#1D5A81"/>
<circle cx="186.895" cy="19.6732" r="2.10784" fill="#1D5A81"/>
<circle cx="2.10784" cy="54.8039" r="2.10784" fill="#1D5A81"/>
<circle cx="212.892" cy="54.8039" r="2.10784" fill="#1D5A81"/>
<circle cx="107.5" cy="54.8039" r="2.10784" fill="#1D5A81"/>
<circle cx="160.196" cy="54.8039" r="2.10784" fill="#1D5A81"/>
<circle cx="54.8039" cy="54.8039" r="2.10784" fill="#1D5A81"/>
<circle cx="81.5033" cy="54.8039" r="2.10784" fill="#1D5A81"/>
<circle cx="28.8073" cy="54.8039" r="2.10784" fill="#1D5A81"/>
<circle cx="134.199" cy="54.8039" r="2.10784" fill="#1D5A81"/>
<circle cx="186.895" cy="54.8039" r="2.10784" fill="#1D5A81"/>
<circle cx="2.10784" cy="89.9346" r="2.10784" fill="#1D5A81"/>
<circle cx="212.892" cy="89.9346" r="2.10784" fill="#1D5A81"/>
<circle cx="107.5" cy="89.9346" r="2.10784" fill="#1D5A81"/>
<circle cx="160.196" cy="89.9346" r="2.10784" fill="#1D5A81"/>
<circle cx="54.8039" cy="89.9346" r="2.10784" fill="#1D5A81"/>
<circle cx="81.5033" cy="89.9346" r="2.10784" fill="#1D5A81"/>
<circle cx="28.8073" cy="89.9346" r="2.10784" fill="#1D5A81"/>
<circle cx="134.199" cy="89.9346" r="2.10784" fill="#1D5A81"/>
<circle cx="186.895" cy="89.9346" r="2.10784" fill="#1D5A81"/>
<circle cx="2.10784" cy="125.065" r="2.10784" fill="#1D5A81"/>
<circle cx="212.892" cy="125.065" r="2.10784" fill="#1D5A81"/>
<circle cx="107.5" cy="125.065" r="2.10784" fill="#1D5A81"/>
<circle cx="160.196" cy="125.065" r="2.10784" fill="#1D5A81"/>
<circle cx="54.8039" cy="125.065" r="2.10784" fill="#1D5A81"/>
<circle cx="81.5033" cy="125.065" r="2.10784" fill="#1D5A81"/>
<circle cx="28.8073" cy="125.065" r="2.10784" fill="#1D5A81"/>
<circle cx="134.199" cy="125.065" r="2.10784" fill="#1D5A81"/>
<circle cx="186.895" cy="125.065" r="2.10784" fill="#1D5A81"/>
</svg>
