<svg width="221" height="65" viewBox="0 0 221 65" fill="none" xmlns="http://www.w3.org/2000/svg">
<path d="M27.3636 5L0 32.5L27.3636 60L35.5882 51.7356L16.4414 32.5L35.5882 13.2644L27.3636 5Z" fill="#0C478C"/>
<path d="M88.3414 60L116.094 32.5L88.3414 5L80 13.2644L99.4188 32.5L80 51.7356L88.3414 60Z" fill="#0C478C"/>
<path d="M69.305 1.27H78.34L56.89 62.5H47.855L69.305 1.27Z" fill="#28C4AC"/>
<path d="M173.504 6V20H170.904V14H163.664V20H161.064V6H163.664V11.78H170.904V6H173.504ZM187.055 14.72C187.055 14.8933 187.042 15.14 187.015 15.46H178.635C178.782 16.2467 179.162 16.8733 179.775 17.34C180.402 17.7933 181.175 18.02 182.095 18.02C183.268 18.02 184.235 17.6333 184.995 16.86L186.335 18.4C185.855 18.9733 185.248 19.4067 184.515 19.7C183.782 19.9933 182.955 20.14 182.035 20.14C180.862 20.14 179.828 19.9067 178.935 19.44C178.042 18.9733 177.348 18.3267 176.855 17.5C176.375 16.66 176.135 15.7133 176.135 14.66C176.135 13.62 176.368 12.6867 176.835 11.86C177.315 11.02 177.975 10.3667 178.815 9.9C179.655 9.43333 180.602 9.2 181.655 9.2C182.695 9.2 183.622 9.43333 184.435 9.9C185.262 10.3533 185.902 11 186.355 11.84C186.822 12.6667 187.055 13.6267 187.055 14.72ZM181.655 11.2C180.855 11.2 180.175 11.44 179.615 11.92C179.068 12.3867 178.735 13.0133 178.615 13.8H184.675C184.568 13.0267 184.242 12.4 183.695 11.92C183.148 11.44 182.468 11.2 181.655 11.2ZM153.093 32.72C153.866 32.9733 154.48 33.4 154.933 34C155.386 34.5867 155.613 35.32 155.613 36.2C155.613 37.4133 155.146 38.3533 154.213 39.02C153.28 39.6733 151.92 40 150.133 40H143.173V26H149.733C151.386 26 152.66 26.3267 153.553 26.98C154.446 27.62 154.893 28.5067 154.893 29.64C154.893 30.3333 154.733 30.9467 154.413 31.48C154.093 32.0133 153.653 32.4267 153.093 32.72ZM145.773 28.04V31.9H149.453C150.36 31.9 151.053 31.74 151.533 31.42C152.026 31.0867 152.273 30.6067 152.273 29.98C152.273 29.34 152.026 28.86 151.533 28.54C151.053 28.2067 150.36 28.04 149.453 28.04H145.773ZM149.973 37.96C151.986 37.96 152.993 37.2867 152.993 35.94C152.993 34.5933 151.986 33.92 149.973 33.92H145.773V37.96H149.973ZM168.488 29.32V40H166.108V38.64C165.708 39.12 165.208 39.4933 164.608 39.76C164.008 40.0133 163.361 40.14 162.668 40.14C161.241 40.14 160.114 39.7467 159.288 38.96C158.474 38.16 158.068 36.98 158.068 35.42V29.32H160.568V35.08C160.568 36.04 160.781 36.76 161.208 37.24C161.648 37.7067 162.268 37.94 163.068 37.94C163.961 37.94 164.668 37.6667 165.188 37.12C165.721 36.56 165.988 35.76 165.988 34.72V29.32H168.488ZM171.761 29.32H174.261V40H171.761V29.32ZM173.021 27.56C172.568 27.56 172.188 27.42 171.881 27.14C171.574 26.8467 171.421 26.4867 171.421 26.06C171.421 25.6333 171.574 25.28 171.881 25C172.188 24.7067 172.568 24.56 173.021 24.56C173.474 24.56 173.854 24.7 174.161 24.98C174.468 25.2467 174.621 25.5867 174.621 26C174.621 26.44 174.468 26.8133 174.161 27.12C173.868 27.4133 173.488 27.56 173.021 27.56ZM177.542 25.16H180.042V40H177.542V25.16ZM193.784 25.16V40H191.384V38.62C190.97 39.1267 190.457 39.5067 189.844 39.76C189.244 40.0133 188.577 40.14 187.844 40.14C186.817 40.14 185.89 39.9133 185.064 39.46C184.25 39.0067 183.61 38.3667 183.144 37.54C182.677 36.7 182.444 35.74 182.444 34.66C182.444 33.58 182.677 32.6267 183.144 31.8C183.61 30.9733 184.25 30.3333 185.064 29.88C185.89 29.4267 186.817 29.2 187.844 29.2C188.55 29.2 189.197 29.32 189.784 29.56C190.37 29.8 190.87 30.16 191.284 30.64V25.16H193.784ZM188.144 38C188.744 38 189.284 37.8667 189.764 37.6C190.244 37.32 190.624 36.9267 190.904 36.42C191.184 35.9133 191.324 35.3267 191.324 34.66C191.324 33.9933 191.184 33.4067 190.904 32.9C190.624 32.3933 190.244 32.0067 189.764 31.74C189.284 31.46 188.744 31.32 188.144 31.32C187.544 31.32 187.004 31.46 186.524 31.74C186.044 32.0067 185.664 32.3933 185.384 32.9C185.104 33.4067 184.964 33.9933 184.964 34.66C184.964 35.3267 185.104 35.9133 185.384 36.42C185.664 36.9267 186.044 37.32 186.524 37.6C187.004 37.8667 187.544 38 188.144 38ZM200.354 40.14C199.487 40.14 198.641 40.0267 197.814 39.8C196.987 39.5733 196.327 39.2867 195.834 38.94L196.794 37.04C197.274 37.36 197.847 37.62 198.514 37.82C199.194 38.0067 199.861 38.1 200.514 38.1C202.007 38.1 202.754 37.7067 202.754 36.92C202.754 36.5467 202.561 36.2867 202.174 36.14C201.801 35.9933 201.194 35.8533 200.354 35.72C199.474 35.5867 198.754 35.4333 198.194 35.26C197.647 35.0867 197.167 34.7867 196.754 34.36C196.354 33.92 196.154 33.3133 196.154 32.54C196.154 31.5267 196.574 30.72 197.414 30.12C198.267 29.5067 199.414 29.2 200.854 29.2C201.587 29.2 202.321 29.2867 203.054 29.46C203.787 29.62 204.387 29.84 204.854 30.12L203.894 32.02C202.987 31.4867 201.967 31.22 200.834 31.22C200.101 31.22 199.541 31.3333 199.154 31.56C198.781 31.7733 198.594 32.06 198.594 32.42C198.594 32.82 198.794 33.1067 199.194 33.28C199.607 33.44 200.241 33.5933 201.094 33.74C201.947 33.8733 202.647 34.0267 203.194 34.2C203.741 34.3733 204.207 34.6667 204.594 35.08C204.994 35.4933 205.194 36.08 205.194 36.84C205.194 37.84 204.761 38.64 203.894 39.24C203.027 39.84 201.847 40.14 200.354 40.14ZM148.408 46L143.768 60H141.008L137.548 49.64L134.028 60H131.248L126.608 46H129.308L132.788 56.64L136.408 46H138.808L142.348 56.7L145.928 46H148.408ZM159.526 54.72C159.526 54.8933 159.512 55.14 159.486 55.46H151.106C151.252 56.2467 151.632 56.8733 152.246 57.34C152.872 57.7933 153.646 58.02 154.566 58.02C155.739 58.02 156.706 57.6333 157.466 56.86L158.806 58.4C158.326 58.9733 157.719 59.4067 156.986 59.7C156.252 59.9933 155.426 60.14 154.506 60.14C153.332 60.14 152.299 59.9067 151.406 59.44C150.512 58.9733 149.819 58.3267 149.326 57.5C148.846 56.66 148.606 55.7133 148.606 54.66C148.606 53.62 148.839 52.6867 149.306 51.86C149.786 51.02 150.446 50.3667 151.286 49.9C152.126 49.4333 153.072 49.2 154.126 49.2C155.166 49.2 156.092 49.4333 156.906 49.9C157.732 50.3533 158.372 51 158.826 51.84C159.292 52.6667 159.526 53.6267 159.526 54.72ZM154.126 51.2C153.326 51.2 152.646 51.44 152.086 51.92C151.539 52.3867 151.206 53.0133 151.086 53.8H157.146C157.039 53.0267 156.712 52.4 156.166 51.92C155.619 51.44 154.939 51.2 154.126 51.2ZM167.847 49.2C168.887 49.2 169.814 49.4267 170.627 49.88C171.454 50.3333 172.1 50.9733 172.567 51.8C173.034 52.6267 173.267 53.58 173.267 54.66C173.267 55.74 173.034 56.7 172.567 57.54C172.1 58.3667 171.454 59.0067 170.627 59.46C169.814 59.9133 168.887 60.14 167.847 60.14C167.114 60.14 166.44 60.0133 165.827 59.76C165.227 59.5067 164.72 59.1267 164.307 58.62V60H161.927V45.16H164.427V50.62C164.854 50.1533 165.354 49.8 165.927 49.56C166.514 49.32 167.154 49.2 167.847 49.2ZM167.567 58C168.487 58 169.24 57.6933 169.827 57.08C170.427 56.4667 170.727 55.66 170.727 54.66C170.727 53.66 170.427 52.8533 169.827 52.24C169.24 51.6267 168.487 51.32 167.567 51.32C166.967 51.32 166.427 51.46 165.947 51.74C165.467 52.0067 165.087 52.3933 164.807 52.9C164.527 53.4067 164.387 53.9933 164.387 54.66C164.387 55.3267 164.527 55.9133 164.807 56.42C165.087 56.9267 165.467 57.32 165.947 57.6C166.427 57.8667 166.967 58 167.567 58ZM178.938 60.14C178.071 60.14 177.225 60.0267 176.398 59.8C175.571 59.5733 174.911 59.2867 174.418 58.94L175.378 57.04C175.858 57.36 176.431 57.62 177.098 57.82C177.778 58.0067 178.445 58.1 179.098 58.1C180.591 58.1 181.338 57.7067 181.338 56.92C181.338 56.5467 181.145 56.2867 180.758 56.14C180.385 55.9933 179.778 55.8533 178.938 55.72C178.058 55.5867 177.338 55.4333 176.778 55.26C176.231 55.0867 175.751 54.7867 175.338 54.36C174.938 53.92 174.738 53.3133 174.738 52.54C174.738 51.5267 175.158 50.72 175.998 50.12C176.851 49.5067 177.998 49.2 179.438 49.2C180.171 49.2 180.905 49.2867 181.638 49.46C182.371 49.62 182.971 49.84 183.438 50.12L182.478 52.02C181.571 51.4867 180.551 51.22 179.418 51.22C178.685 51.22 178.125 51.3333 177.738 51.56C177.365 51.7733 177.178 52.06 177.178 52.42C177.178 52.82 177.378 53.1067 177.778 53.28C178.191 53.44 178.825 53.5933 179.678 53.74C180.531 53.8733 181.231 54.0267 181.778 54.2C182.325 54.3733 182.791 54.6667 183.178 55.08C183.578 55.4933 183.778 56.08 183.778 56.84C183.778 57.84 183.345 58.64 182.478 59.24C181.611 59.84 180.431 60.14 178.938 60.14ZM185.931 49.32H188.431V60H185.931V49.32ZM187.191 47.56C186.738 47.56 186.358 47.42 186.051 47.14C185.744 46.8467 185.591 46.4867 185.591 46.06C185.591 45.6333 185.744 45.28 186.051 45C186.358 44.7067 186.738 44.56 187.191 44.56C187.644 44.56 188.024 44.7 188.331 44.98C188.638 45.2467 188.791 45.5867 188.791 46C188.791 46.44 188.638 46.8133 188.331 47.12C188.038 47.4133 187.658 47.56 187.191 47.56ZM198.132 59.42C197.839 59.66 197.479 59.84 197.052 59.96C196.639 60.08 196.199 60.14 195.732 60.14C194.559 60.14 193.652 59.8333 193.012 59.22C192.372 58.6067 192.052 57.7133 192.052 56.54V51.4H190.292V49.4H192.052V46.96H194.552V49.4H197.412V51.4H194.552V56.48C194.552 57 194.679 57.4 194.932 57.68C195.186 57.9467 195.552 58.08 196.032 58.08C196.592 58.08 197.059 57.9333 197.432 57.64L198.132 59.42ZM209.877 54.72C209.877 54.8933 209.864 55.14 209.837 55.46H201.457C201.604 56.2467 201.984 56.8733 202.597 57.34C203.224 57.7933 203.997 58.02 204.917 58.02C206.091 58.02 207.057 57.6333 207.817 56.86L209.157 58.4C208.677 58.9733 208.071 59.4067 207.337 59.7C206.604 59.9933 205.777 60.14 204.857 60.14C203.684 60.14 202.651 59.9067 201.757 59.44C200.864 58.9733 200.171 58.3267 199.677 57.5C199.197 56.66 198.957 55.7133 198.957 54.66C198.957 53.62 199.191 52.6867 199.657 51.86C200.137 51.02 200.797 50.3667 201.637 49.9C202.477 49.4333 203.424 49.2 204.477 49.2C205.517 49.2 206.444 49.4333 207.257 49.9C208.084 50.3533 208.724 51 209.177 51.84C209.644 52.6667 209.877 53.6267 209.877 54.72ZM204.477 51.2C203.677 51.2 202.997 51.44 202.437 51.92C201.891 52.3867 201.557 53.0133 201.437 53.8H207.497C207.391 53.0267 207.064 52.4 206.517 51.92C205.971 51.44 205.291 51.2 204.477 51.2ZM215.579 60.14C214.712 60.14 213.865 60.0267 213.039 59.8C212.212 59.5733 211.552 59.2867 211.059 58.94L212.019 57.04C212.499 57.36 213.072 57.62 213.739 57.82C214.419 58.0067 215.085 58.1 215.739 58.1C217.232 58.1 217.979 57.7067 217.979 56.92C217.979 56.5467 217.785 56.2867 217.399 56.14C217.025 55.9933 216.419 55.8533 215.579 55.72C214.699 55.5867 213.979 55.4333 213.419 55.26C212.872 55.0867 212.392 54.7867 211.979 54.36C211.579 53.92 211.379 53.3133 211.379 52.54C211.379 51.5267 211.799 50.72 212.639 50.12C213.492 49.5067 214.639 49.2 216.079 49.2C216.812 49.2 217.545 49.2867 218.279 49.46C219.012 49.62 219.612 49.84 220.079 50.12L219.119 52.02C218.212 51.4867 217.192 51.22 216.059 51.22C215.325 51.22 214.765 51.3333 214.379 51.56C214.005 51.7733 213.819 52.06 213.819 52.42C213.819 52.82 214.019 53.1067 214.419 53.28C214.832 53.44 215.465 53.5933 216.319 53.74C217.172 53.8733 217.872 54.0267 218.419 54.2C218.965 54.3733 219.432 54.6667 219.819 55.08C220.219 55.4933 220.419 56.08 220.419 56.84C220.419 57.84 219.985 58.64 219.119 59.24C218.252 59.84 217.072 60.14 215.579 60.14Z" fill="#0C478C"/>
</svg>
