<svg width="1600" height="745" viewBox="0 0 1600 745" fill="none" xmlns="http://www.w3.org/2000/svg">
<mask id="mask0" mask-type="alpha" maskUnits="userSpaceOnUse" x="0" y="0" width="1600" height="745">
<rect width="1600" height="745" fill="url(#paint0_linear)"/>
</mask>
<g mask="url(#mask0)">
<rect width="1600" height="745" fill="url(#paint1_linear)"/>
<path style="mix-blend-mode:hard-light" d="M1329.64 143.004L1572.42 0.113159" stroke="#FAFAFF" stroke-opacity="0.8" stroke-width="3" stroke-miterlimit="10" stroke-linecap="round"/>
<path style="mix-blend-mode:hard-light" d="M1215.62 621.564L1607.82 419.082" stroke="#FAFAFF" stroke-opacity="0.8" stroke-width="3" stroke-miterlimit="10" stroke-linecap="round"/>
<path style="mix-blend-mode:hard-light" d="M-8 589.933L261.315 482.43" stroke="#FAFAFF" stroke-opacity="0.2" stroke-width="5" stroke-miterlimit="10" stroke-linecap="round"/>
<path style="mix-blend-mode:hard-light" d="M0 464.305L539.115 249.105" stroke="#FAFAFF" stroke-opacity="0.1" stroke-width="12" stroke-miterlimit="10" stroke-linecap="round"/>
<path d="M792.131 0L0.52459 338.511L0 0H792.131Z" fill="#0C478C" fill-opacity="0.4"/>
<path d="M1114 345.89L1599 85.675V267.979L1114 515.913V345.89Z" fill="#FAFAFF" fill-opacity="0.3"/>
<path d="M1209.18 148.66L1597.91 -68.8839L1601.15 78.8961L1212.2 286.484L1209.18 148.66Z" fill="#FAFAFF" fill-opacity="0.2"/>
<path d="M1246.59 745.823L1691.43 500.081L1695.09 666.95L1250 901.45L1246.59 745.823Z" fill="url(#paint2_linear)"/>
<ellipse cx="522.5" cy="115.941" rx="17.5" ry="16.2969" fill="url(#paint3_linear)"/>
<ellipse cx="11" cy="206.737" rx="11" ry="10.2437" fill="url(#paint4_linear)"/>
<ellipse cx="778.5" cy="528.484" rx="42.5" ry="39.5781" fill="url(#paint5_linear)"/>
<ellipse cx="990" cy="191.394" rx="22" ry="20.4875" fill="url(#paint6_linear)"/>
<ellipse cx="1479.5" cy="579.703" rx="17.5" ry="16.2969" fill="url(#paint7_linear)"/>
<circle cx="23.2344" cy="637.75" r="3.75" fill="#FAFAFF" fill-opacity="0.3"/>
<circle cx="58.2227" cy="637.75" r="3.75" fill="#FAFAFF" fill-opacity="0.3"/>
<circle cx="93.2109" cy="637.75" r="3.75" fill="#FAFAFF" fill-opacity="0.3"/>
<circle cx="128.199" cy="637.75" r="3.75" fill="#FAFAFF" fill-opacity="0.3"/>
<circle cx="163.188" cy="637.75" r="3.75" fill="#FAFAFF" fill-opacity="0.3"/>
<circle cx="17.9531" cy="671.418" r="3.75" fill="#FAFAFF" fill-opacity="0.3"/>
<circle cx="52.9414" cy="671.418" r="3.75" fill="#FAFAFF" fill-opacity="0.3"/>
<circle cx="87.9297" cy="671.418" r="3.75" fill="#FAFAFF" fill-opacity="0.3"/>
<circle cx="122.918" cy="671.418" r="3.75" fill="#FAFAFF" fill-opacity="0.3"/>
<circle cx="157.906" cy="671.418" r="3.75" fill="#FAFAFF" fill-opacity="0.3"/>
<circle cx="11.3516" cy="704.426" r="3.75" fill="#FAFAFF" fill-opacity="0.3"/>
<circle cx="46.3398" cy="704.426" r="3.75" fill="#FAFAFF" fill-opacity="0.3"/>
<circle cx="81.3281" cy="704.426" r="3.75" fill="#FAFAFF" fill-opacity="0.3"/>
<circle cx="116.316" cy="704.426" r="3.75" fill="#FAFAFF" fill-opacity="0.3"/>
<circle cx="151.305" cy="704.426" r="3.75" fill="#FAFAFF" fill-opacity="0.3"/>
<circle cx="4.75" cy="737.434" r="3.75" fill="#FAFAFF" fill-opacity="0.3"/>
<circle cx="39.7383" cy="737.434" r="3.75" fill="#FAFAFF" fill-opacity="0.3"/>
<circle cx="74.7266" cy="737.434" r="3.75" fill="#FAFAFF" fill-opacity="0.3"/>
<circle cx="109.715" cy="737.434" r="3.75" fill="#FAFAFF" fill-opacity="0.3"/>
<circle cx="144.703" cy="737.434" r="3.75" fill="#FAFAFF" fill-opacity="0.3"/>
</g>
<defs>
<linearGradient id="paint0_linear" x1="0" y1="0" x2="1499.36" y2="910.693" gradientUnits="userSpaceOnUse">
<stop stop-color="#003A7D"/>
<stop offset="0.520833" stop-color="#3778C3"/>
<stop offset="1" stop-color="#66ADFF"/>
</linearGradient>
<linearGradient id="paint1_linear" x1="0" y1="0" x2="1499.36" y2="910.693" gradientUnits="userSpaceOnUse">
<stop stop-color="#003A7D"/>
<stop offset="1" stop-color="#66ADFF"/>
</linearGradient>
<linearGradient id="paint2_linear" x1="1438.37" y1="635.702" x2="1501.36" y2="759.241" gradientUnits="userSpaceOnUse">
<stop stop-color="#3C7DC9"/>
<stop offset="1" stop-color="#66ADFF"/>
</linearGradient>
<linearGradient id="paint3_linear" x1="505" y1="99.6438" x2="537.511" y2="134.555" gradientUnits="userSpaceOnUse">
<stop stop-color="#60A6F7"/>
<stop offset="1" stop-color="#054084"/>
</linearGradient>
<linearGradient id="paint4_linear" x1="0" y1="196.494" x2="20.4356" y2="218.438" gradientUnits="userSpaceOnUse">
<stop stop-color="#60A6F7"/>
<stop offset="1" stop-color="#054084"/>
</linearGradient>
<linearGradient id="paint5_linear" x1="736" y1="488.906" x2="814.956" y2="573.691" gradientUnits="userSpaceOnUse">
<stop stop-color="#60A6F7"/>
<stop offset="1" stop-color="#054084"/>
</linearGradient>
<linearGradient id="paint6_linear" x1="968" y1="170.906" x2="1008.87" y2="214.795" gradientUnits="userSpaceOnUse">
<stop stop-color="#60A6F7"/>
<stop offset="1" stop-color="#054084"/>
</linearGradient>
<linearGradient id="paint7_linear" x1="1462" y1="563.406" x2="1494.51" y2="598.318" gradientUnits="userSpaceOnUse">
<stop stop-color="#60A6F7"/>
<stop offset="1" stop-color="#054084"/>
</linearGradient>
</defs>
</svg>
